<svg xmlns="http://www.w3.org/2000/svg" viewBox="0 0 800 800"><path fill="#BDBEC0" stroke="#000" stroke-width="2" d="M291.1 496.7s-36.1-37.1-37.6-54c0 0-18.6 44.7 11 78.3 14.6 16.7 46.8 44.1 78.6 59.4l152.4 85.4s65.1 40.5 67.9 84.6c0 0 12.2-67.2-25.5-101.2 0 0-27.9-25.3-114.6-72-86.6-46.6-128.1-76.1-132.2-80.5zM285.1 236.8s-36.1-32.6-37.6-47.5c0 0-18.6 39.3 11 69 14.6 14.7 46.8 38.8 78.6 52.3l152.4 75.2s65.1 35.7 67.8 74.5c0 0 12.2-59.2-25.5-89.1 0 0-27.9-22.3-114.6-63.4-86.6-41.2-128.1-67.2-132.1-71zM540.2 115.1s-10.1-9.2-37.3-26.7l-58.4 10 56.8 31.9s59.8 37.4 62.3 78c0 .1 11.3-61.9-23.4-93.2z"/><g fill="#662D91"><path d="M342.6 208.1s.1 0 0 0c4.1 2.3 8.9 3.7 13.9 3.7 2.2 0 4.3-.3 6.4-.8 15.7 3.7 36.7 12.2 49.6 31.4.9 2.1 2.1 4.1 3.5 5.9 0 0 0 .1.1.1 5.1 6.5 13 10.6 21.8 10.6 15.3 0 27.8-12.4 27.8-27.8 0-11.6-7.1-21.5-17.1-25.7-3.3-1.4-6.9-2.1-10.7-2.1-2.4 0-4.6.3-6.8.9-12.5-2.5-30.1-9.3-47.7-26.8-1.4-5.6-4.6-10.5-8.8-14.1-1.9-1.6-4-2.9-6.3-4-3.6-1.7-7.6-2.6-11.9-2.6-15.4 0-27.9 12.3-27.9 27.5.2 10.2 5.8 19.1 14.1 23.8zM544.8 383.1c-.9-3.4-2.5-6.8-4.8-9.7-1.4-1.9-3.1-3.5-4.8-4.9-5.6-11.4-11-29.6-7.8-54.1 3.5-4.5 5.5-10 5.8-15.6.1-2.5-.1-5-.6-7.4-.9-3.9-2.6-7.7-5.2-11-9.4-12.2-26.7-14.6-38.7-5.3-8.1 6.2-11.6 16-10.3 25.5.6 4.7 2.5 9.2 5.5 13.3 1.3 1.7 2.9 3.3 4.5 4.6 6.6 14.7 12.7 36.6 5.4 58.5-1.1 2-1.9 4.2-2.5 6.4v.1c-2 8-.5 16.8 4.9 23.8 9.4 12.2 26.8 14.4 39 5.1 8.9-7.1 12.4-18.8 9.6-29.3zM456.2 424.1c-8.4-5.8-18.8-6.1-27.5-2-4.2 2-8 5.2-10.9 9.4-1.2 1.8-2.2 3.7-3 5.7-12 10.8-30.9 23.4-54 23.1-2.3-.4-4.6-.6-6.9-.4h-.1c-8.2.5-16.1 4.6-21.2 12-8.7 12.6-5.5 29.9 7.1 38.6 9.5 6.6 21.7 6.3 30.9.4 3-1.9 5.6-4.5 7.8-7.6 1.3-1.9 2.4-4 3.1-6.1 9.2-8.9 24.7-19.6 49.1-24.1 5.4 2 11.2 2.2 16.6.7 2.4-.6 4.7-1.6 6.8-2.9 3.4-2 6.5-4.8 8.9-8.3 8.9-12.6 5.8-29.9-6.7-38.5zM295.3 606.5c-.5-3.5-1.7-7-3.7-10.2-1.2-2-2.7-3.8-4.3-5.4-4.3-12-7.6-30.6-1.7-54.6 4-4.1 6.6-9.3 7.5-14.8.4-2.4.5-4.9.2-7.4-.4-4-1.7-7.9-3.9-11.5-8-13.2-24.9-17.5-37.9-9.7-8.7 5.3-13.4 14.6-13.1 24.2.1 4.7 1.4 9.5 4 13.8 1.1 1.9 2.5 3.6 3.9 5.1 4.9 15.3 8.5 37.8-1.2 58.7-1.3 1.9-2.4 3.9-3.2 6.1 0 0 0 .1-.1.1-2.9 7.7-2.4 16.6 2.2 24.2 7.9 13.1 25 17.4 38.2 9.4 9.9-6 14.7-17.2 13.1-28zM435.1 703.2c0-.1 0-.1 0 0-3.7-2.9-8.2-4.9-13.2-5.7-2.2-.3-4.3-.4-6.4-.2-15-6-34.6-17.4-44.5-38.3-.6-2.2-1.5-4.4-2.6-6.3v-.1c-4.1-7.1-11.3-12.4-20.1-13.7-15.2-2.2-29.3 8.3-31.5 23.4-1.7 11.4 3.9 22.3 13.2 27.9 3 1.8 6.5 3.1 10.2 3.7 2.3.3 4.6.4 6.9.1 12 4.3 28.5 13.6 43.2 33.4.6 5.7 3 11 6.7 15.2 1.6 1.9 3.5 3.5 5.6 4.9 3.3 2.2 7.2 3.7 11.4 4.3 15.2 2.2 29.3-8.1 31.6-23.1 1.3-10.1-3-19.6-10.5-25.5z"/></g><path fill="#662D91" d="M369 654.5c.4-1.5.8-3 1-4.6 1.4-11.5-4.4-22.2-13.8-27.6-3.1-1.8-6.6-3-10.3-3.4-2.3-.3-4.6-.3-6.9 0-12.1-4.1-28.8-13-44-32.5-.7-5.7-3.2-10.9-7-15.1-1.7-1.8-3.6-3.4-5.7-4.8-3.4-2.1-7.3-3.6-11.5-4.1-15.3-1.9-29.2 8.7-31.1 23.8-.7 5.4.3 10.6 2.5 15.2-.5 1.7-1 3.4-1.2 5.2-1.2 10.1 3.3 19.5 11 25.3 3.8 2.8 8.3 4.7 13.3 5.3 2.2.3 4.3.3 6.4 0 15.1 5.6 35 16.6 45.5 37.2.7 2.2 1.6 4.3 2.8 6.3v.1c4.3 7 11.6 12.1 20.4 13.2 15.2 1.9 29.1-9 31-24.2.9-5.4-.1-10.7-2.4-15.3z"/><circle fill="#662D91" cx="355.6" cy="163.8" r="11.4"/><path fill="#662D91" d="M531.2 283.2c2.8-11.2-1.6-22.6-10.3-29.1-2.8-2.1-6.1-3.7-9.8-4.7-2.3-.6-4.6-.8-6.8-.8-11.5-5.5-26.9-16.4-39.6-37.7 0-5.7-1.8-11.3-5.1-15.8-1.4-2-3.1-3.8-5.1-5.4-3.1-2.5-6.8-4.4-10.9-5.5-14.9-3.8-30 5.1-33.8 19.8-1.4 5.6-1 11.2.9 16.2-.4.9-.7 1.9-.9 2.9-2.5 9.8.8 19.8 7.7 26.4 3.4 3.3 7.7 5.7 12.6 7 2.1.5 4.3.8 6.4.8 14.3 7.5 32.6 20.9 40.4 42.7.4 2.3 1.1 4.5 2 6.6v.1c3.3 7.5 10 13.5 18.6 15.7 14.9 3.8 30-5.2 33.8-20.1 1.4-5.6 1-11.3-.9-16.4.2-.9.5-1.8.8-2.7z"/><path fill="#FFF" d="M436.6 239.8c-8.8 0-17-4-22.5-10.9-.1-.1-.2-.2-.2-.3-1.4-1.9-2.6-3.9-3.6-6-12.7-18.9-33.5-27.2-48.8-30.9-2.2.5-4.3.7-6.4.7-5 0-10-1.3-14.3-3.8-.1 0-.1-.1-.2-.1-8.9-5.1-14.4-14.5-14.4-24.6 0-15.7 12.9-28.5 28.9-28.5 4.3 0 8.4.9 12.2 2.7.1 0 .1 0 .2.1 2.3 1.1 4.5 2.5 6.4 4.1 4.5 3.8 7.6 8.7 9.1 14.3 17.5 17.3 35 23.9 46.7 26.3 2.3-.6 4.6-.9 6.8-.9 3.8 0 7.5.7 11 2.2.1 0 .1 0 .2.1 10.7 4.5 17.7 14.9 17.7 26.6-.1 16-13 28.9-28.8 28.9z"/><path fill="#662D91" d="M355.1 136.6c4.3 0 8.3.9 11.9 2.6 2.3 1.1 4.4 2.4 6.3 4 4.3 3.6 7.4 8.5 8.8 14.1 17.5 17.5 35.2 24.3 47.7 26.8 2.2-.6 4.5-.9 6.8-.9 3.8 0 7.4.8 10.7 2.1 10.1 4.2 17.1 14.1 17.1 25.7 0 15.3-12.4 27.8-27.8 27.8-8.9 0-16.8-4.2-21.8-10.6 0 0 0-.1-.1-.1-1.4-1.8-2.6-3.8-3.5-5.9-12.9-19.2-34-27.7-49.6-31.4-2.1.5-4.2.8-6.4.8-5.1 0-9.8-1.4-13.9-3.7-8.3-4.7-13.9-13.6-13.9-23.8-.2-15.2 12.3-27.5 27.7-27.5m0-2c-16.5 0-29.9 13.2-29.9 29.5 0 10.4 5.6 20.1 14.7 25.4.1.1.3.2.4.2 4.5 2.5 9.6 3.8 14.7 3.8 2.1 0 4.2-.2 6.4-.7 15.1 3.7 35.4 11.9 47.9 30.3.9 2.1 2.2 4.2 3.6 6 .1.2.2.3.3.4 5.7 7.1 14.2 11.2 23.3 11.2 16.4 0 29.8-13.4 29.8-29.8 0-12-7.2-22.8-18.3-27.5-.1 0-.2-.1-.2-.1-3.6-1.5-7.4-2.2-11.3-2.2-2.2 0-4.5.3-6.9.8-11.6-2.4-28.7-8.8-45.8-25.8-1.6-5.7-4.8-10.7-9.3-14.6-2-1.7-4.2-3.1-6.6-4.2-.1 0-.2-.1-.3-.1-3.9-1.6-8.1-2.6-12.5-2.6z"/><circle fill="#662D91" cx="355" cy="164.3" r="12"/><circle fill="#662D91" cx="436.6" cy="211.1" r="12"/><path fill="#662D91" d="M541.4 377.1c0-.1.1-.2.1-.3 5.6-14.3-1.4-30.4-15.5-35.9-9.5-3.7-19.7-1.6-27.2 4.4-3.7 3-6.6 6.9-8.5 11.6-.8 2.1-1.3 4.1-1.6 6.2-9.1 13.3-24.7 29.8-47.3 34.9-2.3.1-4.6.5-6.8 1.2h-.1c-7.9 2.4-14.6 8.2-17.8 16.5-2.3 6-2.4 12.4-.7 18.2l-.3.6c-6.3 14-.1 30.5 13.9 36.8 10.5 4.8 22.5 2.4 30.4-5.1 2.6-2.4 4.8-5.4 6.3-8.8 1-2.1 1.6-4.4 2-6.6 7.4-10.4 20.9-23.7 44-32.4 5.7 1 11.4.1 16.5-2.3 2.2-1.1 4.3-2.4 6.2-4.1 3-2.6 5.5-5.9 7.3-9.8 4-8.3 3.3-17.6-.9-25.1z"/><path fill="#FFF" d="M516.5 398.9c-9 0-17.3-4.1-22.8-11.2-5.4-7-7.2-15.9-5.1-24.5 0-.1 0-.3.1-.4.6-2.2 1.4-4.4 2.5-6.5 7.2-21.6 1.2-43.1-5.3-57.5-1.7-1.4-3.2-3-4.5-4.6-3-3.9-5-8.6-5.7-13.6 0-.1-.1-.2-.1-.4-1.3-10.1 2.8-20.1 10.7-26.3 5-3.8 10.9-5.8 17.2-5.8 9 0 17.4 4.1 23 11.4 2.6 3.4 4.4 7.2 5.3 11.4v.2c.6 2.5.8 5.1.6 7.6-.3 5.8-2.3 11.3-5.8 15.9-3.1 24.4 2.4 42.3 7.7 53.1 1.9 1.5 3.5 3.1 4.8 4.9 2.3 3 4 6.4 5 10 0 .1 0 .1.1.2 3 11.3-1.1 23.1-10.3 30.2-4.9 3.8-11 5.9-17.4 5.9z"/><path fill="#662D91" d="M503.7 249.2c8.3 0 16.6 3.8 22.2 11 2.6 3.4 4.3 7.1 5.2 11 .5 2.4.8 4.9.6 7.4-.3 5.6-2.2 11.1-5.8 15.6-3.2 24.5 2.2 42.7 7.8 54.1 1.8 1.4 3.4 3 4.8 4.9 2.3 3 3.9 6.3 4.8 9.7 2.8 10.5-.7 22.2-9.9 29.2-5 3.9-11 5.8-16.9 5.8-8.3 0-16.6-3.7-22-10.8-5.4-7-6.9-15.8-4.9-23.8v-.1c.6-2.2 1.4-4.4 2.5-6.4 7.4-21.9 1.2-43.8-5.4-58.5-1.6-1.3-3.1-2.9-4.5-4.6-3.1-4-4.9-8.6-5.5-13.3-1.3-9.5 2.3-19.3 10.3-25.5 5-3.9 10.9-5.7 16.7-5.7m0-2c-6.5 0-12.7 2.1-17.8 6-8.2 6.3-12.5 16.7-11.1 27.2 0 .2 0 .3.1.5.7 5.1 2.8 9.9 5.9 14 1.3 1.7 2.8 3.2 4.4 4.6 6.3 14.2 12.2 35.3 5.2 56.5-1.1 2-2 4.3-2.6 6.6-.1.2-.1.3-.1.5-2.2 8.9-.3 18.1 5.3 25.3 5.7 7.4 14.3 11.6 23.6 11.6 6.6 0 12.9-2.1 18.1-6.2 9.5-7.3 13.7-19.6 10.6-31.2 0-.1 0-.2-.1-.2-1-3.8-2.7-7.2-5.1-10.3-1.4-1.8-3-3.4-4.8-4.9-5.1-10.6-10.5-28.2-7.5-52 3.5-4.7 5.6-10.3 5.9-16.3.1-2.6-.1-5.2-.7-7.8 0-.1 0-.2-.1-.3-1-4.3-2.8-8.2-5.5-11.7-5.7-7.7-14.4-11.9-23.7-11.9z"/><circle fill="#662D91" cx="503.9" cy="276.9" r="12"/><circle fill="#662D91" cx="516.5" cy="370.1" r="12"/><path fill="#662D91" d="M379 474c4.4-10.7 1.7-23.5-7.6-31.2-7.7-6.4-17.9-7.7-26.7-4.3-4.3 1.6-8.3 4.4-11.5 8.2-1.4 1.7-2.5 3.5-3.4 5.3-12.6 9.5-32.3 20.1-54.9 17.9-2.2-.6-4.4-1-6.7-1h-.1c-8.1-.2-16.2 3.1-21.7 9.9-6.3 7.6-7.8 17.7-4.7 26.4-4.3 10.4-1.7 22.9 7.2 30.8 8.5 7.5 20.4 8.8 30 4.1 3.1-1.5 6-3.7 8.5-6.5 1.5-1.7 2.8-3.6 3.8-5.6 10-7.6 26.4-16.2 50.7-17.7 5 2.6 10.7 3.4 16.1 2.6 2.4-.4 4.8-1 7-2 3.6-1.6 6.9-3.9 9.7-7.1 7.4-8.6 8.8-20.3 4.3-29.8z"/><g><path fill="#FFF" d="M354.1 496.1c-5.8 0-11.5-1.8-16.3-5.1-13.1-9-16.4-27-7.4-40 5-7.3 12.9-11.8 21.8-12.4h2c1.8 0 3.6.2 5.3.5h.6c22.5 0 40.9-12.3 52.5-22.7.8-2 1.8-4 3-5.7 2.8-4.1 6.7-7.5 11.2-9.7.1 0 .1-.1.2-.1 3.9-1.9 8.2-2.8 12.5-2.8 5.7 0 11.2 1.7 15.9 4.9 6.3 4.3 10.5 10.8 11.8 18.4 1.3 7.5-.3 15.2-4.7 21.5-2.4 3.5-5.5 6.4-9.2 8.6 0 0-.1.1-.2.1-2.2 1.3-4.6 2.3-7 2.9-2.4.7-5 1-7.5 1-3.2 0-6.4-.5-9.5-1.6-24.2 4.6-39.5 15.3-48.1 23.6-.8 2.2-1.9 4.3-3.2 6.1-2.1 3.1-4.8 5.7-8 7.8-.1 0-.1.1-.2.1-4.6 3.1-10 4.6-15.5 4.6z"/><path fill="#662D91" d="M439.4 399.1c5.3 0 10.7 1.5 15.3 4.8 12.5 8.6 15.6 25.8 6.8 38.5-2.4 3.5-5.5 6.3-8.9 8.3-2.2 1.3-4.5 2.2-6.8 2.9-2.4.6-4.8 1-7.2 1-3.2 0-6.3-.5-9.4-1.7-24.3 4.5-39.9 15.2-49.1 24.1-.8 2.1-1.8 4.2-3.1 6.1-2.1 3.1-4.8 5.6-7.8 7.6-4.5 2.9-9.8 4.5-15.1 4.5-5.4 0-10.9-1.6-15.7-4.9-12.6-8.7-15.8-26-7.1-38.6 5-7.3 12.9-11.4 21.2-12h1.8c1.7 0 3.5.2 5.2.5h.7c22.8 0 41.5-12.4 53.3-23.1.8-2 1.8-3.9 3-5.7 2.9-4.2 6.7-7.3 10.9-9.4 3.7-1.9 7.8-2.9 12-2.9m0-2c-4.4 0-8.8 1-12.8 2.9-.2.1-.3.1-.4.2-4.6 2.3-8.6 5.7-11.5 9.9-1.2 1.7-2.2 3.6-3 5.6-11.4 10.2-29.6 22.3-51.6 22.3h-.5c-1.8-.3-3.6-.5-5.4-.5h-1.7-.5c-9.1.7-17.3 5.3-22.4 12.8-9.3 13.5-5.9 32.1 7.7 41.4 5 3.4 10.8 5.2 16.8 5.2 5.7 0 11.3-1.6 16.1-4.7.1 0 .1-.1.2-.1 3.3-2.1 6-4.8 8.2-8 1.3-1.8 2.3-3.9 3.2-6.1 8.5-8.2 23.6-18.6 47.2-23.2 3.1 1.1 6.3 1.6 9.5 1.6 2.6 0 5.2-.3 7.7-1s5-1.7 7.2-3c.1 0 .1-.1.2-.1 3.8-2.2 6.9-5.2 9.4-8.8 4.5-6.6 6.2-14.5 4.9-22.3-1.4-7.8-5.7-14.6-12.2-19-4.7-3.3-10.4-5.1-16.3-5.1z"/><circle fill="#662D91" cx="438.8" cy="426.7" r="12"/><circle fill="#662D91" cx="354.1" cy="467.3" r="12"/></g><g><path fill="#FFF" d="M266.3 619.2c-10.2 0-19.4-5.2-24.7-13.9-4.6-7.5-5.4-16.6-2.3-24.9 0-.1.1-.2.1-.3.8-2.2 1.9-4.2 3.3-6.1 9.6-20.6 6-42.7 1.2-57.7-1.5-1.6-2.8-3.3-3.9-5.1-2.6-4.3-4-9.2-4.2-14.2v-.2c-.2-10.2 5-19.8 13.6-25 4.4-2.7 9.4-4.1 14.5-4.1 10 0 19.5 5.4 24.7 14 2.2 3.7 3.6 7.6 4 11.9v.2c.3 2.6.2 5.1-.2 7.6-.9 5.8-3.6 11-7.6 15.2-5.8 23.9-2.3 42.3 1.7 53.6 1.7 1.7 3.1 3.5 4.3 5.4 2 3.2 3.2 6.8 3.8 10.5v.2c1.7 11.5-3.6 22.8-13.6 28.8-4.3 2.7-9.4 4.1-14.7 4.1z"/><path fill="#662D91" d="M264 468.7c9.4 0 18.6 4.8 23.9 13.6 2.2 3.6 3.5 7.6 3.9 11.5.3 2.5.2 5-.2 7.4-.9 5.5-3.5 10.7-7.5 14.8-5.9 24-2.6 42.6 1.7 54.6 1.6 1.6 3.1 3.4 4.3 5.4 2 3.2 3.2 6.7 3.7 10.2 1.6 10.8-3.2 22-13.1 27.9-4.5 2.7-9.4 4-14.3 4-9.4 0-18.6-4.8-23.8-13.4-4.6-7.6-5.1-16.5-2.2-24.2 0 0 0-.1.1-.1.8-2.1 1.9-4.2 3.2-6.1 9.8-21 6.1-43.4 1.2-58.7-1.5-1.5-2.8-3.2-3.9-5.1-2.6-4.3-3.9-9.1-4-13.8-.2-9.6 4.4-19 13.1-24.2 4.3-2.6 9.1-3.8 13.9-3.8m0-2c-5.3 0-10.5 1.5-15.1 4.2-8.9 5.4-14.3 15.2-14.1 25.7v.5c.2 5.1 1.7 10.2 4.3 14.6 1.1 1.8 2.4 3.5 3.9 5.1 4.7 14.8 8.2 36.5-1.2 56.7-1.3 1.9-2.4 4-3.3 6.2-.1.2-.1.3-.2.5-3.2 8.6-2.3 17.9 2.4 25.7 5.4 9 15 14.4 25.5 14.4 5.4 0 10.7-1.5 15.4-4.3 10.3-6.2 15.8-17.9 14.1-29.8v-.3c-.6-3.8-1.9-7.5-3.9-10.8-1.2-1.9-2.6-3.7-4.2-5.4-3.9-11.1-7.3-29.2-1.6-52.5 4.1-4.3 6.7-9.6 7.6-15.5.4-2.6.5-5.2.2-7.9v-.2c-.5-4.4-1.9-8.5-4.2-12.2-5.4-9.2-15.2-14.7-25.6-14.7z"/><circle fill="#662D91" cx="264.2" cy="496.5" r="12"/><circle fill="#662D91" cx="266.3" cy="590.4" r="12"/></g><g><path fill="#FFF" d="M416.5 732.8c-1.4 0-2.9-.1-4.3-.3-4.2-.6-8.2-2.1-11.7-4.4l-.1-.1c-2.1-1.4-4.1-3.1-5.7-5-3.9-4.4-6.2-9.8-6.9-15.5-14.7-19.7-31.1-28.7-42.4-32.8-1 .1-1.9.1-2.8.1-1.4 0-2.7-.1-4-.3-3.7-.6-7.3-1.8-10.5-3.7-.1 0-.1-.1-.1-.1-10-6-15.3-17.3-13.6-28.8 2.1-14 14.3-24.6 28.4-24.6 1.4 0 2.8.1 4.2.3 8.7 1.3 16.3 6.4 20.7 14.1.1.1.1.2.2.3 1.1 2 2 4.2 2.7 6.4 9.8 20.5 29.2 31.8 43.7 37.7.8-.1 1.5-.1 2.3-.1 1.4 0 2.8.1 4.1.3 4.9.7 9.6 2.7 13.6 5.8.1.1.2.1.3.2 8 6.3 12 16.4 10.5 26.3-2.2 13.8-14.4 24.2-28.6 24.2z"/><path fill="#662D91" d="M342.6 618.2c1.3 0 2.7.1 4.1.3 8.8 1.3 16 6.6 20.1 13.7v.1c1.1 2 2 4.1 2.6 6.3 10 20.9 29.6 32.3 44.5 38.3.8-.1 1.6-.1 2.5-.1 1.3 0 2.6.1 4 .3 5 .7 9.5 2.8 13.2 5.7 7.5 5.9 11.8 15.5 10.3 25.5-2 13.6-13.8 23.4-27.4 23.4-1.4 0-2.8-.1-4.2-.3-4.2-.6-8.1-2.1-11.4-4.3-2.1-1.4-4-3-5.6-4.9-3.7-4.2-6.1-9.5-6.7-15.2-14.8-19.9-31.2-29.1-43.2-33.4-1 .1-2 .2-3 .2-1.3 0-2.6-.1-3.9-.3-3.7-.5-7.2-1.8-10.2-3.7-9.3-5.6-14.9-16.4-13.2-27.9 2.1-13.7 14-23.7 27.5-23.7m0-2c-14.6 0-27.3 10.9-29.4 25.4-1.8 11.9 3.8 23.6 14 29.8.1 0 .1.1.2.1 3.4 2 7 3.3 10.9 3.9 1.4.2 2.8.3 4.2.3.9 0 1.8 0 2.7-.1 11.1 4.1 27.1 12.9 41.6 32.2.7 5.8 3.2 11.3 7.1 15.8 1.7 2 3.7 3.7 5.9 5.2.1 0 .1.1.2.1 3.7 2.4 7.7 3.9 12.1 4.6 1.5.2 3 .3 4.5.3 7.1 0 13.9-2.5 19.3-7.1s9-11 10.1-18c1.5-10.3-2.7-20.7-10.9-27.3-.1-.1-.3-.2-.4-.3-4.1-3.1-8.9-5.2-14-5.9-1.4-.2-2.8-.3-4.3-.3-.7 0-1.4 0-2.1.1-14.4-5.8-33.3-16.9-43-37-.6-2.2-1.5-4.4-2.7-6.5-.1-.2-.1-.3-.3-.4-4.6-7.9-12.4-13.2-21.4-14.5-1.4-.3-2.8-.4-4.3-.4z"/><circle fill="#662D91" cx="416.5" cy="704.2" r="12"/><circle fill="#662D91" cx="342.6" cy="646" r="12"/></g><path fill="#FFF" stroke="#000" stroke-width="2" d="M516.5 234.5s47.8-36.1 49.2-51.6c0 0 1.5 54.5-13.3 69.9-14.7 15.5-45.6 42-78 55.9l-155.3 78s-66.3 37.5-71.4 77.3c0 0-5.9-60.4 30.2-92 0 0 26.5-23.6 114.8-66.3 88.4-42.6 118.3-64.6 123.8-71.2zM521.4 492.1s36.4-37.7 37.8-55c0 0 1.5 60.7-13.1 77.9-14.6 17.2-45.1 46.8-77.1 62.3l-153.5 86.9S250 706 244.9 750.3c0 0-5.8-67.3 29.8-102.5 0 0 26.2-26.2 113.5-73.8 87.4-47.4 126.4-74.5 133.2-81.9zM390.5 47.6c-4.3 2.4-8.7 4.8-13.3 7.3-82.2 44.7-106.9 69.4-106.9 69.4-33.6 33.2-28.1 96.4-28.1 96.4 4.8-41.6 66.5-81 66.5-81l56.1-31.7 25.7-60.4z"/></svg>