<svg viewBox="0 0 800 600" xmlns="http://www.w3.org/2000/svg" fill-rule="evenodd" clip-rule="evenodd"><path d="M348.952 276.124s-16.996-17.436-17.676-25.395c0 0-8.736 21.016 5.16 36.852 6.89 7.854 22.034 20.758 36.99 27.96l71.724 40.175s30.64 19.077 31.924 39.798c0 0 5.764-31.64-11.986-47.606 0 0-13.14-11.9-53.93-33.884s-60.293-35.873-62.206-37.902z" fill="none" stroke-width="1.9996675" stroke="#000"/><path d="M348.952 276.124s-16.996-17.436-17.676-25.395c0 0-8.736 21.016 5.16 36.852 6.89 7.854 22.034 20.758 36.99 27.96l71.724 40.175s30.64 19.077 31.924 39.798c0 0 5.764-31.64-11.986-47.606 0 0-13.14-11.9-53.93-33.884s-60.293-35.873-62.206-37.902z" fill="#BDBEC0" fill-rule="nonzero"/><path d="M346.094 153.816s-16.996-15.35-17.675-22.357c0 0-8.737 18.502 5.158 32.444 6.892 6.915 22.034 18.275 36.99 24.615l71.725 35.37s30.64 16.794 31.924 35.037c0 0 5.763-27.855-11.987-41.912 0 0-13.138-10.477-53.93-29.83-40.79-19.354-60.292-31.582-62.206-33.37z" fill="none" stroke-width="1.9996675" stroke="#000"/><path d="M346.094 153.816s-16.996-15.35-17.675-22.357c0 0-8.737 18.502 5.158 32.444 6.892 6.915 22.034 18.275 36.99 24.615l71.725 35.37s30.64 16.794 31.924 35.037c0 0 5.763-27.855-11.987-41.912 0 0-13.138-10.477-53.93-29.83-40.79-19.354-60.292-31.582-62.206-33.37z" fill="#BDBEC0" fill-rule="nonzero"/><path d="M466.137 96.58s-4.755-4.32-17.55-12.543l-27.474 4.727 26.71 15.014s28.144 17.586 29.323 36.687c0 0 5.294-29.166-11.01-43.885z" fill="none" stroke-width="1.9996675" stroke="#000"/><path d="M466.137 96.58s-4.755-4.32-17.55-12.543l-27.474 4.727 26.71 15.014s28.144 17.586 29.323 36.687c0 0 5.294-29.166-11.01-43.885z" fill="#BDBEC0" fill-rule="nonzero"/><path d="M373.18 140.318l-.005.008h.017c1.926 1.097 4.154 1.734 6.538 1.734 1.036 0 2.038-.13 3.005-.355 7.37 1.755 17.29 5.747 23.355 14.78.437.998 1 1.926 1.66 2.775l.03.05.004-.006c2.394 3.047 6.103 5.01 10.278 5.01 7.222 0 13.076-5.854 13.076-13.075 0-5.446-3.33-10.11-8.062-12.078h-.003c-1.544-.642-3.235-1-5.01-1-1.11 0-2.178.154-3.206.413-5.88-1.19-14.183-4.373-22.424-12.6-.67-2.617-2.145-4.918-4.156-6.625-.886-.752-1.876-1.385-2.944-1.884-.002 0-.002-.002-.003-.003l-.002.002c-1.698-.792-3.594-1.24-5.598-1.24-7.238 0-13.105 5.784-13.105 12.918 0 4.78 2.64 8.94 6.554 11.175M468.315 222.668h.002l-.003-.003c-.433-1.615-1.18-3.173-2.264-4.582-.675-.878-1.45-1.632-2.28-2.29-2.643-5.385-5.18-13.906-3.684-25.455 1.666-2.126 2.59-4.7 2.718-7.333.055-1.16-.046-2.332-.302-3.483v-.004c-.41-1.83-1.21-3.605-2.432-5.193-4.412-5.737-12.574-6.862-18.23-2.513-3.786 2.913-5.476 7.544-4.862 12.01h-.007l.01.013c.305 2.195 1.158 4.35 2.612 6.24.632.82 1.347 1.536 2.113 2.165 3.103 6.912 5.986 17.21 2.523 27.524-.524.955-.917 1.967-1.187 3.008-.007.018-.013.036-.022.053h.008c-.955 3.755-.25 7.892 2.295 11.203 4.404 5.724 12.613 6.794 18.337 2.392 4.316-3.32 5.983-8.802 4.658-13.752M426.628 241.97c-3.937-2.708-8.862-2.892-12.922-.934l-.004-.01-.01.016c-1.995.965-3.782 2.44-5.134 4.405-.587.852-1.047 1.753-1.41 2.676-5.624 5.078-14.535 10.988-25.414 10.863-1.07-.204-2.154-.267-3.227-.204-.02 0-.038 0-.058-.004v.007c-3.866.246-7.586 2.188-9.952 5.63-4.093 5.948-2.588 14.09 3.36 18.182 4.487 3.086 10.217 2.986 14.52.203 0 0 0-.002.002-.003 1.403-.908 2.656-2.1 3.663-3.562.628-.912 1.11-1.88 1.477-2.874 4.313-4.17 11.642-9.204 23.09-11.332 2.536.932 5.268 1.02 7.815.33 1.12-.304 2.204-.76 3.22-1.357h.006c1.613-.952 3.056-2.26 4.192-3.912 4.103-5.963 2.663-14.074-3.214-18.12M350.894 327.787l-.002-.002c-.25-1.655-.818-3.287-1.736-4.807-.572-.948-1.256-1.786-2.01-2.53-2.02-5.65-3.587-14.4-.807-25.71 1.894-1.925 3.1-4.38 3.522-6.98.185-1.15.216-2.324.09-3.497 0 0 .002 0 .002-.003-.202-1.863-.8-3.716-1.836-5.432-3.74-6.195-11.725-8.228-17.832-4.54-4.09 2.47-6.29 6.882-6.178 11.39l-.01-.002.01.016c.056 2.214.664 4.45 1.897 6.49.534.887 1.165 1.68 1.856 2.39 2.31 7.216 4.02 17.77-.577 27.632-.627.89-1.132 1.85-1.517 2.856-.01.016-.017.034-.027.05h.006c-1.37 3.625-1.134 7.816 1.025 11.39 3.734 6.18 11.772 8.166 17.954 4.433 4.66-2.814 6.93-8.076 6.17-13.143zM416.685 373.243l.007-.006-.02-.004c-1.742-1.365-3.856-2.32-6.213-2.668-1.025-.152-2.037-.168-3.026-.087-7.036-2.812-16.266-8.21-20.948-18.03-.288-1.05-.708-2.052-1.238-2.986l-.022-.055-.005.006c-1.923-3.363-5.305-5.848-9.436-6.456-7.145-1.054-13.79 3.884-14.844 11.028-.794 5.386 1.82 10.485 6.214 13.12l-.002.003h.005c1.434.862 3.055 1.46 4.812 1.72 1.094.162 2.175.167 3.23.06 5.644 2.035 13.392 6.396 20.346 15.736.28 2.687 1.404 5.178 3.144 7.162.768.87 1.655 1.643 2.638 2.292 0 .003.002.004.003.005h.002c1.565 1.028 3.377 1.747 5.358 2.04 7.16 1.056 13.81-3.81 14.85-10.867.696-4.728-1.307-9.23-4.855-12.013" fill="#662D91" fill-rule="nonzero"/><path d="M385.607 350.34c.21-.695.377-1.41.47-2.154.677-5.402-2.046-10.442-6.497-12.983v-.003h-.003c-1.453-.828-3.086-1.393-4.848-1.612-1.1-.14-2.18-.12-3.233.01-5.686-1.91-13.527-6.105-20.683-15.29-.338-2.682-1.517-5.148-3.3-7.092-.786-.856-1.69-1.608-2.686-2.236-.002 0-.002-.002-.004-.004v.002c-1.588-.996-3.414-1.675-5.402-1.925-7.18-.9-13.722 4.11-14.61 11.188-.318 2.547.146 5.01 1.197 7.163-.26.784-.45 1.603-.553 2.454-.577 4.743 1.537 9.194 5.154 11.887l-.006.006.018.004c1.778 1.322 3.913 2.223 6.28 2.512 1.027.126 2.04.117 3.025.012 7.104 2.635 16.466 7.8 21.392 17.5.312 1.045.758 2.034 1.31 2.957.008.018.017.034.023.052l.005-.005c2.008 3.314 5.452 5.714 9.597 6.22 7.168.873 13.687-4.23 14.563-11.397.316-2.586-.153-5.083-1.21-7.264M384.637 119.452c0 2.965-2.404 5.37-5.37 5.37-2.964 0-5.368-2.405-5.368-5.37 0-2.965 2.403-5.37 5.368-5.37 2.965 0 5.37 2.405 5.37 5.37M461.88 175.647c1.338-5.278-.743-10.617-4.845-13.688v-.002h-.003c-1.338-1.003-2.89-1.764-4.612-2.2-1.073-.273-2.147-.39-3.208-.39-5.408-2.6-12.67-7.726-18.637-17.726-.005-2.702-.87-5.295-2.4-7.445-.673-.946-1.478-1.803-2.39-2.55 0 0 0-.003-.002-.004v.002c-1.452-1.186-3.182-2.085-5.123-2.578-7.015-1.78-14.124 2.383-15.88 9.298-.665 2.627-.46 5.27.436 7.637-.167.443-.316.898-.436 1.37-1.175 4.63.36 9.315 3.606 12.443l-.006.006s.013.006.016.006c1.597 1.537 3.6 2.7 5.91 3.288 1.005.254 2.01.375 3 .395 6.715 3.512 15.348 9.82 19.004 20.07.18 1.073.496 2.11.927 3.096.006.02.012.037.016.055l.006-.003c1.57 3.542 4.682 6.358 8.73 7.384 7 1.777 14.113-2.458 15.89-9.458.673-2.654.48-5.325-.4-7.714.154-.42.287-.85.4-1.29" fill="#662D91" fill-rule="nonzero"/><g fill-rule="nonzero"><path d="M417.37 155.253c-4.148 0-8.007-1.868-10.6-5.127-.04-.037-.075-.082-.102-.133-.68-.877-1.247-1.822-1.684-2.812-5.978-8.875-15.75-12.796-22.944-14.524-1.015.227-2.024.342-3.002.342-2.355 0-4.685-.614-6.74-1.777-.03-.012-.056-.028-.082-.046-4.167-2.397-6.754-6.823-6.754-11.563 0-7.38 6.09-13.387 13.576-13.387 2.008 0 3.945.426 5.76 1.267.026.01.052.02.076.034 1.094.515 2.108 1.166 3.014 1.935 2.098 1.78 3.574 4.11 4.275 6.74 8.21 8.158 16.468 11.227 21.99 12.36 1.087-.265 2.168-.4 3.217-.4 1.777 0 3.51.343 5.152 1.02.03.008.057.02.084.034 5.05 2.118 8.31 7.017 8.31 12.492 0 7.47-6.077 13.547-13.546 13.547" fill="#fff"/><g fill="#662D91"><path d="M379.037 105.753c-7.745 0-14.046 6.217-14.046 13.858 0 4.89 2.657 9.453 6.937 11.94.06.046.126.083.196.113 2.112 1.18 4.5 1.806 6.914 1.806.978 0 1.986-.112 2.998-.33 7.092 1.718 16.67 5.587 22.535 14.27.447 1 1.02 1.955 1.703 2.842.043.074.096.14.155.2 2.683 3.352 6.663 5.272 10.94 5.272 7.73 0 14.018-6.288 14.018-14.017 0-5.662-3.37-10.73-8.59-12.923-.034-.017-.07-.033-.11-.045-1.694-.697-3.48-1.05-5.317-1.05-1.053 0-2.137.13-3.224.39-5.44-1.134-13.513-4.164-21.562-12.124-.74-2.674-2.253-5.04-4.392-6.855-.932-.79-1.975-1.46-3.098-1.992-.04-.02-.08-.04-.12-.056-1.872-.862-3.868-1.3-5.937-1.3m0 .942c2.004 0 3.9.447 5.6 1.24v-.003l.002.005c1.068.5 2.058 1.132 2.944 1.884 2.01 1.706 3.486 4.007 4.156 6.624 8.242 8.226 16.544 11.41 22.424 12.6 1.028-.26 2.098-.413 3.205-.413 1.776 0 3.466.36 5.01 1h.005-.002c4.733 1.97 8.062 6.632 8.062 12.077 0 7.22-5.853 13.076-13.076 13.076-4.176 0-7.884-1.964-10.28-5.01l-.003.006c-.01-.02-.02-.034-.03-.052-.66-.848-1.222-1.777-1.66-2.774-6.064-9.034-15.984-13.026-23.355-14.78-.966.223-1.97.354-3.005.354-2.383 0-4.612-.637-6.537-1.733h-.017l.004-.008c-3.915-2.234-6.555-6.397-6.555-11.176 0-7.133 5.868-12.916 13.105-12.916"/><path d="M384.637 119.712c0 3.11-2.52 5.63-5.63 5.63-3.107 0-5.627-2.52-5.627-5.63s2.52-5.63 5.628-5.63c3.11 0 5.63 2.52 5.63 5.63M422.998 141.707c0 3.11-2.52 5.63-5.628 5.63-3.11 0-5.63-2.52-5.63-5.63s2.52-5.63 5.63-5.63 5.628 2.52 5.628 5.63"/></g></g><path d="M466.71 219.85c.017-.044.04-.082.056-.124 2.62-6.747-.647-14.31-7.298-16.892-4.454-1.73-9.29-.776-12.79 2.064l-.005-.006s-.006.013-.006.016c-1.72 1.398-3.12 3.244-3.983 5.467-.375.966-.616 1.948-.757 2.93-4.303 6.236-11.616 14.037-22.232 16.42-1.087.05-2.157.236-3.187.544-.02.002-.037.007-.056.007l.003.007c-3.707 1.13-6.88 3.877-8.39 7.768-1.105 2.845-1.136 5.837-.31 8.544-.042.09-.096.173-.138.265-2.97 6.584-.04 14.33 6.54 17.298 4.965 2.24 10.585 1.123 14.325-2.382v-.002c1.222-1.143 2.243-2.538 2.973-4.158.456-1.01.756-2.047.943-3.09 3.502-4.87 9.82-11.13 20.707-15.26 2.66.467 5.364.068 7.75-1.063 1.047-.497 2.032-1.14 2.926-1.908h.005v-.003c1.42-1.222 2.607-2.767 3.43-4.593 1.794-3.975 1.458-8.352-.505-11.85" fill="#662D91" fill-rule="nonzero"/><g fill-rule="nonzero"><path d="M455.002 230.07c-4.245 0-8.162-1.928-10.748-5.288-2.528-3.288-3.4-7.486-2.396-11.53.004-.06.02-.117.048-.17.267-1.045.675-2.08 1.196-3.04 3.392-10.15.542-20.287-2.474-27.04-.797-.665-1.503-1.395-2.102-2.172-1.428-1.86-2.36-4.066-2.694-6.39-.02-.057-.028-.116-.024-.176-.623-4.748 1.308-9.477 5.054-12.357 2.335-1.796 5.13-2.746 8.085-2.746 4.254 0 8.19 1.95 10.803 5.346 1.225 1.593 2.07 3.39 2.51 5.342.007.024.013.048.016.074.26 1.18.362 2.383.305 3.573-.132 2.75-1.078 5.34-2.737 7.498-1.46 11.482 1.14 19.898 3.61 24.967.873.7 1.638 1.474 2.277 2.305 1.084 1.41 1.87 2.99 2.334 4.704.01.027.02.056.024.085 1.4 5.295-.496 10.867-4.837 14.206-2.388 1.84-5.24 2.81-8.247 2.81z" fill="#fff"/><path d="M448.947 158.69c-3.058 0-5.953.984-8.372 2.844-3.874 2.98-5.873 7.867-5.236 12.776 0 .076.01.152.03.225.35 2.393 1.31 4.667 2.783 6.58.598.78 1.3 1.51 2.09 2.177 2.96 6.668 5.734 16.618 2.426 26.564-.52.963-.93 2-1.216 3.083-.032.077-.052.157-.063.24-1.02 4.17-.117 8.498 2.492 11.89 2.675 3.477 6.728 5.47 11.12 5.47 3.112 0 6.063-1.004 8.536-2.906 4.49-3.452 6.45-9.212 5.007-14.69-.008-.038-.02-.076-.03-.114-.482-1.766-1.294-3.398-2.412-4.852-.64-.833-1.405-1.612-2.273-2.317-2.417-5.002-4.938-13.25-3.536-24.482 1.67-2.215 2.622-4.858 2.757-7.66.06-1.225-.045-2.46-.31-3.676-.006-.04-.015-.082-.026-.12-.458-2.01-1.33-3.862-2.59-5.503-2.703-3.514-6.776-5.53-11.177-5.53m0 .942c3.926 0 7.83 1.78 10.43 5.16 1.222 1.59 2.024 3.366 2.432 5.194v.004c.255 1.15.357 2.322.3 3.483-.126 2.635-1.05 5.207-2.717 7.333-1.496 11.55 1.04 20.07 3.683 25.456.833.657 1.606 1.412 2.28 2.29 1.084 1.408 1.833 2.966 2.265 4.58l.004.004h-.002c1.325 4.95-.342 10.433-4.658 13.752-2.376 1.828-5.18 2.712-7.962 2.712-3.92 0-7.798-1.756-10.374-5.105-2.546-3.31-3.25-7.446-2.295-11.202h-.007l.022-.053c.27-1.04.664-2.053 1.187-3.007 3.463-10.315.58-20.612-2.522-27.524-.767-.63-1.482-1.346-2.114-2.167-1.454-1.89-2.308-4.044-2.612-6.24-.002 0-.01-.013-.01-.013h.008c-.615-4.466 1.075-9.096 4.863-12.01 2.32-1.785 5.064-2.648 7.797-2.648" fill="#662D91"/><path d="M452.472 177.168c-2.464 1.895-5.998 1.434-7.893-1.03-1.896-2.464-1.435-5.998 1.03-7.893 2.463-1.896 5.997-1.434 7.892 1.03 1.896 2.464 1.434 5.998-1.03 7.893M458.425 220.985c-2.464 1.895-6 1.434-7.893-1.03-1.896-2.464-1.435-5.998 1.03-7.893 2.464-1.895 5.997-1.434 7.893 1.03 1.895 2.464 1.434 5.998-1.03 7.893" fill="#662D91"/></g><path d="M390.294 265.413c2.087-5.053.8-11.038-3.575-14.663-3.616-2.995-8.42-3.607-12.563-2.046l-.003-.007s-.01.01-.01.012c-2.038.77-3.916 2.056-5.41 3.86-.65.782-1.178 1.624-1.615 2.495-5.948 4.476-15.184 9.48-25.82 8.406-1.028-.293-2.083-.45-3.14-.482-.018-.003-.036-.005-.055-.01v.008c-3.804-.098-7.614 1.477-10.23 4.636-2.977 3.595-3.652 8.325-2.22 12.43-2.002 4.918-.818 10.764 3.387 14.475 4.01 3.538 9.61 4.118 14.136 1.91v.002l.002-.004c1.477-.72 2.84-1.734 3.993-3.043.72-.816 1.304-1.703 1.78-2.628 4.698-3.56 12.44-7.605 23.857-8.33 2.363 1.21 5.017 1.617 7.582 1.246 1.13-.164 2.24-.482 3.3-.943h.006v-.003c1.686-.736 3.248-1.843 4.55-3.32 3.524-3.99 4.157-9.525 2.046-14" fill="#662D91" fill-rule="nonzero"/><g fill-rule="nonzero"><path d="M378.56 275.84c-2.743 0-5.392-.827-7.66-2.387-6.153-4.234-7.716-12.684-3.483-18.838 2.352-3.418 6.078-5.54 10.235-5.827.035-.008.07-.012.106-.012.018 0 .035 0 .053.003.248-.016.52-.024.794-.024.838 0 1.672.077 2.482.23h.29c10.582 0 19.25-5.784 24.682-10.67.388-.966.865-1.862 1.42-2.668 1.336-1.943 3.165-3.515 5.288-4.547.025-.014.05-.027.078-.037 1.828-.875 3.857-1.337 5.87-1.337 2.687 0 5.277.804 7.487 2.325 2.95 2.028 4.92 5.1 5.548 8.646.63 3.544-.156 7.14-2.21 10.127-1.14 1.656-2.59 3.01-4.31 4.03-.024.017-.048.03-.073.042-1.058.615-2.16 1.077-3.3 1.387-1.15.31-2.335.468-3.52.468-1.53 0-3.028-.258-4.457-.768-11.376 2.142-18.584 7.205-22.648 11.112-.396 1.045-.897 2.012-1.493 2.876-1.006 1.464-2.27 2.698-3.757 3.666-.024.02-.05.036-.077.05-2.19 1.41-4.73 2.153-7.342 2.153z" fill="#fff"/><path d="M418.714 229.255c-2.06 0-4.137.47-6.012 1.355-.072.025-.14.057-.203.098-2.17 1.068-4.04 2.683-5.41 4.673-.554.807-1.033 1.7-1.427 2.658-5.376 4.815-13.906 10.478-24.286 10.478h-.245c-.825-.153-1.675-.23-2.528-.23-.26 0-.525.007-.787.022-.02-.002-.04-.002-.06-.002-.06 0-.118.005-.175.016-4.286.307-8.126 2.5-10.552 6.026-4.38 6.368-2.764 15.112 3.603 19.492 2.347 1.616 5.09 2.47 7.928 2.47 2.7 0 5.324-.768 7.59-2.222.035-.02.068-.042.1-.066 1.533-1 2.837-2.275 3.876-3.785.597-.868 1.103-1.834 1.506-2.876 4.016-3.837 11.088-8.772 22.21-10.892 1.443.5 2.953.753 4.492.753 1.228 0 2.453-.162 3.643-.484 1.186-.322 2.332-.802 3.408-1.43.035-.017.07-.037.102-.06 1.77-1.053 3.264-2.45 4.437-4.155 2.126-3.09 2.938-6.81 2.288-10.476-.652-3.673-2.692-6.85-5.744-8.95-2.29-1.576-4.97-2.41-7.754-2.41m0 .942c2.5 0 5.015.726 7.22 2.242 5.88 4.045 7.318 12.156 3.215 18.12-1.136 1.65-2.58 2.96-4.194 3.91 0 0-.002 0-.003.002-1.017.596-2.1 1.053-3.22 1.358-1.11.3-2.252.452-3.4.452-1.49 0-2.983-.257-4.416-.784-11.448 2.128-18.777 7.163-23.09 11.334-.368.993-.85 1.96-1.477 2.874-1.006 1.463-2.26 2.654-3.663 3.562l-.002.004v-.002c-2.133 1.38-4.616 2.1-7.124 2.1-2.552 0-5.13-.746-7.394-2.303-5.95-4.093-7.454-12.233-3.36-18.183 2.365-3.44 6.086-5.383 9.952-5.63l-.002-.005.057.003c.263-.016.527-.023.79-.023.814 0 1.63.074 2.438.228.113.002.225.002.337.002 10.727 0 19.512-5.84 25.077-10.866.364-.922.825-1.823 1.41-2.675 1.353-1.964 3.14-3.44 5.135-4.405 0-.002.01-.013.01-.013l.003.008c1.786-.862 3.738-1.31 5.7-1.31" fill="#662D91"/><path d="M415.25 247.79c-2.56-1.76-3.21-5.265-1.446-7.826 1.762-2.56 5.266-3.21 7.828-1.448 2.56 1.763 3.21 5.267 1.447 7.83-1.763 2.56-5.27 3.207-7.83 1.445M375.387 266.93c-2.56-1.762-3.208-5.267-1.446-7.828 1.762-2.56 5.267-3.21 7.828-1.447 2.56 1.762 3.208 5.266 1.447 7.828-1.762 2.562-5.267 3.21-7.828 1.447" fill="#662D91"/></g><path d="M337.283 333.754c-4.793 0-9.132-2.447-11.608-6.545-2.145-3.552-2.54-7.822-1.09-11.727.01-.055.032-.11.063-.158.387-1.013.907-1.996 1.533-2.89 4.51-9.707 2.813-20.1.574-27.15-.72-.75-1.34-1.555-1.845-2.393-1.22-2.02-1.898-4.333-1.964-6.69-.004-.03-.004-.06-.002-.09-.104-4.806 2.348-9.31 6.405-11.762 2.065-1.247 4.43-1.907 6.84-1.907 4.718 0 9.177 2.532 11.638 6.607 1.038 1.72 1.675 3.598 1.895 5.586.006.025.008.05.01.077.124 1.2.09 2.407-.1 3.586-.44 2.717-1.67 5.184-3.56 7.143-2.738 11.247-1.096 19.9.788 25.215.79.792 1.465 1.648 2.006 2.546.92 1.52 1.523 3.182 1.792 4.937.007.03.012.06.013.09.8 5.418-1.71 10.74-6.396 13.572-2.115 1.276-4.532 1.952-6.99 1.952z" fill="#fff" fill-rule="nonzero"/><g fill="#662D91" fill-rule="nonzero"><path d="M336.19 261.973c-2.495 0-4.944.682-7.083 1.974-4.18 2.526-6.716 7.155-6.634 12.102-.01.078-.007.158.005.236.08 2.415.78 4.78 2.028 6.85.506.837 1.122 1.642 1.832 2.394 2.195 6.958 3.835 17.157-.566 26.67-.626.9-1.148 1.885-1.555 2.93-.038.073-.067.148-.086.225-1.484 4.03-1.07 8.434 1.143 12.098 2.56 4.24 7.05 6.772 12.01 6.772 2.544 0 5.046-.7 7.235-2.02 4.846-2.928 7.44-8.43 6.62-14.032-.003-.04-.01-.08-.017-.12-.28-1.81-.902-3.523-1.85-5.094-.545-.9-1.216-1.76-2-2.558-1.84-5.243-3.422-13.72-.77-24.726 1.907-2.012 3.15-4.53 3.598-7.3.197-1.217.23-2.46.104-3.696-.002-.038-.006-.077-.013-.114-.23-2.05-.89-3.987-1.96-5.76-2.544-4.215-7.158-6.833-12.04-6.833m0 .94c4.42 0 8.76 2.278 11.235 6.38 1.036 1.715 1.634 3.57 1.835 5.433h.002v.004c.124 1.172.093 2.348-.092 3.494-.422 2.604-1.63 5.057-3.523 6.982-2.78 11.31-1.215 20.062.807 25.71.754.745 1.437 1.582 2.01 2.53.918 1.52 1.487 3.152 1.735 4.806l.002.004h-.002c.763 5.067-1.508 10.328-6.17 13.143-2.113 1.276-4.444 1.884-6.746 1.884-4.43 0-8.75-2.25-11.206-6.318-2.158-3.574-2.395-7.764-1.025-11.39h-.007c.01-.016.018-.033.027-.05.386-1.004.89-1.966 1.517-2.855 4.598-9.86 2.888-20.416.58-27.633-.692-.71-1.323-1.502-1.858-2.388-1.232-2.043-1.84-4.278-1.896-6.493l-.01-.017.01.002c-.11-4.507 2.087-8.918 6.177-11.39 2.064-1.246 4.34-1.838 6.598-1.838"/><path d="M339.177 280.817c-2.66 1.606-6.12.752-7.727-1.91-1.607-2.66-.754-6.12 1.907-7.727 2.66-1.607 6.12-.753 7.728 1.908 1.608 2.66.752 6.12-1.908 7.73M340.18 325.024c-2.66 1.607-6.12.753-7.727-1.91-1.607-2.66-.753-6.12 1.908-7.726 2.662-1.607 6.122-.752 7.73 1.91 1.607 2.66.752 6.12-1.91 7.726"/></g><path d="M407.955 387.205c-.674 0-1.355-.05-2.027-.15-1.985-.29-3.842-.996-5.518-2.093-.022-.012-.044-.026-.064-.043-1.004-.667-1.913-1.46-2.702-2.355-1.816-2.07-2.936-4.59-3.245-7.294-6.934-9.266-14.655-13.506-19.954-15.435-.45.042-.902.064-1.34.064-.642 0-1.28-.047-1.9-.138-1.76-.26-3.428-.853-4.955-1.764-.024-.013-.047-.026-.07-.042-4.686-2.832-7.197-8.154-6.398-13.57.973-6.598 6.727-11.573 13.384-11.573.663 0 1.334.05 1.994.147 4.103.604 7.648 3.015 9.738 6.62.035.042.062.09.08.144.538.947.965 1.974 1.257 3.028 4.62 9.655 13.717 14.96 20.58 17.717.365-.03.728-.042 1.082-.042.658 0 1.31.047 1.937.14 2.32.343 4.523 1.28 6.376 2.716.056.028.106.068.147.116 3.746 2.98 5.643 7.72 4.955 12.393-.958 6.506-6.7 11.412-13.357 11.412" fill="#fff" fill-rule="nonzero"/><g fill="#662D91" fill-rule="nonzero"><path d="M373.167 332.343c-6.89 0-12.843 5.147-13.85 11.973-.827 5.6 1.767 11.103 6.61 14.035.03.022.062.042.095.06 1.577.938 3.3 1.55 5.117 1.817.64.095 1.3.142 1.966.142.42 0 .848-.02 1.278-.057 5.216 1.916 12.76 6.092 19.563 15.14.34 2.75 1.493 5.312 3.343 7.42.814.925 1.75 1.742 2.78 2.43.032.022.064.043.097.062 1.73 1.13 3.645 1.855 5.693 2.156.694.104 1.4.156 2.095.156 3.328 0 6.556-1.18 9.09-3.324 2.565-2.168 4.245-5.183 4.732-8.49.713-4.834-1.247-9.736-5.116-12.82-.054-.057-.117-.106-.183-.146-1.913-1.475-4.183-2.44-6.574-2.793-.65-.097-1.324-.146-2.006-.146-.33 0-.667.012-1.007.035-6.765-2.735-15.675-7.958-20.212-17.406-.298-1.058-.726-2.09-1.274-3.07-.03-.073-.07-.143-.12-.206-2.163-3.71-5.822-6.192-10.056-6.815-.682-.1-1.376-.152-2.06-.152m0 .94c.633 0 1.276.047 1.923.143 4.132.608 7.515 3.093 9.44 6.456l.004-.006c.006.02.015.035.022.054.53.935.95 1.937 1.237 2.987 4.682 9.82 13.912 15.218 20.95 18.03.38-.032.766-.05 1.154-.05.617 0 1.24.044 1.87.137 2.357.348 4.47 1.302 6.213 2.668l.02.003-.007.006c3.547 2.785 5.55 7.286 4.854 12.015-.945 6.41-6.514 11.01-12.892 11.01-.645 0-1.3-.048-1.958-.145-1.98-.29-3.792-1.01-5.357-2.04-.002 0-.004-.002-.005-.003-.983-.65-1.87-1.42-2.637-2.293-1.74-1.983-2.865-4.475-3.145-7.16-6.954-9.34-14.702-13.703-20.346-15.738-.462.047-.93.072-1.4.072-.605 0-1.216-.04-1.83-.132-1.757-.258-3.38-.858-4.813-1.72h-.004c-4.393-2.637-7.007-7.736-6.212-13.123.958-6.497 6.54-11.17 12.92-11.17"/><path d="M402.357 372.895c.454-3.075 3.314-5.2 6.39-4.746 3.075.453 5.2 3.312 4.747 6.388-.454 3.075-3.314 5.2-6.39 4.747-3.074-.453-5.2-3.315-4.747-6.39M367.615 345.54c.454-3.074 3.314-5.2 6.39-4.747 3.076.454 5.2 3.313 4.747 6.39-.454 3.074-3.314 5.2-6.39 4.747-3.076-.454-5.2-3.314-4.747-6.39"/></g><path d="M396.76 186.303c67.417-33.02 80.706-50.572 81.4-57.845 0 0 .692 25.632-6.236 32.905-6.927 7.275-21.475 19.744-36.716 26.325l-73.085 36.716s-31.174 17.666-33.6 36.37c0 0-2.77-28.403 14.202-43.297 0 0 12.973-11.062 54.035-31.174z" fill="none" stroke-width="1.9996675" stroke="#000"/><path d="M396.76 186.303c67.417-33.02 80.706-50.572 81.4-57.845 0 0 .692 25.632-6.236 32.905-6.927 7.275-21.475 19.744-36.716 26.325l-73.085 36.716s-31.174 17.666-33.6 36.37c0 0-2.77-28.403 14.202-43.297 0 0 12.973-11.062 54.035-31.174z" fill="#fff" fill-rule="nonzero"/><g><path d="M394.637 312.54c66.617-36.295 79.772-56.347 80.457-64.452 0 0-1.57 27.1-6.162 36.664-8.49 17.685-52.957 37.422-108.533 70.24 0 0-30.814 19.683-33.21 40.523 0 0-2.74-31.646 14.036-48.24 0 0 12.326-12.352 53.41-34.736z" fill="none" stroke-width="1.9996675" stroke="#000"/><path d="M394.637 312.54c66.617-36.295 79.772-56.347 80.457-64.452 0 0-1.57 27.1-6.162 36.664-8.49 17.685-52.957 37.422-108.533 70.24 0 0-30.814 19.683-33.21 40.523 0 0-2.74-31.646 14.036-48.24 0 0 12.326-12.352 53.41-34.736z" fill="#fff" fill-rule="nonzero"/></g><g><path d="M395.69 64.81c-2.03 1.124-4.11 2.267-6.263 3.438-38.688 21.04-50.294 32.647-50.294 32.647-15.798 15.598-13.218 45.344-13.218 45.344 2.256-19.59 31.272-38.09 31.272-38.09l26.38-14.91 12.123-28.43z" fill="none" stroke-width="1.9996675" stroke="#000"/><path d="M395.69 64.81c-2.03 1.124-4.11 2.267-6.263 3.438-38.688 21.04-50.294 32.647-50.294 32.647-15.798 15.598-13.218 45.344-13.218 45.344 2.256-19.59 31.272-38.09 31.272-38.09l26.38-14.91 12.123-28.43z" fill="#fff" fill-rule="nonzero"/></g><g fill-rule="nonzero"><path d="M79.236 449.74c.292 8.652.39 17.79.39 22.36 0 9.916.097 27.61-1.07 37.136 2.14-.292 5.833-.875 11.277-.875 1.75 0 5.444.195 12.152.876-.778-12.638-.875-23.526-.875-38.595 0-6.706.097-15.164.29-20.9 6.126 0 12.153.39 18.083.972-.29-1.263-.583-3.208-.583-5.152 0-2.43.39-4.375.583-5.93-10.207.875-20.026.875-29.26.875-9.723 0-19.444 0-29.07-.875.293 2.14.585 3.888.585 5.54 0 2.043-.195 3.792-.584 5.542 5.93-.68 11.958-.972 18.082-.972zM170.91 475.308c9.14-1.945 15.457-7.194 15.457-17.013 0-15.943-14.582-18.665-27.51-18.665-6.223 0-12.348.875-18.57.875-4.18 0-8.75-.195-13.22-.875.68 17.304.97 35.483.97 43.94 0 9.334-.582 19.055-1.165 25.666 4.375-.486 8.36-.875 11.957-.875 3.985 0 7.777.39 11.47.876-.485-10.013-.68-21.582-.68-30.04h.292c6.027 10.013 11.277 20.124 16.43 30.04 4.277-.486 7.97-.875 12.345-.875 4.57 0 9.14.39 13.61.876-6.22-8.847-13.804-21.193-19.248-30.33l-2.14-3.598zm-21.29-27.512c1.07-.097 2.042-.195 3.11-.195 4.667 0 11.278.876 11.278 11.764 0 7.486-2.82 12.347-10.79 12.347-1.167 0-2.334 0-3.598-.194v-23.72zM221.85 467.24c0-9.237.39-18.472 1.07-27.61-3.402.486-7.97.875-11.957.875-3.597 0-8.458-.486-11.86-.875.486 5.347.777 11.47.777 16.04 0 5.25.195 16.235.195 21.485 0 10.693-.292 21.387-.972 32.08 3.208-.388 7.388-.874 11.568-.874 4.084 0 8.556.293 12.153.876-.875-9.138-.972-21.485-.972-32.276v-9.72zM295.832 458.78c0-15.164-13.61-19.15-26.15-19.15-6.32 0-13.32.875-20.027.875-3.89 0-8.75-.195-13.027-.875.875 11.666 1.07 27.414 1.07 37.04 0 12.83-.195 20.025-1.362 32.566 4.375-.486 8.75-.875 13.124-.875 3.597 0 7.29.487 10.888.876-.778-3.792-.972-22.262-.972-30.04 2.042.195 5.152.486 9.624.486 13.902 0 26.832-4.958 26.832-20.9zm-22.457.584c0 7.097-2.236 12.54-10.305 12.54-1.264 0-2.527 0-3.694-.193 0-7.97 0-14.095.097-23.914 1.07-.097 2.14-.195 3.306-.195 5.637 0 10.595 1.75 10.595 11.764zM328.302 499.417c0-3.11-.195-18.568-.195-22.068 0-6.514.195-29.36.972-37.72-3.89.68-7.486.875-11.472.875-4.18 0-8.36-.292-12.444-.875.68 5.055.68 11.763.875 17.693.29 9.04.485 16.43.485 28.873 0 6.027 0 15.457-1.458 23.04 9.624-.68 19.25-.875 26.15-.875 6.32 0 12.347.195 20.513.876-.29-1.653-.486-3.5-.486-5.347 0-2.334.292-4.18.486-5.64-6.124.973-20.804 1.167-23.428 1.167zM384.006 477.155c10.11 0 15.943.29 23.818.875-.195-1.653-.487-3.597-.487-5.25 0-1.75.195-3.402.487-5.152-10.986.68-20.61.972-23.818.972v-19.054h10.207c4.764 0 9.625.39 14.485.68-.194-1.847-.486-3.597-.486-5.444 0-1.75.292-3.402.486-5.152-6.902.778-19.734.875-27.22.875-6.708 0-13.513-.39-20.22-.875.68 10.596.972 15.263.972 35.678 0 24.498-.195 27.22-.778 33.928 7.874-.68 15.846-.875 23.72-.875 7.778 0 15.652.195 23.526.876-.29-1.556-.486-3.306-.486-4.958 0-1.847.292-3.694.486-5.54-4.277.193-14.193.68-17.887.68h-6.804v-22.263zM450.307 477.155c0 8.944-.195 21.484-.68 27.22l-.39 4.86c3.305-.485 6.805-.874 11.666-.874 4.083 0 8.166.195 12.152.876-.875-8.555-.972-25.373-.972-32.276 3.305-.097 7.388-.194 10.693-.194 3.597 0 7.292.194 10.79.194 0 6.708-.096 23.624-1.165 32.276 3.695-.486 7.39-.875 11.18-.875 4.278 0 8.555.293 12.736.876-.584-14.096-.973-24.207-.973-41.803 0-11.47.292-19.734 1.07-27.803-3.403.486-8.36.875-11.958.875-3.597 0-8.457-.486-11.957-.875.875 8.846 1.07 19.832 1.07 27.61-3.598 0-7.486.193-10.89.193-3.887 0-7.68-.097-10.595-.194 0-7.487.194-18.472 1.07-27.61-3.403.486-8.36.875-11.958.875-3.695 0-8.458-.486-11.958-.875.68 6.32.875 11.666.875 16.04 0 3.11.195 18.082.195 21.485zM553.16 477.155c10.11 0 15.943.29 23.818.875-.195-1.653-.486-3.597-.486-5.25 0-1.75.194-3.402.486-5.152-10.985.68-20.61.972-23.818.972v-19.054h10.208c4.763 0 9.624.39 14.485.68-.195-1.847-.486-3.597-.486-5.444 0-1.75.29-3.402.486-5.152-6.902.778-19.735.875-27.22.875-6.708 0-13.513-.39-20.22-.875.68 10.596.97 15.263.97 35.678 0 24.498-.193 27.22-.777 33.928 7.875-.68 15.846-.875 23.72-.875 7.778 0 15.652.195 23.527.876-.292-1.556-.486-3.306-.486-4.958 0-1.847.29-3.694.486-5.54-4.278.193-14.194.68-17.888.68h-6.805v-22.263zM612.656 499.417c0-3.11-.195-18.568-.195-22.068 0-6.514.196-29.36.974-37.72-3.89.68-7.486.875-11.472.875-4.18 0-8.36-.292-12.443-.875.68 5.055.68 11.763.874 17.693.29 9.04.486 16.43.486 28.873 0 6.027 0 15.457-1.46 23.04 9.626-.68 19.25-.875 26.152-.875 6.32 0 12.347.195 20.513.876-.292-1.653-.486-3.5-.486-5.347 0-2.334.29-4.18.485-5.64-6.125.973-20.804 1.167-23.43 1.167zM668.263 467.24c0-9.237.39-18.472 1.07-27.61-3.403.486-7.972.875-11.958.875-3.597 0-8.458-.486-11.86-.875.486 5.347.777 11.47.777 16.04 0 5.25.195 16.235.195 21.485 0 10.693-.292 21.387-.972 32.08 3.208-.388 7.388-.874 11.568-.874 4.083 0 8.555.293 12.152.876-.875-9.138-.972-21.485-.972-32.276v-9.72zM702.87 487.265c3.89 7.29 7.39 14.582 10.792 21.97 3.5-.485 8.847-.874 12.735-.874 3.21 0 9.625.487 12.833.876-7.097-11.374-18.277-31.984-22.165-40.247 8.652-12.64 13.707-20.125 21.29-29.36-2.14.39-4.278.875-7 .875-2.624 0-4.958-.486-7-.875-3.402 6.902-7.776 13.707-11.86 20.415-3.693-6.708-7.193-13.61-10.012-20.415-3.89.486-7.972.875-11.958.875-4.57 0-9.138-.292-13.707-.875 6.124 10.985 15.36 27.414 21.484 38.497-6.708 10.402-14.388 20.9-22.068 31.11 2.042-.487 4.375-.876 6.708-.876 2.43 0 4.764.293 7.194.876 3.306-5.93 6.708-11.86 10.208-17.693l2.527-4.278z"/></g></svg>