<?xml version="1.0" encoding="utf-8"?>
<!-- Generator: Adobe Illustrator 18.1.1, SVG Export Plug-In . SVG Version: 6.00 Build 0)  -->
<svg version="1.1" id="Layer_1" xmlns="http://www.w3.org/2000/svg" xmlns:xlink="http://www.w3.org/1999/xlink" x="0px" y="0px"
	 viewBox="0 0 800 800" enable-background="new 0 0 800 800" xml:space="preserve">
<path fill="#BDBEC0" stroke="#000000" stroke-width="2" d="M291.1,496.7c0,0-36.1-37.1-37.6-54c0,0-18.6,44.7,11,78.3
	c14.6,16.7,46.8,44.1,78.6,59.4l152.4,85.4c0,0,65.1,40.5,67.9,84.6c0,0,12.2-67.2-25.5-101.2c0,0-27.9-25.3-114.6-72
	C336.7,530.6,295.2,501.1,291.1,496.7z"/>
<path fill="#BDBEC0" stroke="#000000" stroke-width="2" d="M285.1,236.8c0,0-36.1-32.6-37.6-47.5c0,0-18.6,39.3,11,69
	c14.6,14.7,46.8,38.8,78.6,52.3l152.4,75.2c0,0,65.1,35.7,67.8,74.5c0,0,12.2-59.2-25.5-89.1c0,0-27.9-22.3-114.6-63.4
	C330.6,266.6,289.1,240.6,285.1,236.8z"/>
<path fill="#BDBEC0" stroke="#000000" stroke-width="2" d="M540.2,115.1c0,0-10.1-9.2-37.3-26.7l-58.4,10l56.8,31.9
	c0,0,59.8,37.4,62.3,78C563.6,208.4,574.9,146.4,540.2,115.1z"/>
<g>
	<path fill="#662D91" d="M342.6,208.1L342.6,208.1C342.6,208.1,342.7,208.1,342.6,208.1c4.1,2.3,8.9,3.7,13.9,3.7
		c2.2,0,4.3-0.3,6.4-0.8c15.7,3.7,36.7,12.2,49.6,31.4c0.9,2.1,2.1,4.1,3.5,5.9c0,0,0,0.1,0.1,0.1l0,0c5.1,6.5,13,10.6,21.8,10.6
		c15.3,0,27.8-12.4,27.8-27.8c0-11.6-7.1-21.5-17.1-25.7l0,0c0,0,0,0,0,0c-3.3-1.4-6.9-2.1-10.7-2.1c-2.4,0-4.6,0.3-6.8,0.9
		c-12.5-2.5-30.1-9.3-47.7-26.8c-1.4-5.6-4.6-10.5-8.8-14.1c-1.9-1.6-4-2.9-6.3-4c0,0,0,0,0,0l0,0c-3.6-1.7-7.6-2.6-11.9-2.6
		c-15.4,0-27.9,12.3-27.9,27.5C328.7,194.5,334.3,203.4,342.6,208.1z"/>
	<path fill="#662D91" d="M544.8,383.1L544.8,383.1C544.8,383.1,544.8,383.1,544.8,383.1c-0.9-3.4-2.5-6.8-4.8-9.7
		c-1.4-1.9-3.1-3.5-4.8-4.9c-5.6-11.4-11-29.6-7.8-54.1c3.5-4.5,5.5-10,5.8-15.6c0.1-2.5-0.1-5-0.6-7.4c0,0,0,0,0,0l0,0
		c-0.9-3.9-2.6-7.7-5.2-11c-9.4-12.2-26.7-14.6-38.7-5.3c-8.1,6.2-11.6,16-10.3,25.5l0,0c0,0,0,0,0,0c0.6,4.7,2.5,9.2,5.5,13.3
		c1.3,1.7,2.9,3.3,4.5,4.6c6.6,14.7,12.7,36.6,5.4,58.5c-1.1,2-1.9,4.2-2.5,6.4c0,0,0,0.1,0,0.1h0c-2,8-0.5,16.8,4.9,23.8
		c9.4,12.2,26.8,14.4,39,5.1C544.1,405.3,547.6,393.6,544.8,383.1z"/>
	<path fill="#662D91" d="M456.2,424.1c-8.4-5.8-18.8-6.1-27.5-2l0,0c0,0,0,0,0,0c-4.2,2-8,5.2-10.9,9.4c-1.2,1.8-2.2,3.7-3,5.7
		c-12,10.8-30.9,23.4-54,23.1c-2.3-0.4-4.6-0.6-6.9-0.4c0,0-0.1,0-0.1,0l0,0c-8.2,0.5-16.1,4.6-21.2,12c-8.7,12.6-5.5,29.9,7.1,38.6
		c9.5,6.6,21.7,6.3,30.9,0.4l0,0c0,0,0,0,0,0c3-1.9,5.6-4.5,7.8-7.6c1.3-1.9,2.4-4,3.1-6.1c9.2-8.9,24.7-19.6,49.1-24.1
		c5.4,2,11.2,2.2,16.6,0.7c2.4-0.6,4.7-1.6,6.8-2.9c0,0,0,0,0,0l0,0c3.4-2,6.5-4.8,8.9-8.3C471.8,450,468.7,432.7,456.2,424.1z"/>
	<path fill="#662D91" d="M295.3,606.5C295.3,606.5,295.3,606.5,295.3,606.5c-0.5-3.5-1.7-7-3.7-10.2c-1.2-2-2.7-3.8-4.3-5.4
		c-4.3-12-7.6-30.6-1.7-54.6c4-4.1,6.6-9.3,7.5-14.8c0.4-2.4,0.5-4.9,0.2-7.4c0,0,0,0,0,0h0c-0.4-4-1.7-7.9-3.9-11.5
		c-8-13.2-24.9-17.5-37.9-9.7c-8.7,5.3-13.4,14.6-13.1,24.2l0,0c0,0,0,0,0,0c0.1,4.7,1.4,9.5,4,13.8c1.1,1.9,2.5,3.6,3.9,5.1
		c4.9,15.3,8.5,37.8-1.2,58.7c-1.3,1.9-2.4,3.9-3.2,6.1c0,0,0,0.1-0.1,0.1h0c-2.9,7.7-2.4,16.6,2.2,24.2c7.9,13.1,25,17.4,38.2,9.4
		C292.1,628.5,296.9,617.3,295.3,606.5L295.3,606.5z"/>
	<path fill="#662D91" d="M435.1,703.2L435.1,703.2C435.1,703.1,435.1,703.1,435.1,703.2c-3.7-2.9-8.2-4.9-13.2-5.7
		c-2.2-0.3-4.3-0.4-6.4-0.2c-15-6-34.6-17.4-44.5-38.3c-0.6-2.2-1.5-4.4-2.6-6.3c0,0,0-0.1,0-0.1l0,0c-4.1-7.1-11.3-12.4-20.1-13.7
		c-15.2-2.2-29.3,8.3-31.5,23.4c-1.7,11.4,3.9,22.3,13.2,27.9l0,0c0,0,0,0,0,0c3,1.8,6.5,3.1,10.2,3.7c2.3,0.3,4.6,0.4,6.9,0.1
		c12,4.3,28.5,13.6,43.2,33.4c0.6,5.7,3,11,6.7,15.2c1.6,1.9,3.5,3.5,5.6,4.9c0,0,0,0,0,0l0,0c3.3,2.2,7.2,3.7,11.4,4.3
		c15.2,2.2,29.3-8.1,31.6-23.1C446.9,718.6,442.6,709.1,435.1,703.2z"/>
</g>
<path fill="#662D91" d="M369,654.5c0.4-1.5,0.8-3,1-4.6c1.4-11.5-4.4-22.2-13.8-27.6l0,0c0,0,0,0,0,0c-3.1-1.8-6.6-3-10.3-3.4
	c-2.3-0.3-4.6-0.3-6.9,0c-12.1-4.1-28.8-13-44-32.5c-0.7-5.7-3.2-10.9-7-15.1c-1.7-1.8-3.6-3.4-5.7-4.8c0,0,0,0,0,0l0,0
	c-3.4-2.1-7.3-3.6-11.5-4.1c-15.3-1.9-29.2,8.7-31.1,23.8c-0.7,5.4,0.3,10.6,2.5,15.2c-0.5,1.7-1,3.4-1.2,5.2
	c-1.2,10.1,3.3,19.5,11,25.3l0,0c0,0,0,0,0,0c3.8,2.8,8.3,4.7,13.3,5.3c2.2,0.3,4.3,0.3,6.4,0c15.1,5.6,35,16.6,45.5,37.2
	c0.7,2.2,1.6,4.3,2.8,6.3c0,0,0,0.1,0,0.1l0,0c4.3,7,11.6,12.1,20.4,13.2c15.2,1.9,29.1-9,31-24.2
	C372.3,664.4,371.3,659.1,369,654.5z"/>
<circle fill="#662D91" cx="355.6" cy="163.8" r="11.4"/>
<path fill="#662D91" d="M531.2,283.2c2.8-11.2-1.6-22.6-10.3-29.1l0,0c0,0,0,0,0,0c-2.8-2.1-6.1-3.7-9.8-4.7
	c-2.3-0.6-4.6-0.8-6.8-0.8c-11.5-5.5-26.9-16.4-39.6-37.7c0-5.7-1.8-11.3-5.1-15.8c-1.4-2-3.1-3.8-5.1-5.4c0,0,0,0,0,0l0,0
	c-3.1-2.5-6.8-4.4-10.9-5.5c-14.9-3.8-30,5.1-33.8,19.8c-1.4,5.6-1,11.2,0.9,16.2c-0.4,0.9-0.7,1.9-0.9,2.9
	c-2.5,9.8,0.8,19.8,7.7,26.4l0,0c0,0,0,0,0,0c3.4,3.3,7.7,5.7,12.6,7c2.1,0.5,4.3,0.8,6.4,0.8c14.3,7.5,32.6,20.9,40.4,42.7
	c0.4,2.3,1.1,4.5,2,6.6c0,0,0,0.1,0,0.1l0,0c3.3,7.5,10,13.5,18.6,15.7c14.9,3.8,30-5.2,33.8-20.1c1.4-5.6,1-11.3-0.9-16.4
	C530.6,285,530.9,284.1,531.2,283.2z"/>
<g>
	<g>
		<path fill="#FFFFFF" d="M436.6,239.8c-8.8,0-17-4-22.5-10.9c-0.1-0.1-0.2-0.2-0.2-0.3c-1.4-1.9-2.6-3.9-3.6-6
			c-12.7-18.9-33.5-27.2-48.8-30.9c-2.2,0.5-4.3,0.7-6.4,0.7c-5,0-10-1.3-14.3-3.8c-0.1,0-0.1-0.1-0.2-0.1
			c-8.9-5.1-14.4-14.5-14.4-24.6c0-15.7,12.9-28.5,28.9-28.5c4.3,0,8.4,0.9,12.2,2.7c0.1,0,0.1,0,0.2,0.1c2.3,1.1,4.5,2.5,6.4,4.1
			c4.5,3.8,7.6,8.7,9.1,14.3c17.5,17.3,35,23.9,46.7,26.3c2.3-0.6,4.6-0.9,6.8-0.9c3.8,0,7.5,0.7,11,2.2c0.1,0,0.1,0,0.2,0.1
			c10.7,4.5,17.7,14.9,17.7,26.6C465.3,226.9,452.4,239.8,436.6,239.8L436.6,239.8z"/>
		<path fill="#662D91" d="M355.1,136.6c4.3,0,8.3,0.9,11.9,2.6l0,0c0,0,0,0,0,0c2.3,1.1,4.4,2.4,6.3,4c4.3,3.6,7.4,8.5,8.8,14.1
			c17.5,17.5,35.2,24.3,47.7,26.8c2.2-0.6,4.5-0.9,6.8-0.9c3.8,0,7.4,0.8,10.7,2.1c0,0,0,0,0,0l0,0c10.1,4.2,17.1,14.1,17.1,25.7
			c0,15.3-12.4,27.8-27.8,27.8c-8.9,0-16.8-4.2-21.8-10.6l0,0c0,0,0-0.1-0.1-0.1c-1.4-1.8-2.6-3.8-3.5-5.9
			c-12.9-19.2-34-27.7-49.6-31.4c-2.1,0.5-4.2,0.8-6.4,0.8c-5.1,0-9.8-1.4-13.9-3.7c0,0,0,0,0,0l0,0c-8.3-4.7-13.9-13.6-13.9-23.8
			C327.2,148.9,339.7,136.6,355.1,136.6 M355.1,134.6c-16.5,0-29.9,13.2-29.9,29.5c0,10.4,5.6,20.1,14.7,25.4
			c0.1,0.1,0.3,0.2,0.4,0.2c4.5,2.5,9.6,3.8,14.7,3.8c2.1,0,4.2-0.2,6.4-0.7c15.1,3.7,35.4,11.9,47.9,30.3c0.9,2.1,2.2,4.2,3.6,6
			c0.1,0.2,0.2,0.3,0.3,0.4c5.7,7.1,14.2,11.2,23.3,11.2c16.4,0,29.8-13.4,29.8-29.8c0-12-7.2-22.8-18.3-27.5
			c-0.1,0-0.2-0.1-0.2-0.1c-3.6-1.5-7.4-2.2-11.3-2.2c-2.2,0-4.5,0.3-6.9,0.8c-11.6-2.4-28.7-8.8-45.8-25.8
			c-1.6-5.7-4.8-10.7-9.3-14.6c-2-1.7-4.2-3.1-6.6-4.2c-0.1,0-0.2-0.1-0.3-0.1C363.7,135.6,359.5,134.6,355.1,134.6L355.1,134.6z"/>
	</g>
	<circle fill="#662D91" cx="355" cy="164.3" r="12"/>
	<circle fill="#662D91" cx="436.6" cy="211.1" r="12"/>
</g>
<path fill="#662D91" d="M541.4,377.1c0-0.1,0.1-0.2,0.1-0.3c5.6-14.3-1.4-30.4-15.5-35.9c-9.5-3.7-19.7-1.6-27.2,4.4l0,0
	c0,0,0,0,0,0c-3.7,3-6.6,6.9-8.5,11.6c-0.8,2.1-1.3,4.1-1.6,6.2c-9.1,13.3-24.7,29.8-47.3,34.9c-2.3,0.1-4.6,0.5-6.8,1.2
	c0,0-0.1,0-0.1,0l0,0c-7.9,2.4-14.6,8.2-17.8,16.5c-2.3,6-2.4,12.4-0.7,18.2c-0.1,0.2-0.2,0.4-0.3,0.6c-6.3,14-0.1,30.5,13.9,36.8
	c10.5,4.8,22.5,2.4,30.4-5.1l0,0c0,0,0,0,0,0c2.6-2.4,4.8-5.4,6.3-8.8c1-2.1,1.6-4.4,2-6.6c7.4-10.4,20.9-23.7,44-32.4
	c5.7,1,11.4,0.1,16.5-2.3c2.2-1.1,4.3-2.4,6.2-4.1c0,0,0,0,0,0l0,0c3-2.6,5.5-5.9,7.3-9.8C546.3,393.9,545.6,384.6,541.4,377.1z"/>
<g>
	<g>
		<path fill="#FFFFFF" d="M516.5,398.9c-9,0-17.3-4.1-22.8-11.2c-5.4-7-7.2-15.9-5.1-24.5c0-0.1,0-0.3,0.1-0.4
			c0.6-2.2,1.4-4.4,2.5-6.5c7.2-21.6,1.2-43.1-5.3-57.5c-1.7-1.4-3.2-3-4.5-4.6c-3-3.9-5-8.6-5.7-13.6c0-0.1-0.1-0.2-0.1-0.4
			c-1.3-10.1,2.8-20.1,10.7-26.3c5-3.8,10.9-5.8,17.2-5.8c9,0,17.4,4.1,23,11.4c2.6,3.4,4.4,7.2,5.3,11.4c0,0.1,0,0.1,0,0.2
			c0.6,2.5,0.8,5.1,0.6,7.6c-0.3,5.8-2.3,11.3-5.8,15.9c-3.1,24.4,2.4,42.3,7.7,53.1c1.9,1.5,3.5,3.1,4.8,4.9c2.3,3,4,6.4,5,10
			c0,0.1,0,0.1,0.1,0.2c3,11.3-1.1,23.1-10.3,30.2C529,396.8,522.9,398.9,516.5,398.9L516.5,398.9z"/>
		<path fill="#662D91" d="M503.7,249.2c8.3,0,16.6,3.8,22.2,11c2.6,3.4,4.3,7.1,5.2,11l0,0c0,0,0,0,0,0c0.5,2.4,0.8,4.9,0.6,7.4
			c-0.3,5.6-2.2,11.1-5.8,15.6c-3.2,24.5,2.2,42.7,7.8,54.1c1.8,1.4,3.4,3,4.8,4.9c2.3,3,3.9,6.3,4.8,9.7c0,0,0,0,0,0h0
			c2.8,10.5-0.7,22.2-9.9,29.2c-5,3.9-11,5.8-16.9,5.8c-8.3,0-16.6-3.7-22-10.8c-5.4-7-6.9-15.8-4.9-23.8h0c0,0,0-0.1,0-0.1
			c0.6-2.2,1.4-4.4,2.5-6.4c7.4-21.9,1.2-43.8-5.4-58.5c-1.6-1.3-3.1-2.9-4.5-4.6c-3.1-4-4.9-8.6-5.5-13.3c0,0,0,0,0,0l0,0
			c-1.3-9.5,2.3-19.3,10.3-25.5C492,251,497.9,249.2,503.7,249.2 M503.7,247.2c-6.5,0-12.7,2.1-17.8,6c-8.2,6.3-12.5,16.7-11.1,27.2
			c0,0.2,0,0.3,0.1,0.5c0.7,5.1,2.8,9.9,5.9,14c1.3,1.7,2.8,3.2,4.4,4.6c6.3,14.2,12.2,35.3,5.2,56.5c-1.1,2-2,4.3-2.6,6.6
			c-0.1,0.2-0.1,0.3-0.1,0.5c-2.2,8.9-0.3,18.1,5.3,25.3c5.7,7.4,14.3,11.6,23.6,11.6c6.6,0,12.9-2.1,18.1-6.2
			c9.5-7.3,13.7-19.6,10.6-31.2c0-0.1,0-0.2-0.1-0.2c-1-3.8-2.7-7.2-5.1-10.3c-1.4-1.8-3-3.4-4.8-4.9c-5.1-10.6-10.5-28.2-7.5-52
			c3.5-4.7,5.6-10.3,5.9-16.3c0.1-2.6-0.1-5.2-0.7-7.8c0-0.1,0-0.2-0.1-0.3c-1-4.3-2.8-8.2-5.5-11.7
			C521.7,251.4,513,247.2,503.7,247.2L503.7,247.2z"/>
	</g>
	<circle fill="#662D91" cx="503.9" cy="276.9" r="12"/>
	<circle fill="#662D91" cx="516.5" cy="370.1" r="12"/>
</g>
<path fill="#662D91" d="M379,474c4.4-10.7,1.7-23.5-7.6-31.2c-7.7-6.4-17.9-7.7-26.7-4.3l0,0c0,0,0,0,0,0c-4.3,1.6-8.3,4.4-11.5,8.2
	c-1.4,1.7-2.5,3.5-3.4,5.3c-12.6,9.5-32.3,20.1-54.9,17.9c-2.2-0.6-4.4-1-6.7-1c0,0-0.1,0-0.1,0l0,0c-8.1-0.2-16.2,3.1-21.7,9.9
	c-6.3,7.6-7.8,17.7-4.7,26.4c-4.3,10.4-1.7,22.9,7.2,30.8c8.5,7.5,20.4,8.8,30,4.1v0c0,0,0,0,0,0c3.1-1.5,6-3.7,8.5-6.5
	c1.5-1.7,2.8-3.6,3.8-5.6c10-7.6,26.4-16.2,50.7-17.7c5,2.6,10.7,3.4,16.1,2.6c2.4-0.4,4.8-1,7-2c0,0,0,0,0,0l0,0
	c3.6-1.6,6.9-3.9,9.7-7.1C382.1,495.2,383.5,483.5,379,474z"/>
<g>
	<g>
		<path fill="#FFFFFF" d="M354.1,496.1c-5.8,0-11.5-1.8-16.3-5.1c-13.1-9-16.4-27-7.4-40c5-7.3,12.9-11.8,21.8-12.4
			c0.1,0,0.1,0,0.2,0c0,0,0.1,0,0.1,0c0.5,0,1.1,0,1.7,0c1.8,0,3.6,0.2,5.3,0.5l0.6,0c22.5,0,40.9-12.3,52.5-22.7c0.8-2,1.8-4,3-5.7
			c2.8-4.1,6.7-7.5,11.2-9.7c0.1,0,0.1-0.1,0.2-0.1c3.9-1.9,8.2-2.8,12.5-2.8c5.7,0,11.2,1.7,15.9,4.9c6.3,4.3,10.5,10.8,11.8,18.4
			c1.3,7.5-0.3,15.2-4.7,21.5c-2.4,3.5-5.5,6.4-9.2,8.6c0,0-0.1,0.1-0.2,0.1c-2.2,1.3-4.6,2.3-7,2.9c-2.4,0.7-5,1-7.5,1
			c-3.2,0-6.4-0.5-9.5-1.6c-24.2,4.6-39.5,15.3-48.1,23.6c-0.8,2.2-1.9,4.3-3.2,6.1c-2.1,3.1-4.8,5.7-8,7.8c-0.1,0-0.1,0.1-0.2,0.1
			C365,494.6,359.6,496.1,354.1,496.1C354.1,496.1,354.1,496.1,354.1,496.1z"/>
		<path fill="#662D91" d="M439.4,399.1c5.3,0,10.7,1.5,15.3,4.8c12.5,8.6,15.6,25.8,6.8,38.5c-2.4,3.5-5.5,6.3-8.9,8.3l0,0
			c0,0,0,0,0,0c-2.2,1.3-4.5,2.2-6.8,2.9c-2.4,0.6-4.8,1-7.2,1c-3.2,0-6.3-0.5-9.4-1.7c-24.3,4.5-39.9,15.2-49.1,24.1
			c-0.8,2.1-1.8,4.2-3.1,6.1c-2.1,3.1-4.8,5.6-7.8,7.6c0,0,0,0,0,0l0,0c-4.5,2.9-9.8,4.5-15.1,4.5c-5.4,0-10.9-1.6-15.7-4.9
			c-12.6-8.7-15.8-26-7.1-38.6c5-7.3,12.9-11.4,21.2-12l0,0c0,0,0.1,0,0.1,0c0.6,0,1.1,0,1.7,0c1.7,0,3.5,0.2,5.2,0.5
			c0.2,0,0.5,0,0.7,0c22.8,0,41.5-12.4,53.3-23.1c0.8-2,1.8-3.9,3-5.7c2.9-4.2,6.7-7.3,10.9-9.4c0,0,0,0,0,0l0,0
			C431.1,400.1,435.2,399.1,439.4,399.1 M439.4,397.1L439.4,397.1c-4.4,0-8.8,1-12.8,2.9c-0.2,0.1-0.3,0.1-0.4,0.2
			c-4.6,2.3-8.6,5.7-11.5,9.9c-1.2,1.7-2.2,3.6-3,5.6c-11.4,10.2-29.6,22.3-51.6,22.3c-0.2,0-0.3,0-0.5,0c-1.8-0.3-3.6-0.5-5.4-0.5
			c-0.6,0-1.1,0-1.7,0c0,0-0.1,0-0.1,0c-0.1,0-0.2,0-0.4,0c-9.1,0.7-17.3,5.3-22.4,12.8c-9.3,13.5-5.9,32.1,7.7,41.4
			c5,3.4,10.8,5.2,16.8,5.2c5.7,0,11.3-1.6,16.1-4.7c0.1,0,0.1-0.1,0.2-0.1c3.3-2.1,6-4.8,8.2-8c1.3-1.8,2.3-3.9,3.2-6.1
			c8.5-8.2,23.6-18.6,47.2-23.2c3.1,1.1,6.3,1.6,9.5,1.6c2.6,0,5.2-0.3,7.7-1c2.5-0.7,5-1.7,7.2-3c0.1,0,0.1-0.1,0.2-0.1
			c3.8-2.2,6.9-5.2,9.4-8.8c4.5-6.6,6.2-14.5,4.9-22.3c-1.4-7.8-5.7-14.6-12.2-19C451,398.9,445.3,397.1,439.4,397.1L439.4,397.1z"
			/>
	</g>
	<circle fill="#662D91" cx="438.8" cy="426.7" r="12"/>
	<circle fill="#662D91" cx="354.1" cy="467.3" r="12"/>
</g>
<g>
	<g>
		<path fill="#FFFFFF" d="M266.3,619.2c-10.2,0-19.4-5.2-24.7-13.9c-4.6-7.5-5.4-16.6-2.3-24.9c0-0.1,0.1-0.2,0.1-0.3
			c0.8-2.2,1.9-4.2,3.3-6.1c9.6-20.6,6-42.7,1.2-57.7c-1.5-1.6-2.8-3.3-3.9-5.1c-2.6-4.3-4-9.2-4.2-14.2c0-0.1,0-0.1,0-0.2
			c-0.2-10.2,5-19.8,13.6-25c4.4-2.7,9.4-4.1,14.5-4.1c10,0,19.5,5.4,24.7,14c2.2,3.7,3.6,7.6,4,11.9c0,0.1,0,0.1,0,0.2
			c0.3,2.6,0.2,5.1-0.2,7.6c-0.9,5.8-3.6,11-7.6,15.2c-5.8,23.9-2.3,42.3,1.7,53.6c1.7,1.7,3.1,3.5,4.3,5.4c2,3.2,3.2,6.8,3.8,10.5
			c0,0.1,0,0.1,0,0.2c1.7,11.5-3.6,22.8-13.6,28.8C276.7,617.8,271.6,619.2,266.3,619.2C266.3,619.2,266.3,619.2,266.3,619.2z"/>
		<path fill="#662D91" d="M264,468.7c9.4,0,18.6,4.8,23.9,13.6c2.2,3.6,3.5,7.6,3.9,11.5l0,0c0,0,0,0,0,0c0.3,2.5,0.2,5-0.2,7.4
			c-0.9,5.5-3.5,10.7-7.5,14.8c-5.9,24-2.6,42.6,1.7,54.6c1.6,1.6,3.1,3.4,4.3,5.4c2,3.2,3.2,6.7,3.7,10.2c0,0,0,0,0,0h0
			c1.6,10.8-3.2,22-13.1,27.9c-4.5,2.7-9.4,4-14.3,4c-9.4,0-18.6-4.8-23.8-13.4c-4.6-7.6-5.1-16.5-2.2-24.2h0c0,0,0-0.1,0.1-0.1
			c0.8-2.1,1.9-4.2,3.2-6.1c9.8-21,6.1-43.4,1.2-58.7c-1.5-1.5-2.8-3.2-3.9-5.1c-2.6-4.3-3.9-9.1-4-13.8c0,0,0,0,0,0l0,0
			c-0.2-9.6,4.4-19,13.1-24.2C254.4,469.9,259.2,468.7,264,468.7 M264,466.7c-5.3,0-10.5,1.5-15.1,4.2c-8.9,5.4-14.3,15.2-14.1,25.7
			c0,0.2,0,0.3,0,0.5c0.2,5.1,1.7,10.2,4.3,14.6c1.1,1.8,2.4,3.5,3.9,5.1c4.7,14.8,8.2,36.5-1.2,56.7c-1.3,1.9-2.4,4-3.3,6.2
			c-0.1,0.2-0.1,0.3-0.2,0.5c-3.2,8.6-2.3,17.9,2.4,25.7c5.4,9,15,14.4,25.5,14.4c5.4,0,10.7-1.5,15.4-4.3
			c10.3-6.2,15.8-17.9,14.1-29.8c0-0.1,0-0.2,0-0.3c-0.6-3.8-1.9-7.5-3.9-10.8c-1.2-1.9-2.6-3.7-4.2-5.4
			c-3.9-11.1-7.3-29.2-1.6-52.5c4.1-4.3,6.7-9.6,7.6-15.5c0.4-2.6,0.5-5.2,0.2-7.9c0-0.1,0-0.2,0-0.2c-0.5-4.4-1.9-8.5-4.2-12.2
			C284.2,472.2,274.4,466.7,264,466.7L264,466.7z"/>
	</g>
	<circle fill="#662D91" cx="264.2" cy="496.5" r="12"/>
	<circle fill="#662D91" cx="266.3" cy="590.4" r="12"/>
</g>
<g>
	<g>
		<path fill="#FFFFFF" d="M416.5,732.8c-1.4,0-2.9-0.1-4.3-0.3c-4.2-0.6-8.2-2.1-11.7-4.4c0,0-0.1-0.1-0.1-0.1
			c-2.1-1.4-4.1-3.1-5.7-5c-3.9-4.4-6.2-9.8-6.9-15.5c-14.7-19.7-31.1-28.7-42.4-32.8c-1,0.1-1.9,0.1-2.8,0.1c-1.4,0-2.7-0.1-4-0.3
			c-3.7-0.6-7.3-1.8-10.5-3.7c-0.1,0-0.1-0.1-0.1-0.1c-10-6-15.3-17.3-13.6-28.8c2.1-14,14.3-24.6,28.4-24.6c1.4,0,2.8,0.1,4.2,0.3
			c8.7,1.3,16.3,6.4,20.7,14.1c0.1,0.1,0.1,0.2,0.2,0.3c1.1,2,2,4.2,2.7,6.4c9.8,20.5,29.2,31.8,43.7,37.7c0.8-0.1,1.5-0.1,2.3-0.1
			c1.4,0,2.8,0.1,4.1,0.3c4.9,0.7,9.6,2.7,13.6,5.8c0.1,0.1,0.2,0.1,0.3,0.2c8,6.3,12,16.4,10.5,26.3
			C442.9,722.4,430.7,732.8,416.5,732.8L416.5,732.8z"/>
		<path fill="#662D91" d="M342.6,618.2c1.3,0,2.7,0.1,4.1,0.3c8.8,1.3,16,6.6,20.1,13.7l0,0c0,0,0,0.1,0,0.1c1.1,2,2,4.1,2.6,6.3
			c10,20.9,29.6,32.3,44.5,38.3c0.8-0.1,1.6-0.1,2.5-0.1c1.3,0,2.6,0.1,4,0.3c5,0.7,9.5,2.8,13.2,5.7c0,0,0,0,0,0l0,0
			c7.5,5.9,11.8,15.5,10.3,25.5c-2,13.6-13.8,23.4-27.4,23.4c-1.4,0-2.8-0.1-4.2-0.3c-4.2-0.6-8.1-2.1-11.4-4.3l0,0c0,0,0,0,0,0
			c-2.1-1.4-4-3-5.6-4.9c-3.7-4.2-6.1-9.5-6.7-15.2c-14.8-19.9-31.2-29.1-43.2-33.4c-1,0.1-2,0.2-3,0.2c-1.3,0-2.6-0.1-3.9-0.3
			c-3.7-0.5-7.2-1.8-10.2-3.7c0,0,0,0,0,0l0,0c-9.3-5.6-14.9-16.4-13.2-27.9C317.2,628.2,329.1,618.2,342.6,618.2 M342.6,616.2
			c-14.6,0-27.3,10.9-29.4,25.4c-1.8,11.9,3.8,23.6,14,29.8c0.1,0,0.1,0.1,0.2,0.1c3.4,2,7,3.3,10.9,3.9c1.4,0.2,2.8,0.3,4.2,0.3
			c0.9,0,1.8,0,2.7-0.1c11.1,4.1,27.1,12.9,41.6,32.2c0.7,5.8,3.2,11.3,7.1,15.8c1.7,2,3.7,3.7,5.9,5.2c0.1,0,0.1,0.1,0.2,0.1
			c3.7,2.4,7.7,3.9,12.1,4.6c1.5,0.2,3,0.3,4.5,0.3c7.1,0,13.9-2.5,19.3-7.1c5.4-4.6,9-11,10.1-18c1.5-10.3-2.7-20.7-10.9-27.3
			c-0.1-0.1-0.3-0.2-0.4-0.3c-4.1-3.1-8.9-5.2-14-5.9c-1.4-0.2-2.8-0.3-4.3-0.3c-0.7,0-1.4,0-2.1,0.1c-14.4-5.8-33.3-16.9-43-37
			c-0.6-2.2-1.5-4.4-2.7-6.5c-0.1-0.2-0.1-0.3-0.3-0.4c-4.6-7.9-12.4-13.2-21.4-14.5C345.5,616.3,344.1,616.2,342.6,616.2
			L342.6,616.2z"/>
	</g>
	<circle fill="#662D91" cx="416.5" cy="704.2" r="12"/>
	<circle fill="#662D91" cx="342.6" cy="646" r="12"/>
</g>
<path fill="#FFFFFF" stroke="#000000" stroke-width="2" d="M516.5,234.5c0,0,47.8-36.1,49.2-51.6c0,0,1.5,54.5-13.3,69.9
	c-14.7,15.5-45.6,42-78,55.9l-155.3,78c0,0-66.3,37.5-71.4,77.3c0,0-5.9-60.4,30.2-92c0,0,26.5-23.6,114.8-66.3
	C481.1,263.1,511,241.1,516.5,234.5z"/>
<path fill="#FFFFFF" stroke="#000000" stroke-width="2" d="M521.4,492.1c0,0,36.4-37.7,37.8-55c0,0,1.5,60.7-13.1,77.9
	c-14.6,17.2-45.1,46.8-77.1,62.3l-153.5,86.9c0,0-65.5,41.8-70.6,86.1c0,0-5.8-67.3,29.8-102.5c0,0,26.2-26.2,113.5-73.8
	C475.6,526.6,514.6,499.5,521.4,492.1z"/>
<path fill="#FFFFFF" stroke="#000000" stroke-width="2" d="M390.5,47.6c-4.3,2.4-8.7,4.8-13.3,7.3c-82.2,44.7-106.9,69.4-106.9,69.4
	c-33.6,33.2-28.1,96.4-28.1,96.4c4.8-41.6,66.5-81,66.5-81l56.1-31.7L390.5,47.6z"/>
</svg>
