<?xml version="1.0" encoding="UTF-8" standalone="no"?>
<!-- Generator: Adobe Illustrator 18.1.1, SVG Export Plug-In . SVG Version: 6.00 Build 0)  -->

<svg
   xmlns:dc="http://purl.org/dc/elements/1.1/"
   xmlns:cc="http://creativecommons.org/ns#"
   xmlns:rdf="http://www.w3.org/1999/02/22-rdf-syntax-ns#"
   xmlns:svg="http://www.w3.org/2000/svg"
   xmlns="http://www.w3.org/2000/svg"
   xmlns:xlink="http://www.w3.org/1999/xlink"
   xmlns:sodipodi="http://sodipodi.sourceforge.net/DTD/sodipodi-0.dtd"
   xmlns:inkscape="http://www.inkscape.org/namespaces/inkscape"
   version="1.1"
   id="Layer_1"
   x="0px"
   y="0px"
   viewBox="0 0 128 128"
   enable-background="new 0 0 800 800"
   xml:space="preserve"
   inkscape:version="0.91 r13725"
   sodipodi:docname="icon.svg"
   width="128"
   height="128"
   inkscape:export-filename="C:\Multimedia\favicon.png"
   inkscape:export-xdpi="90"
   inkscape:export-ydpi="90"><metadata
     id="metadata4294"><rdf:RDF><cc:Work
         rdf:about=""><dc:format>image/svg+xml</dc:format><dc:type
           rdf:resource="http://purl.org/dc/dcmitype/StillImage" /><dc:title></dc:title></cc:Work></rdf:RDF></metadata><defs
     id="defs4292"><linearGradient
       inkscape:collect="always"
       id="linearGradient5230"><stop
         style="stop-color:#da6e1f;stop-opacity:1;"
         offset="0"
         id="stop5232" /><stop
         style="stop-color:#da6e1f;stop-opacity:0;"
         offset="1"
         id="stop5234" /></linearGradient><linearGradient
       inkscape:collect="always"
       xlink:href="#linearGradient5230"
       id="linearGradient5236"
       x1="29.310743"
       y1="775.59125"
       x2="8.2961102"
       y2="793.86902"
       gradientUnits="userSpaceOnUse"
       gradientTransform="matrix(3.9900262,0,0,3.9900262,-18.311276,-3050.3686)" /><filter
       inkscape:collect="always"
       style="color-interpolation-filters:sRGB"
       id="filter5284"
       x="-0.070282616"
       width="1.1405652"
       y="-0.07380341"
       height="1.1476068"><feGaussianBlur
         inkscape:collect="always"
         stdDeviation="0.636422"
         id="feGaussianBlur5286" /></filter></defs><sodipodi:namedview
     pagecolor="#ffffff"
     bordercolor="#666666"
     borderopacity="1"
     objecttolerance="10"
     gridtolerance="10"
     guidetolerance="10"
     inkscape:pageopacity="0"
     inkscape:pageshadow="2"
     inkscape:window-width="1366"
     inkscape:window-height="705"
     id="namedview4290"
     showgrid="false"
     inkscape:zoom="1.5588005"
     inkscape:cx="22.854704"
     inkscape:cy="22.020819"
     inkscape:window-x="-8"
     inkscape:window-y="-8"
     inkscape:window-maximized="1"
     inkscape:current-layer="Layer_1" /><rect
     transform="scale(1,-1)"
     y="-128"
     x="1.2662296e-007"
     height="127.99982"
     width="128"
     id="rect4871"
     style="fill:#fdb813;fill-opacity:1;stroke:none"
     inkscape:export-filename="C:\Multimedia\Logos\Triple Helix\favicon.png"
     inkscape:export-xdpi="90"
     inkscape:export-ydpi="90" /><path
     inkscape:connector-curvature="0"
     style="fill:url(#linearGradient5236);fill-opacity:1;fill-rule:evenodd;stroke:none;stroke-width:1px;stroke-linecap:butt;stroke-linejoin:miter;stroke-opacity:1"
     d="M 27.386994,22.19326 0.00232149,49.5857 l 0,78.41334 81.77215651,0 24.353192,-24.35316 -78.740676,-81.45262 z"
     id="path5225"
     inkscape:export-filename="C:\Multimedia\Logos\Triple Helix\favicon.png"
     inkscape:export-xdpi="90"
     inkscape:export-ydpi="90" /><path
     id="path5238"
     d="m 15.380859,773.4097 c -1.140063,-0.0405 -2.218683,0.34178 -3.085937,1.00391 l -2.03125,-0.0332 0.189453,3.90039 c 0.0011,0.0274 0.0023,0.0547 0.0039,0.082 l 0.0078,0.14649 c 0,0 0.0097,0.004 0.0098,0.004 0.106465,1.18854 0.640398,2.2914 1.498047,3.08984 0.59623,0.55062 1.345966,0.97723 2.185547,1.17773 0.36942,0.0882 0.73475,0.12277 1.107422,0.12305 2.48792,1.25085 5.674095,3.52045 7.070313,7.26172 0.06692,0.38871 0.1867,0.77247 0.349609,1.13086 0,0 -0.003,0.0175 0.01367,0.0215 0.595726,1.29596 1.756715,2.29947 3.234375,2.65235 2.569121,0.61352 5.165677,-0.96683 5.783203,-3.55274 0.05144,-0.2154 0.08217,-0.43028 0.103515,-0.64453 l 0.01563,0.004 0.160156,-4.00977 -5.414063,-3.08789 -6.546875,-4.74219 c -0.04429,-0.93594 -0.366761,-1.82667 -0.896484,-2.55664 -0.254883,-0.34486 -0.554385,-0.6469 -0.896484,-0.92383 -0.53633,-0.42981 -1.172491,-0.74164 -1.894532,-0.91406 -0.323239,-0.0772 -0.647247,-0.12147 -0.966797,-0.13281 z"
     style="fill:#da701e;fill-opacity:1;fill-rule:evenodd;stroke:none;stroke-width:1px;stroke-linecap:butt;stroke-linejoin:miter;stroke-opacity:1;filter:url(#filter5284)"
     inkscape:connector-curvature="0"
     transform="matrix(3.9900262,0,0,3.9900262,-22.160392,-3054.2176)"
     inkscape:export-filename="C:\Multimedia\Logos\Triple Helix\favicon.png"
     inkscape:export-xdpi="90"
     inkscape:export-ydpi="90" /><path
     inkscape:connector-curvature="0"
     style="fill:#662d91;fill-opacity:1;fill-rule:evenodd;stroke:none;stroke-width:1px;stroke-linecap:butt;stroke-linejoin:miter;stroke-opacity:1"
     d="m 43.058754,29.95508 c -4.54888,-0.1616 -8.852602,1.36372 -12.312968,4.00564 l -8.104742,-0.1324 0.755924,15.56266 c 0.0044,0.1094 0.0092,0.21826 0.0156,0.32718 l 0.03112,0.5845 c 0,0 0.0387,0.016 0.0391,0.016 0.424798,4.74232 2.555206,9.14276 5.977248,12.32854 2.378972,2.197 5.37044,3.89918 8.72039,4.69918 1.473994,0.35192 2.931672,0.48986 4.418642,0.49098 9.926866,4.99092 22.639788,14.04668 28.210734,28.97444 0.267012,1.55098 0.744938,3.08218 1.39495,4.51216 0,0 -0.012,0.0698 0.05454,0.0858 2.376964,5.1709 7.00934,9.17494 12.905242,10.58294 10.25086,2.44796 20.611186,-3.85768 23.075136,-14.17552 0.20524,-0.85946 0.32786,-1.71684 0.41302,-2.5717 l 0.0624,0.016 L 109.35408,79.2624 87.751826,66.94164 61.629624,48.02018 C 61.452904,44.28574 60.166238,40.73172 58.05263,37.81912 57.03564,36.44312 55.840618,35.23796 54.475634,34.133 52.335664,32.41806 49.797364,31.17384 46.916402,30.48588 45.62667,30.17786 44.33387,30.00122 43.058856,29.95596 Z"
     id="path5019"
     inkscape:export-filename="C:\Multimedia\Logos\Triple Helix\favicon.png"
     inkscape:export-xdpi="90"
     inkscape:export-ydpi="90" /><path
     style="fill:#ffffff;fill-opacity:1"
     inkscape:connector-curvature="0"
     id="path4875"
     d="m 85.01157,98.92356 c -5.895922,-1.408 -10.749848,-5.39994 -13.33082,-10.90286 -0.051,-0.083 -0.10198,-0.166 -0.08602,-0.23302 -0.633984,-1.49702 -1.117986,-3.02894 -1.451994,-4.59594 -5.484942,-14.69472 -18.09277,-23.58358 -27.751638,-28.5105 -1.553976,-0.016 -2.992822,-0.22104 -4.399926,-0.55514 -3.34995,-0.8 -6.491908,-2.47098 -8.972878,-4.8339 -0.06688,-0.016 -0.051,-0.083 -0.11802,-0.099 -5.146934,-4.8409 -7.327906,-12.0188 -5.711942,-18.78568 2.51195,-10.51886 13.20279,-17.0308 23.922634,-14.4708 2.880962,0.68792 5.483932,1.9469 7.741896,3.76092 0.06688,0.016 0.06688,0.016 0.11802,0.099 1.364984,1.10496 2.614964,2.39494 3.631958,3.77094 2.406968,3.26596 3.699952,7.04486 3.808958,11.0368 8.956892,14.39076 19.625742,21.61266 27.080644,25.0926 1.636972,-0.0358 3.225956,0.1332 4.699952,0.48488 2.545964,0.60788 4.912926,1.66898 7.017896,3.23394 0.0672,0.012 0.0672,0.012 0.11798,0.099 6.44891,4.7269 9.47489,12.81476 7.60293,20.65366 -2.62696,10.70384 -13.333792,17.28272 -23.919656,14.75478 l 0,0 z"
     inkscape:export-filename="C:\Multimedia\Logos\Triple Helix\favicon.png"
     inkscape:export-xdpi="90"
     inkscape:export-ydpi="90" /><ellipse
     transform="matrix(0.97265059,0.23227317,-0.23227363,0.97265048,0,0)"
     cx="49.455429"
     cy="24.465481"
     id="circle4879"
     style="fill:#662d91;fill-opacity:1"
     rx="8.2659559"
     ry="8.2659454"
     inkscape:export-filename="C:\Multimedia\Logos\Triple Helix\favicon.png"
     inkscape:export-xdpi="90"
     inkscape:export-ydpi="90" /><ellipse
     transform="matrix(0.97265059,0.23227317,-0.23227363,0.97265048,0,0)"
     cx="105.66393"
     cy="56.702785"
     id="circle4881"
     style="fill:#662d91;fill-opacity:1"
     rx="8.2659559"
     ry="8.2659454"
     inkscape:export-filename="C:\Multimedia\Logos\Triple Helix\favicon.png"
     inkscape:export-xdpi="90"
     inkscape:export-ydpi="90" /></svg>