<svg viewBox="0 0 16 16" xmlns="http://www.w3.org/2000/svg" fill-rule="evenodd" clip-rule="evenodd" stroke-linejoin="round" stroke-miterlimit="1.414"><path d="M14.91 10.52l-.007 2.074c0 1.748-1.42 3.166-3.167 3.166-1.6 0-2.927-1.19-3.137-2.736-.155-.595-.92-1.634-.92-1.634S5.627 9.736 4.76 8.92c-.376-.355-1.225-.356-1.335-.385C2.08 8.17 1.09 6.94 1.09 5.48l.007-2.074C1.097 1.658 2.517.24 4.264.24c1.61 0 2.94 1.202 3.14 2.757.076.587.353 1.13.784 1.536l2.148 2.023c.485.457 1.104.744 1.766.82 1.578.177 2.807 1.52 2.807 3.145zm-3.156-1.34c-.733 0-1.33.595-1.33 1.328 0 .733.597 1.33 1.33 1.33h.017c.726-.01 1.312-.602 1.312-1.33 0-.727-.586-1.32-1.31-1.328h-.018zm-7.51-7.066c-.734 0-1.33.595-1.33 1.328 0 .734.596 1.33 1.33 1.33h.016c.725-.01 1.31-.602 1.31-1.33 0-.727-.585-1.32-1.31-1.328h-.017z"/></svg>