<?xml version="1.0" standalone="no"?>
<!DOCTYPE svg PUBLIC "-//W3C//DTD SVG 1.1//EN" "http://www.w3.org/Graphics/SVG/1.1/DTD/svg11.dtd">
<svg width="100%" height="100%" viewBox="0 0 16 16" version="1.1" xmlns="http://www.w3.org/2000/svg" xmlns:xlink="http://www.w3.org/1999/xlink" xml:space="preserve" style="fill-rule:evenodd;clip-rule:evenodd;stroke-linejoin:round;stroke-miterlimit:1.41421;">
    <g id="Layer1">
        <path d="M14.909,10.521C14.909,10.593 14.903,12.594 14.903,12.594C14.903,14.342 13.484,15.76 11.736,15.76C10.135,15.76 8.809,14.569 8.599,13.024C8.445,12.429 7.68,11.39 7.68,11.39C7.68,11.39 5.627,9.736 4.76,8.92C4.384,8.565 3.535,8.564 3.425,8.535C2.081,8.169 1.091,6.939 1.091,5.479C1.091,5.479 1.097,3.435 1.097,3.406C1.097,1.658 2.516,0.24 4.264,0.24C5.873,0.24 7.203,1.442 7.404,2.997L7.404,2.997C7.48,3.584 7.757,4.127 8.188,4.533C8.811,5.12 9.685,5.943 10.336,6.556C10.821,7.013 11.44,7.3 12.102,7.375L12.102,7.375C13.68,7.553 14.909,8.895 14.909,10.521ZM11.754,9.18C11.021,9.18 10.425,9.775 10.425,10.508C10.425,11.241 11.021,11.837 11.754,11.837L11.771,11.837C12.496,11.827 13.082,11.236 13.082,10.508C13.082,9.781 12.496,9.189 11.771,9.18L11.754,9.18ZM4.243,2.114C3.51,2.114 2.915,2.709 2.915,3.442C2.915,4.176 3.51,4.771 4.243,4.771L4.26,4.771C4.985,4.761 5.571,4.17 5.571,3.442C5.571,2.715 4.985,2.123 4.26,2.114L4.243,2.114Z" style="fill:black;"/>
    </g>
</svg>
