<?xml version="1.0" standalone="no"?>
<!DOCTYPE svg PUBLIC "-//W3C//DTD SVG 1.1//EN" "http://www.w3.org/Graphics/SVG/1.1/DTD/svg11.dtd">
<svg width="100%" height="100%" viewBox="0 0 124 59" version="1.1" xmlns="http://www.w3.org/2000/svg" xmlns:xlink="http://www.w3.org/1999/xlink" xml:space="preserve" style="fill-rule:evenodd;clip-rule:evenodd;stroke-linejoin:round;stroke-miterlimit:1.41421;">
    <g transform="matrix(1,0,0,1,-190.542,-130.228)">
        <g>
            <g transform="matrix(0.973413,0,0,0.973413,-78.9304,-26.9141)">
                <g transform="matrix(0.493574,-1.20891e-16,1.20891e-16,0.493574,188.459,116.808)">
                    <circle cx="240" cy="151.365" r="57.201" style="fill:rgb(229,170,124);"/>
                </g>
                <g transform="matrix(0.493574,-1.20891e-16,1.20891e-16,0.493574,188.459,116.808)">
                    <path d="M296.054,139.922C296.637,142.788 297.006,145.731 297.142,148.735L237.37,208.507C234.366,208.37 231.423,208.002 228.557,207.419L296.054,139.922ZM268.163,101.575C279.14,107.802 287.859,117.554 292.778,129.287L217.922,204.143C206.189,199.224 196.437,190.504 190.211,179.528L268.163,101.575Z" style="fill:rgb(250,215,182);"/>
                </g>
                <g transform="matrix(0.493574,-1.20891e-16,1.20891e-16,0.493574,188.459,116.808)">
                    <path d="M240.394,90.415C243.367,90.443 246.333,90.666 249.273,91.116C254.723,91.95 260.054,93.531 265.077,95.803C271.436,98.68 277.287,102.659 282.309,107.505C287.147,112.174 291.21,117.639 294.277,123.623C296.893,128.728 298.779,134.202 299.86,139.836C301.101,146.303 301.284,152.973 300.412,159.5C299.581,165.712 297.782,171.788 295.095,177.45C291.999,183.971 287.736,189.927 282.571,194.97C277.136,200.277 270.714,204.56 263.718,207.522C259.917,209.13 255.951,210.349 251.902,211.152C248.114,211.903 244.255,212.29 240.394,212.315C232.383,212.366 224.384,210.839 216.968,207.807C209.932,204.93 203.456,200.722 197.955,195.477C192.733,190.498 188.4,184.597 185.227,178.116C182.474,172.495 180.602,166.452 179.695,160.26C178.74,153.743 178.842,147.069 180.001,140.585C181.012,134.93 182.833,129.425 185.39,124.282C188.44,118.15 192.529,112.544 197.429,107.76C202.421,102.885 208.246,98.872 214.586,95.957C219.591,93.655 224.908,92.042 230.349,91.175C233.282,90.708 236.244,90.465 239.214,90.418C239.607,90.415 240,90.413 240.394,90.415ZM239.654,97.915C237.045,97.939 234.441,98.135 231.861,98.53C227.086,99.26 222.415,100.645 218.014,102.636C212.729,105.028 207.843,108.287 203.598,112.24C199.203,116.332 195.5,121.159 192.696,126.469C190.301,131.007 188.568,135.889 187.57,140.922C186.423,146.699 186.242,152.669 187.022,158.506C187.75,163.949 189.326,169.273 191.681,174.234C194.397,179.955 198.138,185.18 202.669,189.604C207.436,194.259 213.068,198.017 219.205,200.615C225.662,203.347 232.644,204.771 239.654,204.815C246.677,204.86 253.691,203.524 260.194,200.865C266.365,198.341 272.044,194.65 276.87,190.049C281.451,185.681 285.254,180.504 288.038,174.818C290.449,169.893 292.09,164.598 292.885,159.172C293.739,153.343 293.63,147.37 292.556,141.576C291.62,136.525 289.945,131.615 287.602,127.043C284.912,121.793 281.346,116.999 277.101,112.902C272.851,108.802 267.926,105.407 262.575,102.908C258.206,100.866 253.559,99.425 248.801,98.635C246.233,98.209 243.638,97.981 241.036,97.923C240.575,97.916 240.115,97.913 239.654,97.915Z" style="fill:rgb(201,127,45);fill-rule:nonzero;"/>
                </g>
            </g>
            <g transform="matrix(1.41609,0,0,1.41609,-21.3424,-140.396)">
                <path d="M177.858,203.206C177.698,202.982 177.494,202.81 177.246,202.69C176.998,202.57 176.698,202.51 176.346,202.51C175.994,202.51 175.658,202.578 175.338,202.714C175.018,202.85 174.732,203.04 174.48,203.284C174.228,203.528 174.016,203.818 173.844,204.154C173.672,204.49 173.558,204.854 173.502,205.246C173.446,205.646 173.456,206.012 173.532,206.344C173.608,206.676 173.736,206.964 173.916,207.208C174.096,207.452 174.324,207.642 174.6,207.778C174.876,207.914 175.182,207.982 175.518,207.982C175.902,207.982 176.254,207.902 176.574,207.742C176.894,207.582 177.17,207.358 177.402,207.07L178.794,208.234C178.362,208.738 177.854,209.11 177.27,209.35C176.686,209.59 176.102,209.71 175.518,209.71C174.854,209.71 174.256,209.606 173.724,209.398C173.192,209.19 172.75,208.892 172.398,208.504C172.046,208.116 171.794,207.646 171.642,207.094C171.49,206.542 171.462,205.926 171.558,205.246C171.654,204.566 171.856,203.95 172.164,203.398C172.472,202.846 172.856,202.376 173.316,201.988C173.776,201.6 174.302,201.302 174.894,201.094C175.486,200.886 176.114,200.782 176.778,200.782C177.018,200.782 177.264,200.804 177.516,200.848C177.768,200.892 178.014,200.962 178.254,201.058C178.494,201.154 178.72,201.282 178.932,201.442C179.144,201.602 179.322,201.798 179.466,202.03L177.858,203.206Z" style="fill:none;stroke-width:2.47px;stroke:white;"/>
                <path d="M179.778,205.246C179.874,204.566 180.076,203.95 180.384,203.398C180.692,202.846 181.076,202.376 181.536,201.988C181.996,201.6 182.522,201.302 183.114,201.094C183.706,200.886 184.334,200.782 184.998,200.782C185.662,200.782 186.258,200.886 186.786,201.094C187.314,201.302 187.754,201.6 188.106,201.988C188.458,202.376 188.71,202.846 188.862,203.398C189.014,203.95 189.042,204.566 188.946,205.246C188.85,205.926 188.65,206.542 188.346,207.094C188.042,207.646 187.658,208.116 187.194,208.504C186.73,208.892 186.204,209.19 185.616,209.398C185.028,209.606 184.402,209.71 183.738,209.71C183.074,209.71 182.476,209.606 181.944,209.398C181.412,209.19 180.97,208.892 180.618,208.504C180.266,208.116 180.014,207.646 179.862,207.094C179.71,206.542 179.682,205.926 179.778,205.246ZM181.722,205.246C181.666,205.646 181.678,206.012 181.758,206.344C181.838,206.676 181.976,206.964 182.172,207.208C182.368,207.452 182.618,207.642 182.922,207.778C183.226,207.914 183.578,207.982 183.978,207.982C184.378,207.982 184.75,207.914 185.094,207.778C185.438,207.642 185.742,207.452 186.006,207.208C186.27,206.964 186.488,206.676 186.66,206.344C186.832,206.012 186.946,205.646 187.002,205.246C187.058,204.854 187.048,204.49 186.972,204.154C186.896,203.818 186.758,203.528 186.558,203.284C186.358,203.04 186.106,202.85 185.802,202.714C185.498,202.578 185.146,202.51 184.746,202.51C184.346,202.51 183.974,202.578 183.63,202.714C183.286,202.85 182.982,203.04 182.718,203.284C182.454,203.528 182.236,203.818 182.064,204.154C181.892,204.49 181.778,204.854 181.722,205.246Z" style="fill:none;stroke-width:2.47px;stroke:white;"/>
                <path d="M190.818,200.998L193.974,200.998C194.414,200.998 194.824,201.038 195.204,201.118C195.584,201.198 195.906,201.336 196.17,201.532C196.434,201.728 196.63,201.992 196.758,202.324C196.886,202.656 196.914,203.074 196.842,203.578C196.77,204.074 196.63,204.49 196.422,204.826C196.214,205.162 195.956,205.43 195.648,205.63C195.34,205.83 194.988,205.972 194.592,206.056C194.196,206.14 193.774,206.182 193.326,206.182L191.958,206.182L191.502,209.494L189.63,209.494L190.818,200.998ZM192.186,204.598L193.434,204.598C193.602,204.598 193.766,204.582 193.926,204.55C194.086,204.518 194.234,204.464 194.37,204.388C194.506,204.312 194.622,204.208 194.718,204.076C194.814,203.944 194.874,203.778 194.898,203.578C194.93,203.362 194.904,203.188 194.82,203.056C194.736,202.924 194.62,202.822 194.472,202.75C194.324,202.678 194.156,202.632 193.968,202.612C193.78,202.592 193.598,202.582 193.422,202.582L192.462,202.582L192.186,204.598Z" style="fill:none;stroke-width:2.47px;stroke:white;"/>
                <path d="M198.378,200.998L201.534,200.998C201.974,200.998 202.384,201.038 202.764,201.118C203.144,201.198 203.466,201.336 203.73,201.532C203.994,201.728 204.19,201.992 204.318,202.324C204.446,202.656 204.474,203.074 204.402,203.578C204.33,204.074 204.19,204.49 203.982,204.826C203.774,205.162 203.516,205.43 203.208,205.63C202.9,205.83 202.548,205.972 202.152,206.056C201.756,206.14 201.334,206.182 200.886,206.182L199.518,206.182L199.062,209.494L197.19,209.494L198.378,200.998ZM199.746,204.598L200.994,204.598C201.162,204.598 201.326,204.582 201.486,204.55C201.646,204.518 201.794,204.464 201.93,204.388C202.066,204.312 202.182,204.208 202.278,204.076C202.374,203.944 202.434,203.778 202.458,203.578C202.49,203.362 202.464,203.188 202.38,203.056C202.296,202.924 202.18,202.822 202.032,202.75C201.884,202.678 201.716,202.632 201.528,202.612C201.34,202.592 201.158,202.582 200.982,202.582L200.022,202.582L199.746,204.598Z" style="fill:none;stroke-width:2.47px;stroke:white;"/>
                <path d="M206.01,200.998L211.782,200.998L211.542,202.726L207.642,202.726L207.414,204.31L211.098,204.31L210.858,206.038L207.174,206.038L206.934,207.766L211.05,207.766L210.81,209.494L204.822,209.494L206.01,200.998Z" style="fill:none;stroke-width:2.47px;stroke:white;"/>
                <path d="M213.498,200.998L216.786,200.998C217.218,200.998 217.622,201.04 217.998,201.124C218.374,201.208 218.694,201.348 218.958,201.544C219.222,201.74 219.418,202.004 219.546,202.336C219.674,202.668 219.702,203.082 219.63,203.578C219.542,204.178 219.314,204.688 218.946,205.108C218.578,205.528 218.086,205.794 217.47,205.906L219.126,209.494L216.882,209.494L215.574,206.098L214.65,206.098L214.182,209.494L212.31,209.494L213.498,200.998ZM214.878,204.514L215.982,204.514C216.15,204.514 216.328,204.508 216.516,204.496C216.704,204.484 216.878,204.448 217.038,204.388C217.198,204.328 217.338,204.234 217.458,204.106C217.578,203.978 217.654,203.798 217.686,203.566C217.718,203.35 217.698,203.178 217.626,203.05C217.554,202.922 217.454,202.824 217.326,202.756C217.198,202.688 217.048,202.642 216.876,202.618C216.704,202.594 216.534,202.582 216.366,202.582L215.142,202.582L214.878,204.514Z" style="fill:none;stroke-width:2.47px;stroke:white;"/>
                <path d="M176.526,215.074C176.398,214.882 176.21,214.74 175.962,214.648C175.714,214.556 175.474,214.51 175.242,214.51C175.106,214.51 174.962,214.526 174.81,214.558C174.658,214.59 174.516,214.64 174.384,214.708C174.252,214.776 174.138,214.866 174.042,214.978C173.946,215.09 173.886,215.226 173.862,215.386C173.838,215.578 173.872,215.736 173.964,215.86C174.056,215.984 174.188,216.088 174.36,216.172C174.532,216.256 174.732,216.33 174.96,216.394C175.188,216.458 175.418,216.53 175.65,216.61C175.882,216.69 176.108,216.786 176.328,216.898C176.548,217.01 176.738,217.152 176.898,217.324C177.058,217.496 177.176,217.712 177.252,217.972C177.328,218.232 177.338,218.546 177.282,218.914C177.218,219.386 177.072,219.798 176.844,220.15C176.616,220.502 176.336,220.794 176.004,221.026C175.672,221.258 175.3,221.43 174.888,221.542C174.476,221.654 174.05,221.71 173.61,221.71C173.058,221.71 172.558,221.626 172.11,221.458C171.662,221.29 171.258,221.018 170.898,220.642L172.446,219.178C172.606,219.434 172.82,219.632 173.088,219.772C173.356,219.912 173.646,219.982 173.958,219.982C174.11,219.982 174.266,219.964 174.426,219.928C174.586,219.892 174.734,219.838 174.87,219.766C175.006,219.694 175.12,219.602 175.212,219.49C175.304,219.378 175.362,219.246 175.386,219.094C175.426,218.838 175.356,218.636 175.176,218.488C174.996,218.34 174.766,218.214 174.486,218.11C174.206,218.006 173.902,217.902 173.574,217.798C173.246,217.694 172.946,217.554 172.674,217.378C172.402,217.202 172.188,216.97 172.032,216.682C171.876,216.394 171.83,216.014 171.894,215.542C171.958,215.086 172.104,214.686 172.332,214.342C172.56,213.998 172.842,213.71 173.178,213.478C173.514,213.246 173.886,213.072 174.294,212.956C174.702,212.84 175.114,212.782 175.53,212.782C176.01,212.782 176.464,212.85 176.892,212.986C177.32,213.122 177.69,213.35 178.002,213.67L176.526,215.074Z" style="fill:none;stroke-width:2.47px;stroke:white;"/>
                <path d="M179.502,212.998L182.658,212.998C183.098,212.998 183.508,213.038 183.888,213.118C184.268,213.198 184.59,213.336 184.854,213.532C185.118,213.728 185.314,213.992 185.442,214.324C185.57,214.656 185.598,215.074 185.526,215.578C185.454,216.074 185.314,216.49 185.106,216.826C184.898,217.162 184.64,217.43 184.332,217.63C184.024,217.83 183.672,217.972 183.276,218.056C182.88,218.14 182.458,218.182 182.01,218.182L180.642,218.182L180.186,221.494L178.314,221.494L179.502,212.998ZM180.87,216.598L182.118,216.598C182.286,216.598 182.45,216.582 182.61,216.55C182.77,216.518 182.918,216.464 183.054,216.388C183.19,216.312 183.306,216.208 183.402,216.076C183.498,215.944 183.558,215.778 183.582,215.578C183.614,215.362 183.588,215.188 183.504,215.056C183.42,214.924 183.304,214.822 183.156,214.75C183.008,214.678 182.84,214.632 182.652,214.612C182.464,214.592 182.282,214.582 182.106,214.582L181.146,214.582L180.87,216.598Z" style="fill:none;stroke-width:2.47px;stroke:white;"/>
                <path d="M186.006,217.246C186.102,216.566 186.304,215.95 186.612,215.398C186.92,214.846 187.304,214.376 187.764,213.988C188.224,213.6 188.75,213.302 189.342,213.094C189.934,212.886 190.562,212.782 191.226,212.782C191.89,212.782 192.486,212.886 193.014,213.094C193.542,213.302 193.982,213.6 194.334,213.988C194.686,214.376 194.938,214.846 195.09,215.398C195.242,215.95 195.27,216.566 195.174,217.246C195.078,217.926 194.878,218.542 194.574,219.094C194.27,219.646 193.886,220.116 193.422,220.504C192.958,220.892 192.432,221.19 191.844,221.398C191.256,221.606 190.63,221.71 189.966,221.71C189.302,221.71 188.704,221.606 188.172,221.398C187.64,221.19 187.198,220.892 186.846,220.504C186.494,220.116 186.242,219.646 186.09,219.094C185.938,218.542 185.91,217.926 186.006,217.246ZM187.95,217.246C187.894,217.646 187.906,218.012 187.986,218.344C188.066,218.676 188.204,218.964 188.4,219.208C188.596,219.452 188.846,219.642 189.15,219.778C189.454,219.914 189.806,219.982 190.206,219.982C190.606,219.982 190.978,219.914 191.322,219.778C191.666,219.642 191.97,219.452 192.234,219.208C192.498,218.964 192.716,218.676 192.888,218.344C193.06,218.012 193.174,217.646 193.23,217.246C193.286,216.854 193.276,216.49 193.2,216.154C193.124,215.818 192.986,215.528 192.786,215.284C192.586,215.04 192.334,214.85 192.03,214.714C191.726,214.578 191.374,214.51 190.974,214.51C190.574,214.51 190.202,214.578 189.858,214.714C189.514,214.85 189.21,215.04 188.946,215.284C188.682,215.528 188.464,215.818 188.292,216.154C188.12,216.49 188.006,216.854 187.95,217.246Z" style="fill:none;stroke-width:2.47px;stroke:white;"/>
                <path d="M197.046,212.998L199.59,212.998L202.374,218.902L202.398,218.902L203.226,212.998L205.098,212.998L203.91,221.494L201.462,221.494L198.594,215.446L198.57,215.446L197.73,221.494L195.858,221.494L197.046,212.998Z" style="fill:none;stroke-width:2.47px;stroke:white;"/>
                <path d="M210.738,215.074C210.61,214.882 210.422,214.74 210.174,214.648C209.926,214.556 209.686,214.51 209.454,214.51C209.318,214.51 209.174,214.526 209.022,214.558C208.87,214.59 208.728,214.64 208.596,214.708C208.464,214.776 208.35,214.866 208.254,214.978C208.158,215.09 208.098,215.226 208.074,215.386C208.05,215.578 208.084,215.736 208.176,215.86C208.268,215.984 208.4,216.088 208.572,216.172C208.744,216.256 208.944,216.33 209.172,216.394C209.4,216.458 209.63,216.53 209.862,216.61C210.094,216.69 210.32,216.786 210.54,216.898C210.76,217.01 210.95,217.152 211.11,217.324C211.27,217.496 211.388,217.712 211.464,217.972C211.54,218.232 211.55,218.546 211.494,218.914C211.43,219.386 211.284,219.798 211.056,220.15C210.828,220.502 210.548,220.794 210.216,221.026C209.884,221.258 209.512,221.43 209.1,221.542C208.688,221.654 208.262,221.71 207.822,221.71C207.27,221.71 206.77,221.626 206.322,221.458C205.874,221.29 205.47,221.018 205.11,220.642L206.658,219.178C206.818,219.434 207.032,219.632 207.3,219.772C207.568,219.912 207.858,219.982 208.17,219.982C208.322,219.982 208.478,219.964 208.638,219.928C208.798,219.892 208.946,219.838 209.082,219.766C209.218,219.694 209.332,219.602 209.424,219.49C209.516,219.378 209.574,219.246 209.598,219.094C209.638,218.838 209.568,218.636 209.388,218.488C209.208,218.34 208.978,218.214 208.698,218.11C208.418,218.006 208.114,217.902 207.786,217.798C207.458,217.694 207.158,217.554 206.886,217.378C206.614,217.202 206.4,216.97 206.244,216.682C206.088,216.394 206.042,216.014 206.106,215.542C206.17,215.086 206.316,214.686 206.544,214.342C206.772,213.998 207.054,213.71 207.39,213.478C207.726,213.246 208.098,213.072 208.506,212.956C208.914,212.84 209.326,212.782 209.742,212.782C210.222,212.782 210.676,212.85 211.104,212.986C211.532,213.122 211.902,213.35 212.214,213.67L210.738,215.074Z" style="fill:none;stroke-width:2.47px;stroke:white;"/>
                <path d="M212.658,217.246C212.754,216.566 212.956,215.95 213.264,215.398C213.572,214.846 213.956,214.376 214.416,213.988C214.876,213.6 215.402,213.302 215.994,213.094C216.586,212.886 217.214,212.782 217.878,212.782C218.542,212.782 219.138,212.886 219.666,213.094C220.194,213.302 220.634,213.6 220.986,213.988C221.338,214.376 221.59,214.846 221.742,215.398C221.894,215.95 221.922,216.566 221.826,217.246C221.73,217.926 221.53,218.542 221.226,219.094C220.922,219.646 220.538,220.116 220.074,220.504C219.61,220.892 219.084,221.19 218.496,221.398C217.908,221.606 217.282,221.71 216.618,221.71C215.954,221.71 215.356,221.606 214.824,221.398C214.292,221.19 213.85,220.892 213.498,220.504C213.146,220.116 212.894,219.646 212.742,219.094C212.59,218.542 212.562,217.926 212.658,217.246ZM214.602,217.246C214.546,217.646 214.558,218.012 214.638,218.344C214.718,218.676 214.856,218.964 215.052,219.208C215.248,219.452 215.498,219.642 215.802,219.778C216.106,219.914 216.458,219.982 216.858,219.982C217.258,219.982 217.63,219.914 217.974,219.778C218.318,219.642 218.622,219.452 218.886,219.208C219.15,218.964 219.368,218.676 219.54,218.344C219.712,218.012 219.826,217.646 219.882,217.246C219.938,216.854 219.928,216.49 219.852,216.154C219.776,215.818 219.638,215.528 219.438,215.284C219.238,215.04 218.986,214.85 218.682,214.714C218.378,214.578 218.026,214.51 217.626,214.51C217.226,214.51 216.854,214.578 216.51,214.714C216.166,214.85 215.862,215.04 215.598,215.284C215.334,215.528 215.116,215.818 214.944,216.154C214.772,216.49 214.658,216.854 214.602,217.246Z" style="fill:none;stroke-width:2.47px;stroke:white;"/>
                <path d="M223.698,212.998L226.986,212.998C227.418,212.998 227.822,213.04 228.198,213.124C228.574,213.208 228.894,213.348 229.158,213.544C229.422,213.74 229.618,214.004 229.746,214.336C229.874,214.668 229.902,215.082 229.83,215.578C229.742,216.178 229.514,216.688 229.146,217.108C228.778,217.528 228.286,217.794 227.67,217.906L229.326,221.494L227.082,221.494L225.774,218.098L224.85,218.098L224.382,221.494L222.51,221.494L223.698,212.998ZM225.078,216.514L226.182,216.514C226.35,216.514 226.528,216.508 226.716,216.496C226.904,216.484 227.078,216.448 227.238,216.388C227.398,216.328 227.538,216.234 227.658,216.106C227.778,215.978 227.854,215.798 227.886,215.566C227.918,215.35 227.898,215.178 227.826,215.05C227.754,214.922 227.654,214.824 227.526,214.756C227.398,214.688 227.248,214.642 227.076,214.618C226.904,214.594 226.734,214.582 226.566,214.582L225.342,214.582L225.078,216.514Z" style="fill:none;stroke-width:2.47px;stroke:white;"/>
                <path d="M235.386,215.074C235.258,214.882 235.07,214.74 234.822,214.648C234.574,214.556 234.334,214.51 234.102,214.51C233.966,214.51 233.822,214.526 233.67,214.558C233.518,214.59 233.376,214.64 233.244,214.708C233.112,214.776 232.998,214.866 232.902,214.978C232.806,215.09 232.746,215.226 232.722,215.386C232.698,215.578 232.732,215.736 232.824,215.86C232.916,215.984 233.048,216.088 233.22,216.172C233.392,216.256 233.592,216.33 233.82,216.394C234.048,216.458 234.278,216.53 234.51,216.61C234.742,216.69 234.968,216.786 235.188,216.898C235.408,217.01 235.598,217.152 235.758,217.324C235.918,217.496 236.036,217.712 236.112,217.972C236.188,218.232 236.198,218.546 236.142,218.914C236.078,219.386 235.932,219.798 235.704,220.15C235.476,220.502 235.196,220.794 234.864,221.026C234.532,221.258 234.16,221.43 233.748,221.542C233.336,221.654 232.91,221.71 232.47,221.71C231.918,221.71 231.418,221.626 230.97,221.458C230.522,221.29 230.118,221.018 229.758,220.642L231.306,219.178C231.466,219.434 231.68,219.632 231.948,219.772C232.216,219.912 232.506,219.982 232.818,219.982C232.97,219.982 233.126,219.964 233.286,219.928C233.446,219.892 233.594,219.838 233.73,219.766C233.866,219.694 233.98,219.602 234.072,219.49C234.164,219.378 234.222,219.246 234.246,219.094C234.286,218.838 234.216,218.636 234.036,218.488C233.856,218.34 233.626,218.214 233.346,218.11C233.066,218.006 232.762,217.902 232.434,217.798C232.106,217.694 231.806,217.554 231.534,217.378C231.262,217.202 231.048,216.97 230.892,216.682C230.736,216.394 230.69,216.014 230.754,215.542C230.818,215.086 230.964,214.686 231.192,214.342C231.42,213.998 231.702,213.71 232.038,213.478C232.374,213.246 232.746,213.072 233.154,212.956C233.562,212.84 233.974,212.782 234.39,212.782C234.87,212.782 235.324,212.85 235.752,212.986C236.18,213.122 236.55,213.35 236.862,213.67L235.386,215.074Z" style="fill:none;stroke-width:2.47px;stroke:white;"/>
                <path d="M177.858,203.206C177.698,202.982 177.494,202.81 177.246,202.69C176.998,202.57 176.698,202.51 176.346,202.51C175.994,202.51 175.658,202.578 175.338,202.714C175.018,202.85 174.732,203.04 174.48,203.284C174.228,203.528 174.016,203.818 173.844,204.154C173.672,204.49 173.558,204.854 173.502,205.246C173.446,205.646 173.456,206.012 173.532,206.344C173.608,206.676 173.736,206.964 173.916,207.208C174.096,207.452 174.324,207.642 174.6,207.778C174.876,207.914 175.182,207.982 175.518,207.982C175.902,207.982 176.254,207.902 176.574,207.742C176.894,207.582 177.17,207.358 177.402,207.07L178.794,208.234C178.362,208.738 177.854,209.11 177.27,209.35C176.686,209.59 176.102,209.71 175.518,209.71C174.854,209.71 174.256,209.606 173.724,209.398C173.192,209.19 172.75,208.892 172.398,208.504C172.046,208.116 171.794,207.646 171.642,207.094C171.49,206.542 171.462,205.926 171.558,205.246C171.654,204.566 171.856,203.95 172.164,203.398C172.472,202.846 172.856,202.376 173.316,201.988C173.776,201.6 174.302,201.302 174.894,201.094C175.486,200.886 176.114,200.782 176.778,200.782C177.018,200.782 177.264,200.804 177.516,200.848C177.768,200.892 178.014,200.962 178.254,201.058C178.494,201.154 178.72,201.282 178.932,201.442C179.144,201.602 179.322,201.798 179.466,202.03L177.858,203.206Z" style="fill:rgb(189,113,37);fill-rule:nonzero;"/>
                <path d="M179.778,205.246C179.874,204.566 180.076,203.95 180.384,203.398C180.692,202.846 181.076,202.376 181.536,201.988C181.996,201.6 182.522,201.302 183.114,201.094C183.706,200.886 184.334,200.782 184.998,200.782C185.662,200.782 186.258,200.886 186.786,201.094C187.314,201.302 187.754,201.6 188.106,201.988C188.458,202.376 188.71,202.846 188.862,203.398C189.014,203.95 189.042,204.566 188.946,205.246C188.85,205.926 188.65,206.542 188.346,207.094C188.042,207.646 187.658,208.116 187.194,208.504C186.73,208.892 186.204,209.19 185.616,209.398C185.028,209.606 184.402,209.71 183.738,209.71C183.074,209.71 182.476,209.606 181.944,209.398C181.412,209.19 180.97,208.892 180.618,208.504C180.266,208.116 180.014,207.646 179.862,207.094C179.71,206.542 179.682,205.926 179.778,205.246ZM181.722,205.246C181.666,205.646 181.678,206.012 181.758,206.344C181.838,206.676 181.976,206.964 182.172,207.208C182.368,207.452 182.618,207.642 182.922,207.778C183.226,207.914 183.578,207.982 183.978,207.982C184.378,207.982 184.75,207.914 185.094,207.778C185.438,207.642 185.742,207.452 186.006,207.208C186.27,206.964 186.488,206.676 186.66,206.344C186.832,206.012 186.946,205.646 187.002,205.246C187.058,204.854 187.048,204.49 186.972,204.154C186.896,203.818 186.758,203.528 186.558,203.284C186.358,203.04 186.106,202.85 185.802,202.714C185.498,202.578 185.146,202.51 184.746,202.51C184.346,202.51 183.974,202.578 183.63,202.714C183.286,202.85 182.982,203.04 182.718,203.284C182.454,203.528 182.236,203.818 182.064,204.154C181.892,204.49 181.778,204.854 181.722,205.246Z" style="fill:rgb(189,113,37);fill-rule:nonzero;"/>
                <path d="M190.818,200.998L193.974,200.998C194.414,200.998 194.824,201.038 195.204,201.118C195.584,201.198 195.906,201.336 196.17,201.532C196.434,201.728 196.63,201.992 196.758,202.324C196.886,202.656 196.914,203.074 196.842,203.578C196.77,204.074 196.63,204.49 196.422,204.826C196.214,205.162 195.956,205.43 195.648,205.63C195.34,205.83 194.988,205.972 194.592,206.056C194.196,206.14 193.774,206.182 193.326,206.182L191.958,206.182L191.502,209.494L189.63,209.494L190.818,200.998ZM192.186,204.598L193.434,204.598C193.602,204.598 193.766,204.582 193.926,204.55C194.086,204.518 194.234,204.464 194.37,204.388C194.506,204.312 194.622,204.208 194.718,204.076C194.814,203.944 194.874,203.778 194.898,203.578C194.93,203.362 194.904,203.188 194.82,203.056C194.736,202.924 194.62,202.822 194.472,202.75C194.324,202.678 194.156,202.632 193.968,202.612C193.78,202.592 193.598,202.582 193.422,202.582L192.462,202.582L192.186,204.598Z" style="fill:rgb(189,113,37);fill-rule:nonzero;"/>
                <path d="M198.378,200.998L201.534,200.998C201.974,200.998 202.384,201.038 202.764,201.118C203.144,201.198 203.466,201.336 203.73,201.532C203.994,201.728 204.19,201.992 204.318,202.324C204.446,202.656 204.474,203.074 204.402,203.578C204.33,204.074 204.19,204.49 203.982,204.826C203.774,205.162 203.516,205.43 203.208,205.63C202.9,205.83 202.548,205.972 202.152,206.056C201.756,206.14 201.334,206.182 200.886,206.182L199.518,206.182L199.062,209.494L197.19,209.494L198.378,200.998ZM199.746,204.598L200.994,204.598C201.162,204.598 201.326,204.582 201.486,204.55C201.646,204.518 201.794,204.464 201.93,204.388C202.066,204.312 202.182,204.208 202.278,204.076C202.374,203.944 202.434,203.778 202.458,203.578C202.49,203.362 202.464,203.188 202.38,203.056C202.296,202.924 202.18,202.822 202.032,202.75C201.884,202.678 201.716,202.632 201.528,202.612C201.34,202.592 201.158,202.582 200.982,202.582L200.022,202.582L199.746,204.598Z" style="fill:rgb(189,113,37);fill-rule:nonzero;"/>
                <path d="M206.01,200.998L211.782,200.998L211.542,202.726L207.642,202.726L207.414,204.31L211.098,204.31L210.858,206.038L207.174,206.038L206.934,207.766L211.05,207.766L210.81,209.494L204.822,209.494L206.01,200.998Z" style="fill:rgb(189,113,37);fill-rule:nonzero;"/>
                <path d="M213.498,200.998L216.786,200.998C217.218,200.998 217.622,201.04 217.998,201.124C218.374,201.208 218.694,201.348 218.958,201.544C219.222,201.74 219.418,202.004 219.546,202.336C219.674,202.668 219.702,203.082 219.63,203.578C219.542,204.178 219.314,204.688 218.946,205.108C218.578,205.528 218.086,205.794 217.47,205.906L219.126,209.494L216.882,209.494L215.574,206.098L214.65,206.098L214.182,209.494L212.31,209.494L213.498,200.998ZM214.878,204.514L215.982,204.514C216.15,204.514 216.328,204.508 216.516,204.496C216.704,204.484 216.878,204.448 217.038,204.388C217.198,204.328 217.338,204.234 217.458,204.106C217.578,203.978 217.654,203.798 217.686,203.566C217.718,203.35 217.698,203.178 217.626,203.05C217.554,202.922 217.454,202.824 217.326,202.756C217.198,202.688 217.048,202.642 216.876,202.618C216.704,202.594 216.534,202.582 216.366,202.582L215.142,202.582L214.878,204.514Z" style="fill:rgb(189,113,37);fill-rule:nonzero;"/>
                <path d="M176.526,215.074C176.398,214.882 176.21,214.74 175.962,214.648C175.714,214.556 175.474,214.51 175.242,214.51C175.106,214.51 174.962,214.526 174.81,214.558C174.658,214.59 174.516,214.64 174.384,214.708C174.252,214.776 174.138,214.866 174.042,214.978C173.946,215.09 173.886,215.226 173.862,215.386C173.838,215.578 173.872,215.736 173.964,215.86C174.056,215.984 174.188,216.088 174.36,216.172C174.532,216.256 174.732,216.33 174.96,216.394C175.188,216.458 175.418,216.53 175.65,216.61C175.882,216.69 176.108,216.786 176.328,216.898C176.548,217.01 176.738,217.152 176.898,217.324C177.058,217.496 177.176,217.712 177.252,217.972C177.328,218.232 177.338,218.546 177.282,218.914C177.218,219.386 177.072,219.798 176.844,220.15C176.616,220.502 176.336,220.794 176.004,221.026C175.672,221.258 175.3,221.43 174.888,221.542C174.476,221.654 174.05,221.71 173.61,221.71C173.058,221.71 172.558,221.626 172.11,221.458C171.662,221.29 171.258,221.018 170.898,220.642L172.446,219.178C172.606,219.434 172.82,219.632 173.088,219.772C173.356,219.912 173.646,219.982 173.958,219.982C174.11,219.982 174.266,219.964 174.426,219.928C174.586,219.892 174.734,219.838 174.87,219.766C175.006,219.694 175.12,219.602 175.212,219.49C175.304,219.378 175.362,219.246 175.386,219.094C175.426,218.838 175.356,218.636 175.176,218.488C174.996,218.34 174.766,218.214 174.486,218.11C174.206,218.006 173.902,217.902 173.574,217.798C173.246,217.694 172.946,217.554 172.674,217.378C172.402,217.202 172.188,216.97 172.032,216.682C171.876,216.394 171.83,216.014 171.894,215.542C171.958,215.086 172.104,214.686 172.332,214.342C172.56,213.998 172.842,213.71 173.178,213.478C173.514,213.246 173.886,213.072 174.294,212.956C174.702,212.84 175.114,212.782 175.53,212.782C176.01,212.782 176.464,212.85 176.892,212.986C177.32,213.122 177.69,213.35 178.002,213.67L176.526,215.074Z" style="fill:rgb(189,113,37);fill-rule:nonzero;"/>
                <path d="M179.502,212.998L182.658,212.998C183.098,212.998 183.508,213.038 183.888,213.118C184.268,213.198 184.59,213.336 184.854,213.532C185.118,213.728 185.314,213.992 185.442,214.324C185.57,214.656 185.598,215.074 185.526,215.578C185.454,216.074 185.314,216.49 185.106,216.826C184.898,217.162 184.64,217.43 184.332,217.63C184.024,217.83 183.672,217.972 183.276,218.056C182.88,218.14 182.458,218.182 182.01,218.182L180.642,218.182L180.186,221.494L178.314,221.494L179.502,212.998ZM180.87,216.598L182.118,216.598C182.286,216.598 182.45,216.582 182.61,216.55C182.77,216.518 182.918,216.464 183.054,216.388C183.19,216.312 183.306,216.208 183.402,216.076C183.498,215.944 183.558,215.778 183.582,215.578C183.614,215.362 183.588,215.188 183.504,215.056C183.42,214.924 183.304,214.822 183.156,214.75C183.008,214.678 182.84,214.632 182.652,214.612C182.464,214.592 182.282,214.582 182.106,214.582L181.146,214.582L180.87,216.598Z" style="fill:rgb(189,113,37);fill-rule:nonzero;"/>
                <path d="M186.006,217.246C186.102,216.566 186.304,215.95 186.612,215.398C186.92,214.846 187.304,214.376 187.764,213.988C188.224,213.6 188.75,213.302 189.342,213.094C189.934,212.886 190.562,212.782 191.226,212.782C191.89,212.782 192.486,212.886 193.014,213.094C193.542,213.302 193.982,213.6 194.334,213.988C194.686,214.376 194.938,214.846 195.09,215.398C195.242,215.95 195.27,216.566 195.174,217.246C195.078,217.926 194.878,218.542 194.574,219.094C194.27,219.646 193.886,220.116 193.422,220.504C192.958,220.892 192.432,221.19 191.844,221.398C191.256,221.606 190.63,221.71 189.966,221.71C189.302,221.71 188.704,221.606 188.172,221.398C187.64,221.19 187.198,220.892 186.846,220.504C186.494,220.116 186.242,219.646 186.09,219.094C185.938,218.542 185.91,217.926 186.006,217.246ZM187.95,217.246C187.894,217.646 187.906,218.012 187.986,218.344C188.066,218.676 188.204,218.964 188.4,219.208C188.596,219.452 188.846,219.642 189.15,219.778C189.454,219.914 189.806,219.982 190.206,219.982C190.606,219.982 190.978,219.914 191.322,219.778C191.666,219.642 191.97,219.452 192.234,219.208C192.498,218.964 192.716,218.676 192.888,218.344C193.06,218.012 193.174,217.646 193.23,217.246C193.286,216.854 193.276,216.49 193.2,216.154C193.124,215.818 192.986,215.528 192.786,215.284C192.586,215.04 192.334,214.85 192.03,214.714C191.726,214.578 191.374,214.51 190.974,214.51C190.574,214.51 190.202,214.578 189.858,214.714C189.514,214.85 189.21,215.04 188.946,215.284C188.682,215.528 188.464,215.818 188.292,216.154C188.12,216.49 188.006,216.854 187.95,217.246Z" style="fill:rgb(189,113,37);fill-rule:nonzero;"/>
                <path d="M197.046,212.998L199.59,212.998L202.374,218.902L202.398,218.902L203.226,212.998L205.098,212.998L203.91,221.494L201.462,221.494L198.594,215.446L198.57,215.446L197.73,221.494L195.858,221.494L197.046,212.998Z" style="fill:rgb(189,113,37);fill-rule:nonzero;"/>
                <path d="M210.738,215.074C210.61,214.882 210.422,214.74 210.174,214.648C209.926,214.556 209.686,214.51 209.454,214.51C209.318,214.51 209.174,214.526 209.022,214.558C208.87,214.59 208.728,214.64 208.596,214.708C208.464,214.776 208.35,214.866 208.254,214.978C208.158,215.09 208.098,215.226 208.074,215.386C208.05,215.578 208.084,215.736 208.176,215.86C208.268,215.984 208.4,216.088 208.572,216.172C208.744,216.256 208.944,216.33 209.172,216.394C209.4,216.458 209.63,216.53 209.862,216.61C210.094,216.69 210.32,216.786 210.54,216.898C210.76,217.01 210.95,217.152 211.11,217.324C211.27,217.496 211.388,217.712 211.464,217.972C211.54,218.232 211.55,218.546 211.494,218.914C211.43,219.386 211.284,219.798 211.056,220.15C210.828,220.502 210.548,220.794 210.216,221.026C209.884,221.258 209.512,221.43 209.1,221.542C208.688,221.654 208.262,221.71 207.822,221.71C207.27,221.71 206.77,221.626 206.322,221.458C205.874,221.29 205.47,221.018 205.11,220.642L206.658,219.178C206.818,219.434 207.032,219.632 207.3,219.772C207.568,219.912 207.858,219.982 208.17,219.982C208.322,219.982 208.478,219.964 208.638,219.928C208.798,219.892 208.946,219.838 209.082,219.766C209.218,219.694 209.332,219.602 209.424,219.49C209.516,219.378 209.574,219.246 209.598,219.094C209.638,218.838 209.568,218.636 209.388,218.488C209.208,218.34 208.978,218.214 208.698,218.11C208.418,218.006 208.114,217.902 207.786,217.798C207.458,217.694 207.158,217.554 206.886,217.378C206.614,217.202 206.4,216.97 206.244,216.682C206.088,216.394 206.042,216.014 206.106,215.542C206.17,215.086 206.316,214.686 206.544,214.342C206.772,213.998 207.054,213.71 207.39,213.478C207.726,213.246 208.098,213.072 208.506,212.956C208.914,212.84 209.326,212.782 209.742,212.782C210.222,212.782 210.676,212.85 211.104,212.986C211.532,213.122 211.902,213.35 212.214,213.67L210.738,215.074Z" style="fill:rgb(189,113,37);fill-rule:nonzero;"/>
                <path d="M212.658,217.246C212.754,216.566 212.956,215.95 213.264,215.398C213.572,214.846 213.956,214.376 214.416,213.988C214.876,213.6 215.402,213.302 215.994,213.094C216.586,212.886 217.214,212.782 217.878,212.782C218.542,212.782 219.138,212.886 219.666,213.094C220.194,213.302 220.634,213.6 220.986,213.988C221.338,214.376 221.59,214.846 221.742,215.398C221.894,215.95 221.922,216.566 221.826,217.246C221.73,217.926 221.53,218.542 221.226,219.094C220.922,219.646 220.538,220.116 220.074,220.504C219.61,220.892 219.084,221.19 218.496,221.398C217.908,221.606 217.282,221.71 216.618,221.71C215.954,221.71 215.356,221.606 214.824,221.398C214.292,221.19 213.85,220.892 213.498,220.504C213.146,220.116 212.894,219.646 212.742,219.094C212.59,218.542 212.562,217.926 212.658,217.246ZM214.602,217.246C214.546,217.646 214.558,218.012 214.638,218.344C214.718,218.676 214.856,218.964 215.052,219.208C215.248,219.452 215.498,219.642 215.802,219.778C216.106,219.914 216.458,219.982 216.858,219.982C217.258,219.982 217.63,219.914 217.974,219.778C218.318,219.642 218.622,219.452 218.886,219.208C219.15,218.964 219.368,218.676 219.54,218.344C219.712,218.012 219.826,217.646 219.882,217.246C219.938,216.854 219.928,216.49 219.852,216.154C219.776,215.818 219.638,215.528 219.438,215.284C219.238,215.04 218.986,214.85 218.682,214.714C218.378,214.578 218.026,214.51 217.626,214.51C217.226,214.51 216.854,214.578 216.51,214.714C216.166,214.85 215.862,215.04 215.598,215.284C215.334,215.528 215.116,215.818 214.944,216.154C214.772,216.49 214.658,216.854 214.602,217.246Z" style="fill:rgb(189,113,37);fill-rule:nonzero;"/>
                <path d="M223.698,212.998L226.986,212.998C227.418,212.998 227.822,213.04 228.198,213.124C228.574,213.208 228.894,213.348 229.158,213.544C229.422,213.74 229.618,214.004 229.746,214.336C229.874,214.668 229.902,215.082 229.83,215.578C229.742,216.178 229.514,216.688 229.146,217.108C228.778,217.528 228.286,217.794 227.67,217.906L229.326,221.494L227.082,221.494L225.774,218.098L224.85,218.098L224.382,221.494L222.51,221.494L223.698,212.998ZM225.078,216.514L226.182,216.514C226.35,216.514 226.528,216.508 226.716,216.496C226.904,216.484 227.078,216.448 227.238,216.388C227.398,216.328 227.538,216.234 227.658,216.106C227.778,215.978 227.854,215.798 227.886,215.566C227.918,215.35 227.898,215.178 227.826,215.05C227.754,214.922 227.654,214.824 227.526,214.756C227.398,214.688 227.248,214.642 227.076,214.618C226.904,214.594 226.734,214.582 226.566,214.582L225.342,214.582L225.078,216.514Z" style="fill:rgb(189,113,37);fill-rule:nonzero;"/>
                <path d="M235.386,215.074C235.258,214.882 235.07,214.74 234.822,214.648C234.574,214.556 234.334,214.51 234.102,214.51C233.966,214.51 233.822,214.526 233.67,214.558C233.518,214.59 233.376,214.64 233.244,214.708C233.112,214.776 232.998,214.866 232.902,214.978C232.806,215.09 232.746,215.226 232.722,215.386C232.698,215.578 232.732,215.736 232.824,215.86C232.916,215.984 233.048,216.088 233.22,216.172C233.392,216.256 233.592,216.33 233.82,216.394C234.048,216.458 234.278,216.53 234.51,216.61C234.742,216.69 234.968,216.786 235.188,216.898C235.408,217.01 235.598,217.152 235.758,217.324C235.918,217.496 236.036,217.712 236.112,217.972C236.188,218.232 236.198,218.546 236.142,218.914C236.078,219.386 235.932,219.798 235.704,220.15C235.476,220.502 235.196,220.794 234.864,221.026C234.532,221.258 234.16,221.43 233.748,221.542C233.336,221.654 232.91,221.71 232.47,221.71C231.918,221.71 231.418,221.626 230.97,221.458C230.522,221.29 230.118,221.018 229.758,220.642L231.306,219.178C231.466,219.434 231.68,219.632 231.948,219.772C232.216,219.912 232.506,219.982 232.818,219.982C232.97,219.982 233.126,219.964 233.286,219.928C233.446,219.892 233.594,219.838 233.73,219.766C233.866,219.694 233.98,219.602 234.072,219.49C234.164,219.378 234.222,219.246 234.246,219.094C234.286,218.838 234.216,218.636 234.036,218.488C233.856,218.34 233.626,218.214 233.346,218.11C233.066,218.006 232.762,217.902 232.434,217.798C232.106,217.694 231.806,217.554 231.534,217.378C231.262,217.202 231.048,216.97 230.892,216.682C230.736,216.394 230.69,216.014 230.754,215.542C230.818,215.086 230.964,214.686 231.192,214.342C231.42,213.998 231.702,213.71 232.038,213.478C232.374,213.246 232.746,213.072 233.154,212.956C233.562,212.84 233.974,212.782 234.39,212.782C234.87,212.782 235.324,212.85 235.752,212.986C236.18,213.122 236.55,213.35 236.862,213.67L235.386,215.074Z" style="fill:rgb(189,113,37);fill-rule:nonzero;"/>
            </g>
        </g>
    </g>
</svg>
