<?xml version="1.0" standalone="no"?>
<!DOCTYPE svg PUBLIC "-//W3C//DTD SVG 1.1//EN" "http://www.w3.org/Graphics/SVG/1.1/DTD/svg11.dtd">
<svg width="100%" height="100%" viewBox="0 0 125 62" version="1.1" xmlns="http://www.w3.org/2000/svg" xmlns:xlink="http://www.w3.org/1999/xlink" xml:space="preserve" style="fill-rule:evenodd;clip-rule:evenodd;stroke-linecap:round;stroke-linejoin:round;stroke-miterlimit:1.41421;">
    <g transform="matrix(1,0,0,1,-50.6752,-205.481)">
        <g>
            <g transform="matrix(0.790944,0,0,0.790944,-166.628,164.395)">
                <g transform="matrix(0.60744,-1.4878e-16,1.4878e-16,0.60744,167.645,-1.30702)">
                    <circle cx="240" cy="151.365" r="57.201" style="fill:rgb(232,232,232);stroke-width:7.5px;stroke:rgb(241,210,142);"/>
                </g>
                <g transform="matrix(0.60744,-1.4878e-16,1.4878e-16,0.60744,167.645,-1.30702)">
                    <path d="M296.054,139.922C296.637,142.788 297.006,145.731 297.142,148.735L237.37,208.507C234.366,208.37 231.423,208.002 228.557,207.419L296.054,139.922ZM268.163,101.575C279.14,107.802 287.859,117.554 292.778,129.287L217.922,204.143C206.189,199.224 196.437,190.504 190.211,179.528L268.163,101.575Z" style="fill:rgb(252,252,252);"/>
                </g>
                <g transform="matrix(0.60744,-1.4878e-16,1.4878e-16,0.60744,167.645,-1.30702)">
                    <path d="M240.393,90.415C241.437,90.425 242.479,90.454 243.521,90.514C245.446,90.624 247.367,90.824 249.273,91.116C254.723,91.95 260.054,93.531 265.077,95.803C271.325,98.63 277.082,102.52 282.045,107.252C287,111.976 291.155,117.53 294.277,123.623C296.893,128.728 298.779,134.202 299.86,139.836C301.101,146.303 301.284,152.973 300.412,159.5C299.581,165.712 297.782,171.788 295.095,177.45C291.999,183.971 287.736,189.927 282.571,194.97C277.136,200.277 270.715,204.56 263.718,207.521C259.8,209.18 255.707,210.423 251.529,211.225C247.861,211.928 244.128,212.291 240.393,212.315C236.65,212.339 232.905,212.023 229.22,211.364C225.025,210.613 220.912,209.419 216.968,207.807C209.932,204.93 203.456,200.722 197.955,195.477C192.733,190.498 188.4,184.597 185.227,178.116C182.474,172.495 180.602,166.452 179.695,160.26C178.739,153.743 178.842,147.068 180.001,140.585C181.012,134.93 182.833,129.425 185.39,124.282C188.494,118.041 192.675,112.345 197.691,107.505C202.535,102.831 208.15,98.962 214.25,96.113C219.238,93.782 224.541,92.137 229.972,91.237C231.87,90.922 233.784,90.697 235.704,90.563C236.742,90.49 237.781,90.448 238.821,90.425C239.345,90.416 239.869,90.413 240.393,90.415ZM239.654,97.915C237.045,97.939 234.441,98.135 231.861,98.53C227.086,99.26 222.415,100.645 218.014,102.636C212.631,105.072 207.663,108.408 203.363,112.46C199.071,116.504 195.45,121.254 192.696,126.469C190.301,131.007 188.568,135.889 187.57,140.922C186.424,146.7 186.242,152.668 187.022,158.507C187.75,163.95 189.326,169.273 191.681,174.234C194.443,180.052 198.265,185.356 202.899,189.827C207.695,194.455 213.351,198.18 219.505,200.741C222.847,202.131 226.33,203.177 229.884,203.859C233.216,204.498 236.608,204.816 240,204.816C243.392,204.816 246.784,204.498 250.116,203.859C253.67,203.177 257.153,202.131 260.495,200.741C266.649,198.18 272.305,194.455 277.101,189.827C281.735,185.356 285.557,180.052 288.319,174.234C290.674,169.273 292.25,163.95 292.978,158.506C293.758,152.669 293.576,146.699 292.43,140.922C291.453,135.995 289.772,131.212 287.454,126.756C284.732,121.523 281.139,116.751 276.87,112.68C272.516,108.529 267.466,105.116 261.986,102.636C257.585,100.645 252.914,99.26 248.139,98.53C245.559,98.135 242.955,97.939 240.346,97.915C240.115,97.914 239.885,97.914 239.654,97.915Z" style="fill:rgb(207,207,207);fill-rule:nonzero;"/>
                </g>
            </g>
            <g transform="matrix(1.41609,0,0,1.41609,-160.253,-62.8419)">
                <path d="M176.526,203.074C176.398,202.882 176.21,202.74 175.962,202.648C175.714,202.556 175.474,202.51 175.242,202.51C175.106,202.51 174.962,202.526 174.81,202.558C174.658,202.59 174.516,202.64 174.384,202.708C174.252,202.776 174.138,202.866 174.042,202.978C173.946,203.09 173.886,203.226 173.862,203.386C173.838,203.578 173.872,203.736 173.964,203.86C174.056,203.984 174.188,204.088 174.36,204.172C174.532,204.256 174.732,204.33 174.96,204.394C175.188,204.458 175.418,204.53 175.65,204.61C175.882,204.69 176.108,204.786 176.328,204.898C176.548,205.01 176.738,205.152 176.898,205.324C177.058,205.496 177.176,205.712 177.252,205.972C177.328,206.232 177.338,206.546 177.282,206.914C177.218,207.386 177.072,207.798 176.844,208.15C176.616,208.502 176.336,208.794 176.004,209.026C175.672,209.258 175.3,209.43 174.888,209.542C174.476,209.654 174.05,209.71 173.61,209.71C173.058,209.71 172.558,209.626 172.11,209.458C171.662,209.29 171.258,209.018 170.898,208.642L172.446,207.178C172.606,207.434 172.82,207.632 173.088,207.772C173.356,207.912 173.646,207.982 173.958,207.982C174.11,207.982 174.266,207.964 174.426,207.928C174.586,207.892 174.734,207.838 174.87,207.766C175.006,207.694 175.12,207.602 175.212,207.49C175.304,207.378 175.362,207.246 175.386,207.094C175.426,206.838 175.356,206.636 175.176,206.488C174.996,206.34 174.766,206.214 174.486,206.11C174.206,206.006 173.902,205.902 173.574,205.798C173.246,205.694 172.946,205.554 172.674,205.378C172.402,205.202 172.188,204.97 172.032,204.682C171.876,204.394 171.83,204.014 171.894,203.542C171.958,203.086 172.104,202.686 172.332,202.342C172.56,201.998 172.842,201.71 173.178,201.478C173.514,201.246 173.886,201.072 174.294,200.956C174.702,200.84 175.114,200.782 175.53,200.782C176.01,200.782 176.464,200.85 176.892,200.986C177.32,201.122 177.69,201.35 178.002,201.67L176.526,203.074Z" style="fill:none;stroke-width:2.47px;stroke-linecap:butt;stroke:white;"/>
                <path d="M179.478,200.998L181.35,200.998L180.162,209.494L178.29,209.494L179.478,200.998Z" style="fill:none;stroke-width:2.47px;stroke-linecap:butt;stroke:white;"/>
                <path d="M183.126,200.998L184.998,200.998L184.05,207.766L187.518,207.766L187.278,209.494L181.938,209.494L183.126,200.998Z" style="fill:none;stroke-width:2.47px;stroke-linecap:butt;stroke:white;"/>
                <path d="M187.554,200.998L189.69,200.998L191.01,206.566L191.034,206.566L193.95,200.998L195.954,200.998L191.262,209.494L189.762,209.494L187.554,200.998Z" style="fill:none;stroke-width:2.47px;stroke-linecap:butt;stroke:white;"/>
                <path d="M196.914,200.998L202.686,200.998L202.446,202.726L198.546,202.726L198.318,204.31L202.002,204.31L201.762,206.038L198.078,206.038L197.838,207.766L201.954,207.766L201.714,209.494L195.726,209.494L196.914,200.998Z" style="fill:none;stroke-width:2.47px;stroke-linecap:butt;stroke:white;"/>
                <path d="M204.402,200.998L207.69,200.998C208.122,200.998 208.526,201.04 208.902,201.124C209.278,201.208 209.598,201.348 209.862,201.544C210.126,201.74 210.322,202.004 210.45,202.336C210.578,202.668 210.606,203.082 210.534,203.578C210.446,204.178 210.218,204.688 209.85,205.108C209.482,205.528 208.99,205.794 208.374,205.906L210.03,209.494L207.786,209.494L206.478,206.098L205.554,206.098L205.086,209.494L203.214,209.494L204.402,200.998ZM205.782,204.514L206.886,204.514C207.054,204.514 207.232,204.508 207.42,204.496C207.608,204.484 207.782,204.448 207.942,204.388C208.102,204.328 208.242,204.234 208.362,204.106C208.482,203.978 208.558,203.798 208.59,203.566C208.622,203.35 208.602,203.178 208.53,203.05C208.458,202.922 208.358,202.824 208.23,202.756C208.102,202.688 207.952,202.642 207.78,202.618C207.608,202.594 207.438,202.582 207.27,202.582L206.046,202.582L205.782,204.514Z" style="fill:none;stroke-width:2.47px;stroke-linecap:butt;stroke:white;"/>
                <path d="M176.526,215.074C176.398,214.882 176.21,214.74 175.962,214.648C175.714,214.556 175.474,214.51 175.242,214.51C175.106,214.51 174.962,214.526 174.81,214.558C174.658,214.59 174.516,214.64 174.384,214.708C174.252,214.776 174.138,214.866 174.042,214.978C173.946,215.09 173.886,215.226 173.862,215.386C173.838,215.578 173.872,215.736 173.964,215.86C174.056,215.984 174.188,216.088 174.36,216.172C174.532,216.256 174.732,216.33 174.96,216.394C175.188,216.458 175.418,216.53 175.65,216.61C175.882,216.69 176.108,216.786 176.328,216.898C176.548,217.01 176.738,217.152 176.898,217.324C177.058,217.496 177.176,217.712 177.252,217.972C177.328,218.232 177.338,218.546 177.282,218.914C177.218,219.386 177.072,219.798 176.844,220.15C176.616,220.502 176.336,220.794 176.004,221.026C175.672,221.258 175.3,221.43 174.888,221.542C174.476,221.654 174.05,221.71 173.61,221.71C173.058,221.71 172.558,221.626 172.11,221.458C171.662,221.29 171.258,221.018 170.898,220.642L172.446,219.178C172.606,219.434 172.82,219.632 173.088,219.772C173.356,219.912 173.646,219.982 173.958,219.982C174.11,219.982 174.266,219.964 174.426,219.928C174.586,219.892 174.734,219.838 174.87,219.766C175.006,219.694 175.12,219.602 175.212,219.49C175.304,219.378 175.362,219.246 175.386,219.094C175.426,218.838 175.356,218.636 175.176,218.488C174.996,218.34 174.766,218.214 174.486,218.11C174.206,218.006 173.902,217.902 173.574,217.798C173.246,217.694 172.946,217.554 172.674,217.378C172.402,217.202 172.188,216.97 172.032,216.682C171.876,216.394 171.83,216.014 171.894,215.542C171.958,215.086 172.104,214.686 172.332,214.342C172.56,213.998 172.842,213.71 173.178,213.478C173.514,213.246 173.886,213.072 174.294,212.956C174.702,212.84 175.114,212.782 175.53,212.782C176.01,212.782 176.464,212.85 176.892,212.986C177.32,213.122 177.69,213.35 178.002,213.67L176.526,215.074Z" style="fill:none;stroke-width:2.47px;stroke-linecap:butt;stroke:white;"/>
                <path d="M179.502,212.998L182.658,212.998C183.098,212.998 183.508,213.038 183.888,213.118C184.268,213.198 184.59,213.336 184.854,213.532C185.118,213.728 185.314,213.992 185.442,214.324C185.57,214.656 185.598,215.074 185.526,215.578C185.454,216.074 185.314,216.49 185.106,216.826C184.898,217.162 184.64,217.43 184.332,217.63C184.024,217.83 183.672,217.972 183.276,218.056C182.88,218.14 182.458,218.182 182.01,218.182L180.642,218.182L180.186,221.494L178.314,221.494L179.502,212.998ZM180.87,216.598L182.118,216.598C182.286,216.598 182.45,216.582 182.61,216.55C182.77,216.518 182.918,216.464 183.054,216.388C183.19,216.312 183.306,216.208 183.402,216.076C183.498,215.944 183.558,215.778 183.582,215.578C183.614,215.362 183.588,215.188 183.504,215.056C183.42,214.924 183.304,214.822 183.156,214.75C183.008,214.678 182.84,214.632 182.652,214.612C182.464,214.592 182.282,214.582 182.106,214.582L181.146,214.582L180.87,216.598Z" style="fill:none;stroke-width:2.47px;stroke-linecap:butt;stroke:white;"/>
                <path d="M186.006,217.246C186.102,216.566 186.304,215.95 186.612,215.398C186.92,214.846 187.304,214.376 187.764,213.988C188.224,213.6 188.75,213.302 189.342,213.094C189.934,212.886 190.562,212.782 191.226,212.782C191.89,212.782 192.486,212.886 193.014,213.094C193.542,213.302 193.982,213.6 194.334,213.988C194.686,214.376 194.938,214.846 195.09,215.398C195.242,215.95 195.27,216.566 195.174,217.246C195.078,217.926 194.878,218.542 194.574,219.094C194.27,219.646 193.886,220.116 193.422,220.504C192.958,220.892 192.432,221.19 191.844,221.398C191.256,221.606 190.63,221.71 189.966,221.71C189.302,221.71 188.704,221.606 188.172,221.398C187.64,221.19 187.198,220.892 186.846,220.504C186.494,220.116 186.242,219.646 186.09,219.094C185.938,218.542 185.91,217.926 186.006,217.246ZM187.95,217.246C187.894,217.646 187.906,218.012 187.986,218.344C188.066,218.676 188.204,218.964 188.4,219.208C188.596,219.452 188.846,219.642 189.15,219.778C189.454,219.914 189.806,219.982 190.206,219.982C190.606,219.982 190.978,219.914 191.322,219.778C191.666,219.642 191.97,219.452 192.234,219.208C192.498,218.964 192.716,218.676 192.888,218.344C193.06,218.012 193.174,217.646 193.23,217.246C193.286,216.854 193.276,216.49 193.2,216.154C193.124,215.818 192.986,215.528 192.786,215.284C192.586,215.04 192.334,214.85 192.03,214.714C191.726,214.578 191.374,214.51 190.974,214.51C190.574,214.51 190.202,214.578 189.858,214.714C189.514,214.85 189.21,215.04 188.946,215.284C188.682,215.528 188.464,215.818 188.292,216.154C188.12,216.49 188.006,216.854 187.95,217.246Z" style="fill:none;stroke-width:2.47px;stroke-linecap:butt;stroke:white;"/>
                <path d="M197.046,212.998L199.59,212.998L202.374,218.902L202.398,218.902L203.226,212.998L205.098,212.998L203.91,221.494L201.462,221.494L198.594,215.446L198.57,215.446L197.73,221.494L195.858,221.494L197.046,212.998Z" style="fill:none;stroke-width:2.47px;stroke-linecap:butt;stroke:white;"/>
                <path d="M210.738,215.074C210.61,214.882 210.422,214.74 210.174,214.648C209.926,214.556 209.686,214.51 209.454,214.51C209.318,214.51 209.174,214.526 209.022,214.558C208.87,214.59 208.728,214.64 208.596,214.708C208.464,214.776 208.35,214.866 208.254,214.978C208.158,215.09 208.098,215.226 208.074,215.386C208.05,215.578 208.084,215.736 208.176,215.86C208.268,215.984 208.4,216.088 208.572,216.172C208.744,216.256 208.944,216.33 209.172,216.394C209.4,216.458 209.63,216.53 209.862,216.61C210.094,216.69 210.32,216.786 210.54,216.898C210.76,217.01 210.95,217.152 211.11,217.324C211.27,217.496 211.388,217.712 211.464,217.972C211.54,218.232 211.55,218.546 211.494,218.914C211.43,219.386 211.284,219.798 211.056,220.15C210.828,220.502 210.548,220.794 210.216,221.026C209.884,221.258 209.512,221.43 209.1,221.542C208.688,221.654 208.262,221.71 207.822,221.71C207.27,221.71 206.77,221.626 206.322,221.458C205.874,221.29 205.47,221.018 205.11,220.642L206.658,219.178C206.818,219.434 207.032,219.632 207.3,219.772C207.568,219.912 207.858,219.982 208.17,219.982C208.322,219.982 208.478,219.964 208.638,219.928C208.798,219.892 208.946,219.838 209.082,219.766C209.218,219.694 209.332,219.602 209.424,219.49C209.516,219.378 209.574,219.246 209.598,219.094C209.638,218.838 209.568,218.636 209.388,218.488C209.208,218.34 208.978,218.214 208.698,218.11C208.418,218.006 208.114,217.902 207.786,217.798C207.458,217.694 207.158,217.554 206.886,217.378C206.614,217.202 206.4,216.97 206.244,216.682C206.088,216.394 206.042,216.014 206.106,215.542C206.17,215.086 206.316,214.686 206.544,214.342C206.772,213.998 207.054,213.71 207.39,213.478C207.726,213.246 208.098,213.072 208.506,212.956C208.914,212.84 209.326,212.782 209.742,212.782C210.222,212.782 210.676,212.85 211.104,212.986C211.532,213.122 211.902,213.35 212.214,213.67L210.738,215.074Z" style="fill:none;stroke-width:2.47px;stroke-linecap:butt;stroke:white;"/>
                <path d="M212.658,217.246C212.754,216.566 212.956,215.95 213.264,215.398C213.572,214.846 213.956,214.376 214.416,213.988C214.876,213.6 215.402,213.302 215.994,213.094C216.586,212.886 217.214,212.782 217.878,212.782C218.542,212.782 219.138,212.886 219.666,213.094C220.194,213.302 220.634,213.6 220.986,213.988C221.338,214.376 221.59,214.846 221.742,215.398C221.894,215.95 221.922,216.566 221.826,217.246C221.73,217.926 221.53,218.542 221.226,219.094C220.922,219.646 220.538,220.116 220.074,220.504C219.61,220.892 219.084,221.19 218.496,221.398C217.908,221.606 217.282,221.71 216.618,221.71C215.954,221.71 215.356,221.606 214.824,221.398C214.292,221.19 213.85,220.892 213.498,220.504C213.146,220.116 212.894,219.646 212.742,219.094C212.59,218.542 212.562,217.926 212.658,217.246ZM214.602,217.246C214.546,217.646 214.558,218.012 214.638,218.344C214.718,218.676 214.856,218.964 215.052,219.208C215.248,219.452 215.498,219.642 215.802,219.778C216.106,219.914 216.458,219.982 216.858,219.982C217.258,219.982 217.63,219.914 217.974,219.778C218.318,219.642 218.622,219.452 218.886,219.208C219.15,218.964 219.368,218.676 219.54,218.344C219.712,218.012 219.826,217.646 219.882,217.246C219.938,216.854 219.928,216.49 219.852,216.154C219.776,215.818 219.638,215.528 219.438,215.284C219.238,215.04 218.986,214.85 218.682,214.714C218.378,214.578 218.026,214.51 217.626,214.51C217.226,214.51 216.854,214.578 216.51,214.714C216.166,214.85 215.862,215.04 215.598,215.284C215.334,215.528 215.116,215.818 214.944,216.154C214.772,216.49 214.658,216.854 214.602,217.246Z" style="fill:none;stroke-width:2.47px;stroke-linecap:butt;stroke:white;"/>
                <path d="M223.698,212.998L226.986,212.998C227.418,212.998 227.822,213.04 228.198,213.124C228.574,213.208 228.894,213.348 229.158,213.544C229.422,213.74 229.618,214.004 229.746,214.336C229.874,214.668 229.902,215.082 229.83,215.578C229.742,216.178 229.514,216.688 229.146,217.108C228.778,217.528 228.286,217.794 227.67,217.906L229.326,221.494L227.082,221.494L225.774,218.098L224.85,218.098L224.382,221.494L222.51,221.494L223.698,212.998ZM225.078,216.514L226.182,216.514C226.35,216.514 226.528,216.508 226.716,216.496C226.904,216.484 227.078,216.448 227.238,216.388C227.398,216.328 227.538,216.234 227.658,216.106C227.778,215.978 227.854,215.798 227.886,215.566C227.918,215.35 227.898,215.178 227.826,215.05C227.754,214.922 227.654,214.824 227.526,214.756C227.398,214.688 227.248,214.642 227.076,214.618C226.904,214.594 226.734,214.582 226.566,214.582L225.342,214.582L225.078,216.514Z" style="fill:none;stroke-width:2.47px;stroke-linecap:butt;stroke:white;"/>
                <path d="M235.386,215.074C235.258,214.882 235.07,214.74 234.822,214.648C234.574,214.556 234.334,214.51 234.102,214.51C233.966,214.51 233.822,214.526 233.67,214.558C233.518,214.59 233.376,214.64 233.244,214.708C233.112,214.776 232.998,214.866 232.902,214.978C232.806,215.09 232.746,215.226 232.722,215.386C232.698,215.578 232.732,215.736 232.824,215.86C232.916,215.984 233.048,216.088 233.22,216.172C233.392,216.256 233.592,216.33 233.82,216.394C234.048,216.458 234.278,216.53 234.51,216.61C234.742,216.69 234.968,216.786 235.188,216.898C235.408,217.01 235.598,217.152 235.758,217.324C235.918,217.496 236.036,217.712 236.112,217.972C236.188,218.232 236.198,218.546 236.142,218.914C236.078,219.386 235.932,219.798 235.704,220.15C235.476,220.502 235.196,220.794 234.864,221.026C234.532,221.258 234.16,221.43 233.748,221.542C233.336,221.654 232.91,221.71 232.47,221.71C231.918,221.71 231.418,221.626 230.97,221.458C230.522,221.29 230.118,221.018 229.758,220.642L231.306,219.178C231.466,219.434 231.68,219.632 231.948,219.772C232.216,219.912 232.506,219.982 232.818,219.982C232.97,219.982 233.126,219.964 233.286,219.928C233.446,219.892 233.594,219.838 233.73,219.766C233.866,219.694 233.98,219.602 234.072,219.49C234.164,219.378 234.222,219.246 234.246,219.094C234.286,218.838 234.216,218.636 234.036,218.488C233.856,218.34 233.626,218.214 233.346,218.11C233.066,218.006 232.762,217.902 232.434,217.798C232.106,217.694 231.806,217.554 231.534,217.378C231.262,217.202 231.048,216.97 230.892,216.682C230.736,216.394 230.69,216.014 230.754,215.542C230.818,215.086 230.964,214.686 231.192,214.342C231.42,213.998 231.702,213.71 232.038,213.478C232.374,213.246 232.746,213.072 233.154,212.956C233.562,212.84 233.974,212.782 234.39,212.782C234.87,212.782 235.324,212.85 235.752,212.986C236.18,213.122 236.55,213.35 236.862,213.67L235.386,215.074Z" style="fill:none;stroke-width:2.47px;stroke-linecap:butt;stroke:white;"/>
                <path d="M176.526,203.074C176.398,202.882 176.21,202.74 175.962,202.648C175.714,202.556 175.474,202.51 175.242,202.51C175.106,202.51 174.962,202.526 174.81,202.558C174.658,202.59 174.516,202.64 174.384,202.708C174.252,202.776 174.138,202.866 174.042,202.978C173.946,203.09 173.886,203.226 173.862,203.386C173.838,203.578 173.872,203.736 173.964,203.86C174.056,203.984 174.188,204.088 174.36,204.172C174.532,204.256 174.732,204.33 174.96,204.394C175.188,204.458 175.418,204.53 175.65,204.61C175.882,204.69 176.108,204.786 176.328,204.898C176.548,205.01 176.738,205.152 176.898,205.324C177.058,205.496 177.176,205.712 177.252,205.972C177.328,206.232 177.338,206.546 177.282,206.914C177.218,207.386 177.072,207.798 176.844,208.15C176.616,208.502 176.336,208.794 176.004,209.026C175.672,209.258 175.3,209.43 174.888,209.542C174.476,209.654 174.05,209.71 173.61,209.71C173.058,209.71 172.558,209.626 172.11,209.458C171.662,209.29 171.258,209.018 170.898,208.642L172.446,207.178C172.606,207.434 172.82,207.632 173.088,207.772C173.356,207.912 173.646,207.982 173.958,207.982C174.11,207.982 174.266,207.964 174.426,207.928C174.586,207.892 174.734,207.838 174.87,207.766C175.006,207.694 175.12,207.602 175.212,207.49C175.304,207.378 175.362,207.246 175.386,207.094C175.426,206.838 175.356,206.636 175.176,206.488C174.996,206.34 174.766,206.214 174.486,206.11C174.206,206.006 173.902,205.902 173.574,205.798C173.246,205.694 172.946,205.554 172.674,205.378C172.402,205.202 172.188,204.97 172.032,204.682C171.876,204.394 171.83,204.014 171.894,203.542C171.958,203.086 172.104,202.686 172.332,202.342C172.56,201.998 172.842,201.71 173.178,201.478C173.514,201.246 173.886,201.072 174.294,200.956C174.702,200.84 175.114,200.782 175.53,200.782C176.01,200.782 176.464,200.85 176.892,200.986C177.32,201.122 177.69,201.35 178.002,201.67L176.526,203.074Z" style="fill:rgb(158,158,158);fill-rule:nonzero;"/>
                <path d="M179.478,200.998L181.35,200.998L180.162,209.494L178.29,209.494L179.478,200.998Z" style="fill:rgb(158,158,158);fill-rule:nonzero;"/>
                <path d="M183.126,200.998L184.998,200.998L184.05,207.766L187.518,207.766L187.278,209.494L181.938,209.494L183.126,200.998Z" style="fill:rgb(158,158,158);fill-rule:nonzero;"/>
                <path d="M187.554,200.998L189.69,200.998L191.01,206.566L191.034,206.566L193.95,200.998L195.954,200.998L191.262,209.494L189.762,209.494L187.554,200.998Z" style="fill:rgb(158,158,158);fill-rule:nonzero;"/>
                <path d="M196.914,200.998L202.686,200.998L202.446,202.726L198.546,202.726L198.318,204.31L202.002,204.31L201.762,206.038L198.078,206.038L197.838,207.766L201.954,207.766L201.714,209.494L195.726,209.494L196.914,200.998Z" style="fill:rgb(158,158,158);fill-rule:nonzero;"/>
                <path d="M204.402,200.998L207.69,200.998C208.122,200.998 208.526,201.04 208.902,201.124C209.278,201.208 209.598,201.348 209.862,201.544C210.126,201.74 210.322,202.004 210.45,202.336C210.578,202.668 210.606,203.082 210.534,203.578C210.446,204.178 210.218,204.688 209.85,205.108C209.482,205.528 208.99,205.794 208.374,205.906L210.03,209.494L207.786,209.494L206.478,206.098L205.554,206.098L205.086,209.494L203.214,209.494L204.402,200.998ZM205.782,204.514L206.886,204.514C207.054,204.514 207.232,204.508 207.42,204.496C207.608,204.484 207.782,204.448 207.942,204.388C208.102,204.328 208.242,204.234 208.362,204.106C208.482,203.978 208.558,203.798 208.59,203.566C208.622,203.35 208.602,203.178 208.53,203.05C208.458,202.922 208.358,202.824 208.23,202.756C208.102,202.688 207.952,202.642 207.78,202.618C207.608,202.594 207.438,202.582 207.27,202.582L206.046,202.582L205.782,204.514Z" style="fill:rgb(158,158,158);fill-rule:nonzero;"/>
                <path d="M176.526,215.074C176.398,214.882 176.21,214.74 175.962,214.648C175.714,214.556 175.474,214.51 175.242,214.51C175.106,214.51 174.962,214.526 174.81,214.558C174.658,214.59 174.516,214.64 174.384,214.708C174.252,214.776 174.138,214.866 174.042,214.978C173.946,215.09 173.886,215.226 173.862,215.386C173.838,215.578 173.872,215.736 173.964,215.86C174.056,215.984 174.188,216.088 174.36,216.172C174.532,216.256 174.732,216.33 174.96,216.394C175.188,216.458 175.418,216.53 175.65,216.61C175.882,216.69 176.108,216.786 176.328,216.898C176.548,217.01 176.738,217.152 176.898,217.324C177.058,217.496 177.176,217.712 177.252,217.972C177.328,218.232 177.338,218.546 177.282,218.914C177.218,219.386 177.072,219.798 176.844,220.15C176.616,220.502 176.336,220.794 176.004,221.026C175.672,221.258 175.3,221.43 174.888,221.542C174.476,221.654 174.05,221.71 173.61,221.71C173.058,221.71 172.558,221.626 172.11,221.458C171.662,221.29 171.258,221.018 170.898,220.642L172.446,219.178C172.606,219.434 172.82,219.632 173.088,219.772C173.356,219.912 173.646,219.982 173.958,219.982C174.11,219.982 174.266,219.964 174.426,219.928C174.586,219.892 174.734,219.838 174.87,219.766C175.006,219.694 175.12,219.602 175.212,219.49C175.304,219.378 175.362,219.246 175.386,219.094C175.426,218.838 175.356,218.636 175.176,218.488C174.996,218.34 174.766,218.214 174.486,218.11C174.206,218.006 173.902,217.902 173.574,217.798C173.246,217.694 172.946,217.554 172.674,217.378C172.402,217.202 172.188,216.97 172.032,216.682C171.876,216.394 171.83,216.014 171.894,215.542C171.958,215.086 172.104,214.686 172.332,214.342C172.56,213.998 172.842,213.71 173.178,213.478C173.514,213.246 173.886,213.072 174.294,212.956C174.702,212.84 175.114,212.782 175.53,212.782C176.01,212.782 176.464,212.85 176.892,212.986C177.32,213.122 177.69,213.35 178.002,213.67L176.526,215.074Z" style="fill:rgb(158,158,158);fill-rule:nonzero;"/>
                <path d="M179.502,212.998L182.658,212.998C183.098,212.998 183.508,213.038 183.888,213.118C184.268,213.198 184.59,213.336 184.854,213.532C185.118,213.728 185.314,213.992 185.442,214.324C185.57,214.656 185.598,215.074 185.526,215.578C185.454,216.074 185.314,216.49 185.106,216.826C184.898,217.162 184.64,217.43 184.332,217.63C184.024,217.83 183.672,217.972 183.276,218.056C182.88,218.14 182.458,218.182 182.01,218.182L180.642,218.182L180.186,221.494L178.314,221.494L179.502,212.998ZM180.87,216.598L182.118,216.598C182.286,216.598 182.45,216.582 182.61,216.55C182.77,216.518 182.918,216.464 183.054,216.388C183.19,216.312 183.306,216.208 183.402,216.076C183.498,215.944 183.558,215.778 183.582,215.578C183.614,215.362 183.588,215.188 183.504,215.056C183.42,214.924 183.304,214.822 183.156,214.75C183.008,214.678 182.84,214.632 182.652,214.612C182.464,214.592 182.282,214.582 182.106,214.582L181.146,214.582L180.87,216.598Z" style="fill:rgb(158,158,158);fill-rule:nonzero;"/>
                <path d="M186.006,217.246C186.102,216.566 186.304,215.95 186.612,215.398C186.92,214.846 187.304,214.376 187.764,213.988C188.224,213.6 188.75,213.302 189.342,213.094C189.934,212.886 190.562,212.782 191.226,212.782C191.89,212.782 192.486,212.886 193.014,213.094C193.542,213.302 193.982,213.6 194.334,213.988C194.686,214.376 194.938,214.846 195.09,215.398C195.242,215.95 195.27,216.566 195.174,217.246C195.078,217.926 194.878,218.542 194.574,219.094C194.27,219.646 193.886,220.116 193.422,220.504C192.958,220.892 192.432,221.19 191.844,221.398C191.256,221.606 190.63,221.71 189.966,221.71C189.302,221.71 188.704,221.606 188.172,221.398C187.64,221.19 187.198,220.892 186.846,220.504C186.494,220.116 186.242,219.646 186.09,219.094C185.938,218.542 185.91,217.926 186.006,217.246ZM187.95,217.246C187.894,217.646 187.906,218.012 187.986,218.344C188.066,218.676 188.204,218.964 188.4,219.208C188.596,219.452 188.846,219.642 189.15,219.778C189.454,219.914 189.806,219.982 190.206,219.982C190.606,219.982 190.978,219.914 191.322,219.778C191.666,219.642 191.97,219.452 192.234,219.208C192.498,218.964 192.716,218.676 192.888,218.344C193.06,218.012 193.174,217.646 193.23,217.246C193.286,216.854 193.276,216.49 193.2,216.154C193.124,215.818 192.986,215.528 192.786,215.284C192.586,215.04 192.334,214.85 192.03,214.714C191.726,214.578 191.374,214.51 190.974,214.51C190.574,214.51 190.202,214.578 189.858,214.714C189.514,214.85 189.21,215.04 188.946,215.284C188.682,215.528 188.464,215.818 188.292,216.154C188.12,216.49 188.006,216.854 187.95,217.246Z" style="fill:rgb(158,158,158);fill-rule:nonzero;"/>
                <path d="M197.046,212.998L199.59,212.998L202.374,218.902L202.398,218.902L203.226,212.998L205.098,212.998L203.91,221.494L201.462,221.494L198.594,215.446L198.57,215.446L197.73,221.494L195.858,221.494L197.046,212.998Z" style="fill:rgb(158,158,158);fill-rule:nonzero;"/>
                <path d="M210.738,215.074C210.61,214.882 210.422,214.74 210.174,214.648C209.926,214.556 209.686,214.51 209.454,214.51C209.318,214.51 209.174,214.526 209.022,214.558C208.87,214.59 208.728,214.64 208.596,214.708C208.464,214.776 208.35,214.866 208.254,214.978C208.158,215.09 208.098,215.226 208.074,215.386C208.05,215.578 208.084,215.736 208.176,215.86C208.268,215.984 208.4,216.088 208.572,216.172C208.744,216.256 208.944,216.33 209.172,216.394C209.4,216.458 209.63,216.53 209.862,216.61C210.094,216.69 210.32,216.786 210.54,216.898C210.76,217.01 210.95,217.152 211.11,217.324C211.27,217.496 211.388,217.712 211.464,217.972C211.54,218.232 211.55,218.546 211.494,218.914C211.43,219.386 211.284,219.798 211.056,220.15C210.828,220.502 210.548,220.794 210.216,221.026C209.884,221.258 209.512,221.43 209.1,221.542C208.688,221.654 208.262,221.71 207.822,221.71C207.27,221.71 206.77,221.626 206.322,221.458C205.874,221.29 205.47,221.018 205.11,220.642L206.658,219.178C206.818,219.434 207.032,219.632 207.3,219.772C207.568,219.912 207.858,219.982 208.17,219.982C208.322,219.982 208.478,219.964 208.638,219.928C208.798,219.892 208.946,219.838 209.082,219.766C209.218,219.694 209.332,219.602 209.424,219.49C209.516,219.378 209.574,219.246 209.598,219.094C209.638,218.838 209.568,218.636 209.388,218.488C209.208,218.34 208.978,218.214 208.698,218.11C208.418,218.006 208.114,217.902 207.786,217.798C207.458,217.694 207.158,217.554 206.886,217.378C206.614,217.202 206.4,216.97 206.244,216.682C206.088,216.394 206.042,216.014 206.106,215.542C206.17,215.086 206.316,214.686 206.544,214.342C206.772,213.998 207.054,213.71 207.39,213.478C207.726,213.246 208.098,213.072 208.506,212.956C208.914,212.84 209.326,212.782 209.742,212.782C210.222,212.782 210.676,212.85 211.104,212.986C211.532,213.122 211.902,213.35 212.214,213.67L210.738,215.074Z" style="fill:rgb(158,158,158);fill-rule:nonzero;"/>
                <path d="M212.658,217.246C212.754,216.566 212.956,215.95 213.264,215.398C213.572,214.846 213.956,214.376 214.416,213.988C214.876,213.6 215.402,213.302 215.994,213.094C216.586,212.886 217.214,212.782 217.878,212.782C218.542,212.782 219.138,212.886 219.666,213.094C220.194,213.302 220.634,213.6 220.986,213.988C221.338,214.376 221.59,214.846 221.742,215.398C221.894,215.95 221.922,216.566 221.826,217.246C221.73,217.926 221.53,218.542 221.226,219.094C220.922,219.646 220.538,220.116 220.074,220.504C219.61,220.892 219.084,221.19 218.496,221.398C217.908,221.606 217.282,221.71 216.618,221.71C215.954,221.71 215.356,221.606 214.824,221.398C214.292,221.19 213.85,220.892 213.498,220.504C213.146,220.116 212.894,219.646 212.742,219.094C212.59,218.542 212.562,217.926 212.658,217.246ZM214.602,217.246C214.546,217.646 214.558,218.012 214.638,218.344C214.718,218.676 214.856,218.964 215.052,219.208C215.248,219.452 215.498,219.642 215.802,219.778C216.106,219.914 216.458,219.982 216.858,219.982C217.258,219.982 217.63,219.914 217.974,219.778C218.318,219.642 218.622,219.452 218.886,219.208C219.15,218.964 219.368,218.676 219.54,218.344C219.712,218.012 219.826,217.646 219.882,217.246C219.938,216.854 219.928,216.49 219.852,216.154C219.776,215.818 219.638,215.528 219.438,215.284C219.238,215.04 218.986,214.85 218.682,214.714C218.378,214.578 218.026,214.51 217.626,214.51C217.226,214.51 216.854,214.578 216.51,214.714C216.166,214.85 215.862,215.04 215.598,215.284C215.334,215.528 215.116,215.818 214.944,216.154C214.772,216.49 214.658,216.854 214.602,217.246Z" style="fill:rgb(158,158,158);fill-rule:nonzero;"/>
                <path d="M223.698,212.998L226.986,212.998C227.418,212.998 227.822,213.04 228.198,213.124C228.574,213.208 228.894,213.348 229.158,213.544C229.422,213.74 229.618,214.004 229.746,214.336C229.874,214.668 229.902,215.082 229.83,215.578C229.742,216.178 229.514,216.688 229.146,217.108C228.778,217.528 228.286,217.794 227.67,217.906L229.326,221.494L227.082,221.494L225.774,218.098L224.85,218.098L224.382,221.494L222.51,221.494L223.698,212.998ZM225.078,216.514L226.182,216.514C226.35,216.514 226.528,216.508 226.716,216.496C226.904,216.484 227.078,216.448 227.238,216.388C227.398,216.328 227.538,216.234 227.658,216.106C227.778,215.978 227.854,215.798 227.886,215.566C227.918,215.35 227.898,215.178 227.826,215.05C227.754,214.922 227.654,214.824 227.526,214.756C227.398,214.688 227.248,214.642 227.076,214.618C226.904,214.594 226.734,214.582 226.566,214.582L225.342,214.582L225.078,216.514Z" style="fill:rgb(158,158,158);fill-rule:nonzero;"/>
                <path d="M235.386,215.074C235.258,214.882 235.07,214.74 234.822,214.648C234.574,214.556 234.334,214.51 234.102,214.51C233.966,214.51 233.822,214.526 233.67,214.558C233.518,214.59 233.376,214.64 233.244,214.708C233.112,214.776 232.998,214.866 232.902,214.978C232.806,215.09 232.746,215.226 232.722,215.386C232.698,215.578 232.732,215.736 232.824,215.86C232.916,215.984 233.048,216.088 233.22,216.172C233.392,216.256 233.592,216.33 233.82,216.394C234.048,216.458 234.278,216.53 234.51,216.61C234.742,216.69 234.968,216.786 235.188,216.898C235.408,217.01 235.598,217.152 235.758,217.324C235.918,217.496 236.036,217.712 236.112,217.972C236.188,218.232 236.198,218.546 236.142,218.914C236.078,219.386 235.932,219.798 235.704,220.15C235.476,220.502 235.196,220.794 234.864,221.026C234.532,221.258 234.16,221.43 233.748,221.542C233.336,221.654 232.91,221.71 232.47,221.71C231.918,221.71 231.418,221.626 230.97,221.458C230.522,221.29 230.118,221.018 229.758,220.642L231.306,219.178C231.466,219.434 231.68,219.632 231.948,219.772C232.216,219.912 232.506,219.982 232.818,219.982C232.97,219.982 233.126,219.964 233.286,219.928C233.446,219.892 233.594,219.838 233.73,219.766C233.866,219.694 233.98,219.602 234.072,219.49C234.164,219.378 234.222,219.246 234.246,219.094C234.286,218.838 234.216,218.636 234.036,218.488C233.856,218.34 233.626,218.214 233.346,218.11C233.066,218.006 232.762,217.902 232.434,217.798C232.106,217.694 231.806,217.554 231.534,217.378C231.262,217.202 231.048,216.97 230.892,216.682C230.736,216.394 230.69,216.014 230.754,215.542C230.818,215.086 230.964,214.686 231.192,214.342C231.42,213.998 231.702,213.71 232.038,213.478C232.374,213.246 232.746,213.072 233.154,212.956C233.562,212.84 233.974,212.782 234.39,212.782C234.87,212.782 235.324,212.85 235.752,212.986C236.18,213.122 236.55,213.35 236.862,213.67L235.386,215.074Z" style="fill:rgb(158,158,158);fill-rule:nonzero;"/>
            </g>
        </g>
    </g>
</svg>
